P3
16 16
255
203 119 79 197 114 74 197 114 74 197 114 74 203 119 79 203 119 79 203 119 79 203 119 79 203 119 79 203 119 79 197 114 74 197 114 74 197 114 74 197 114 74 197 114 74 130 73 42 
197 114 74 178 91 59 174 93 52 174 93 52 174 93 52 186 93 59 186 93 59 174 93 52 174 93 52 186 93 59 186 93 59 174 93 52 174 93 52 174 93 52 174 93 52 158 95 63 
203 119 79 178 91 59 108 59 31 108 59 31 130 73 42 150 88 55 108 59 31 108 59 31 130 73 42 150 88 55 108 59 31 108 59 31 130 73 42 150 88 55 174 93 52 158 95 63 
203 119 79 178 91 59 108 59 31 255 255 255 255 255 255 197 114 74 108 59 31 255 255 255 255 255 255 197 114 74 108 59 31 255 255 255 255 255 255 197 114 74 174 93 52 130 73 42 
53 53 53 178 91 59 130 73 42 255 255 255 255 255 255 197 114 74 130 73 42 255 255 255 255 255 255 197 114 74 108 59 31 255 255 255 255 255 255 197 114 74 174 93 52 130 73 42 
111 111 111 178 91 59 130 73 42 255 255 255 255 255 255 197 114 74 150 88 55 255 255 255 255 255 255 197 114 74 130 73 42 255 255 255 255 255 255 197 114 74 186 93 59 130 73 42 
186 93 59 178 91 59 150 88 55 255 255 255 255 255 255 197 114 74 150 88 55 255 255 255 255 255 255 197 114 74 150 88 55 255 255 255 255 255 255 197 114 74 186 93 59 130 73 42 
186 93 59 178 91 59 150 88 55 255 255 255 255 255 255 203 119 79 130 73 42 255 255 255 255 255 255 203 119 79 150 88 55 255 255 255 255 255 255 203 119 79 186 93 59 130 73 42 
203 119 79 178 91 59 130 73 42 255 255 255 255 255 255 203 119 79 130 73 42 255 255 255 255 255 255 203 119 79 130 73 42 255 255 255 255 255 255 203 119 79 186 93 59 130 73 42 
203 119 79 178 91 59 150 88 55 255 255 255 255 255 255 203 119 79 130 73 42 255 255 255 255 255 255 203 119 79 130 73 42 255 255 255 255 255 255 203 119 79 174 93 52 108 59 31 
203 119 79 186 93 59 150 88 55 255 255 255 255 255 255 203 119 79 150 88 55 255 255 255 255 255 255 203 119 79 150 88 55 255 255 255 255 255 255 203 119 79 174 93 52 108 59 31 
197 114 74 186 93 59 150 88 55 255 255 255 255 255 255 203 119 79 150 88 55 255 255 255 255 255 255 203 119 79 150 88 55 255 255 255 255 255 255 203 119 79 186 93 59 108 59 31 
203 119 79 186 93 59 130 73 42 255 255 255 255 255 255 203 119 79 150 88 55 255 255 255 255 255 255 203 119 79 150 88 55 255 255 255 255 255 255 203 119 79 186 93 59 130 73 42 
203 119 79 186 93 59 130 73 42 255 255 255 255 255 255 203 119 79 150 88 55 255 255 255 255 255 255 203 119 79 130 73 42 255 255 255 255 255 255 203 119 79 186 93 59 108 59 31 
197 114 74 174 93 52 150 88 55 255 255 255 255 255 255 203 119 79 150 88 55 255 255 255 255 255 255 203 119 79 150 88 55 255 255 255 255 255 255 203 119 79 186 93 59 130 73 42 
53 53 53 174 93 52 178 91 59 197 114 74 203 119 79 203 119 79 178 91 59 197 114 74 203 119 79 203 119 79 178 91 59 197 114 74 53 53 53 81 81 81 114 114 114 130 73 42 
