P3
16 16
255
128 94 54 139 103 60 153 113 64 153 113 64 153 113 64 139 103 60 153 113 64 153 113 64 153 113 64 139 103 60 153 113 64 153 113 64 153 113 64 139 103 60 153 113 64 128 94 54 
153 113 64 102 77 40 107 83 50 107 83 50 107 83 50 102 77 40 128 94 54 107 83 50 107 83 50 107 83 50 102 77 40 128 94 54 107 83 50 102 77 40 102 77 40 153 113 64 
153 113 64 107 83 50 107 83 50 107 83 50 128 94 54 128 94 54 139 103 60 139 103 60 139 103 60 139 103 60 128 94 54 128 94 54 107 83 50 107 83 50 107 83 50 139 103 60 
139 103 60 107 83 50 107 83 50 128 94 54 139 103 60 128 94 54 139 103 60 139 103 60 139 103 60 139 103 60 128 94 54 153 113 64 128 94 54 107 83 50 107 83 50 153 113 64 
153 113 64 107 83 50 128 94 54 153 113 64 139 103 60 139 103 60 139 103 60 139 103 60 153 113 64 153 113 64 139 103 60 153 113 64 139 103 60 128 94 54 107 83 50 153 113 64 
153 113 64 107 83 50 139 103 60 153 113 64 139 103 60 128 94 54 153 113 64 139 103 60 153 113 64 153 113 64 128 94 54 153 113 64 139 103 60 153 113 64 102 77 40 153 113 64 
153 113 64 102 77 40 139 103 60 153 113 64 153 113 64 128 94 54 153 113 64 139 103 60 153 113 64 153 113 64 139 103 60 153 113 64 153 113 64 153 113 64 128 94 54 139 103 60 
139 103 60 128 94 54 139 103 60 139 103 60 139 103 60 139 103 60 153 113 64 139 103 60 153 113 64 153 113 64 139 103 60 153 113 64 153 113 64 153 113 64 107 83 50 153 113 64 
153 113 64 107 83 50 139 103 60 122 122 122 91 91 91 128 94 54 153 113 64 153 113 64 153 113 64 153 113 64 128 94 54 153 113 64 153 113 64 153 113 64 107 83 50 153 113 64 
153 113 64 107 83 50 139 103 60 122 122 122 122 122 122 128 94 54 153 113 64 153 113 64 153 113 64 153 113 64 128 94 54 153 113 64 153 113 64 139 103 60 102 77 40 153 113 64 
153 113 64 102 77 40 153 113 64 128 94 54 128 94 54 139 103 60 153 113 64 153 113 64 139 103 60 139 103 60 139 103 60 153 113 64 153 113 64 139 103 60 128 94 54 139 103 60 
139 103 60 128 94 54 128 94 54 139 103 60 153 113 64 139 103 60 153 113 64 153 113 64 139 103 60 139 103 60 139 103 60 153 113 64 139 103 60 128 94 54 107 83 50 153 113 64 
153 113 64 107 83 50 107 83 50 128 94 54 153 113 64 128 94 54 153 113 64 153 113 64 139 103 60 139 103 60 128 94 54 153 113 64 128 94 54 107 83 50 107 83 50 153 113 64 
153 113 64 107 83 50 107 83 50 107 83 50 128 94 54 128 94 54 139 103 60 139 103 60 139 103 60 139 103 60 128 94 54 128 94 54 107 83 50 107 83 50 107 83 50 153 113 64 
139 103 60 102 77 40 107 83 50 107 83 50 102 77 40 102 77 40 128 94 54 107 83 50 102 77 40 128 94 54 102 77 40 102 77 40 107 83 50 107 83 50 102 77 40 139 103 60 
128 94 54 139 103 60 153 113 64 153 113 64 153 113 64 139 103 60 153 113 64 153 113 64 153 113 64 139 103 60 153 113 64 153 113 64 153 113 64 139 103 60 153 113 64 128 94 54 
