P3
16 16
255
124 81 43 124 81 43 160 106 52 124 81 43 124 81 43 160 106 52 160 106 52 124 81 43 124 81 43 124 81 43 124 81 43 160 106 52 160 106 52 124 81 43 124 81 43 124 81 43 
124 81 43 247 206 70 247 206 70 247 206 70 247 206 70 200 134 68 247 206 70 247 206 70 247 206 70 200 134 68 247 206 70 247 206 70 247 206 70 247 206 70 247 206 70 124 81 43 
124 81 43 247 206 70 251 220 117 251 220 117 251 220 117 247 206 70 251 220 117 251 220 117 251 220 117 247 206 70 251 220 117 251 220 117 251 220 117 251 220 117 247 206 70 160 106 52 
124 81 43 247 206 70 251 220 117 124 81 43 160 106 52 160 106 52 124 81 43 124 81 43 124 81 43 160 106 52 160 106 52 160 106 52 124 81 43 251 220 117 247 206 70 160 106 52 
124 81 43 247 206 70 251 220 117 160 106 52 247 206 70 251 220 117 251 220 117 251 220 117 251 220 117 251 220 117 251 220 117 247 206 70 160 106 52 247 206 70 200 134 68 124 81 43 
160 106 52 247 206 70 251 220 117 160 106 52 251 220 117 251 220 117 251 220 117 251 220 117 251 220 117 251 220 117 251 220 117 251 220 117 124 81 43 251 220 117 247 206 70 124 81 43 
160 106 52 200 134 68 247 206 70 160 106 52 251 220 117 251 220 117 124 81 43 160 106 52 160 106 52 124 81 43 251 220 117 251 220 117 124 81 43 251 220 117 247 206 70 160 106 52 
124 81 43 247 206 70 251 220 117 124 81 43 251 220 117 251 220 117 160 106 52 251 220 117 251 220 117 160 106 52 251 220 117 251 220 117 124 81 43 251 220 117 247 206 70 160 106 52 
124 81 43 247 206 70 251 220 117 124 81 43 251 220 117 251 220 117 160 106 52 251 220 117 247 206 70 160 106 52 251 220 117 247 206 70 160 106 52 247 206 70 200 134 68 124 81 43 
160 106 52 247 206 70 251 220 117 124 81 43 251 220 117 251 220 117 124 81 43 160 106 52 160 106 52 124 81 43 251 220 117 247 206 70 160 106 52 251 220 117 247 206 70 124 81 43 
160 106 52 200 134 68 247 206 70 160 106 52 251 220 117 251 220 117 251 220 117 251 220 117 251 220 117 251 220 117 251 220 117 247 206 70 160 106 52 251 220 117 247 206 70 160 106 52 
160 106 52 247 206 70 251 220 117 160 106 52 247 206 70 251 220 117 251 220 117 251 220 117 251 220 117 251 220 117 247 206 70 247 206 70 160 106 52 251 220 117 247 206 70 160 106 52 
124 81 43 247 206 70 251 220 117 124 81 43 160 106 52 160 106 52 160 106 52 160 106 52 160 106 52 160 106 52 160 106 52 160 106 52 124 81 43 247 206 70 200 134 68 124 81 43 
124 81 43 247 206 70 251 220 117 251 220 117 251 220 117 251 220 117 247 206 70 251 220 117 251 220 117 251 220 117 247 206 70 251 220 117 251 220 117 251 220 117 247 206 70 124 81 43 
124 81 43 247 206 70 247 206 70 247 206 70 247 206 70 200 134 68 247 206 70 247 206 70 247 206 70 247 206 70 200 134 68 247 206 70 247 206 70 247 206 70 247 206 70 124 81 43 
124 81 43 124 81 43 124 81 43 160 106 52 160 106 52 124 81 43 124 81 43 124 81 43 160 106 52 160 106 52 124 81 43 124 81 43 160 106 52 124 81 43 124 81 43 160 106 52 
