P3
16 16
255
111 83 58 111 83 58 122 87 55 111 83 58 111 83 58 122 87 55 122 87 55 111 83 58 111 83 58 111 83 58 111 83 58 122 87 55 122 87 55 111 83 58 111 83 58 111 83 58 
111 83 58 188 152 109 188 152 109 188 152 109 188 152 109 162 129 102 188 152 109 188 152 109 188 152 109 162 129 102 188 152 109 188 152 109 188 152 109 188 152 109 188 152 109 111 83 58 
111 83 58 188 152 109 200 166 113 200 166 113 200 166 113 188 152 109 200 166 113 200 166 113 200 166 113 188 152 109 200 166 113 200 166 113 200 166 113 200 166 113 188 152 109 122 87 55 
111 83 58 188 152 109 200 166 113 111 83 58 122 87 55 122 87 55 111 83 58 111 83 58 111 83 58 122 87 55 122 87 55 122 87 55 111 83 58 200 166 113 188 152 109 122 87 55 
111 83 58 188 152 109 200 166 113 122 87 55 188 152 109 200 166 113 200 166 113 200 166 113 200 166 113 200 166 113 200 166 113 188 152 109 122 87 55 188 152 109 162 129 102 111 83 58 
122 87 55 188 152 109 200 166 113 122 87 55 200 166 113 200 166 113 200 166 113 200 166 113 200 166 113 200 166 113 200 166 113 200 166 113 111 83 58 200 166 113 188 152 109 111 83 58 
122 87 55 162 129 102 188 152 109 122 87 55 200 166 113 200 166 113 111 83 58 122 87 55 122 87 55 111 83 58 200 166 113 200 166 113 111 83 58 200 166 113 188 152 109 122 87 55 
111 83 58 188 152 109 200 166 113 111 83 58 200 166 113 200 166 113 122 87 55 200 166 113 200 166 113 122 87 55 200 166 113 200 166 113 111 83 58 200 166 113 188 152 109 122 87 55 
111 83 58 188 152 109 200 166 113 111 83 58 200 166 113 200 166 113 122 87 55 200 166 113 188 152 109 122 87 55 200 166 113 188 152 109 122 87 55 188 152 109 162 129 102 111 83 58 
122 87 55 188 152 109 200 166 113 111 83 58 200 166 113 200 166 113 111 83 58 122 87 55 122 87 55 111 83 58 200 166 113 188 152 109 122 87 55 200 166 113 188 152 109 111 83 58 
122 87 55 162 129 102 188 152 109 122 87 55 200 166 113 200 166 113 200 166 113 200 166 113 200 166 113 200 166 113 200 166 113 188 152 109 122 87 55 200 166 113 188 152 109 122 87 55 
122 87 55 188 152 109 200 166 113 122 87 55 188 152 109 200 166 113 200 166 113 200 166 113 200 166 113 200 166 113 188 152 109 188 152 109 122 87 55 200 166 113 188 152 109 122 87 55 
111 83 58 188 152 109 200 166 113 111 83 58 122 87 55 122 87 55 122 87 55 122 87 55 122 87 55 122 87 55 122 87 55 122 87 55 111 83 58 188 152 109 162 129 102 111 83 58 
111 83 58 188 152 109 200 166 113 200 166 113 200 166 113 200 166 113 188 152 109 200 166 113 200 166 113 200 166 113 188 152 109 200 166 113 200 166 113 200 166 113 188 152 109 111 83 58 
111 83 58 188 152 109 188 152 109 188 152 109 188 152 109 162 129 102 188 152 109 188 152 109 188 152 109 188 152 109 162 129 102 188 152 109 188 152 109 188 152 109 188 152 109 111 83 58 
111 83 58 111 83 58 111 83 58 122 87 55 122 87 55 111 83 58 111 83 58 111 83 58 122 87 55 122 87 55 111 83 58 111 83 58 122 87 55 111 83 58 111 83 58 122 87 55 
