P3
16 16
255
247 206 70 247 206 70 247 206 70 251 220 117 251 220 117 251 220 117 251 220 117 251 220 117 251 220 117 251 220 117 251 220 117 251 220 117 200 134 68 200 134 68 251 220 117 251 220 117 
247 206 70 247 206 70 247 206 70 247 206 70 251 220 117 251 220 117 251 220 117 251 220 117 247 206 70 247 206 70 251 220 117 200 134 68 251 220 117 251 220 117 200 134 68 251 220 117 
217 164 83 217 164 83 217 164 83 217 164 83 217 164 83 247 206 70 247 206 70 247 206 70 217 164 83 217 164 83 200 134 68 217 164 83 217 164 83 217 164 83 217 164 83 200 134 68 
111 83 58 111 83 58 98 72 49 98 72 49 111 83 58 111 83 58 111 83 58 111 83 58 111 83 58 111 83 58 111 83 58 98 72 49 112 76 46 112 76 46 137 100 69 98 72 49 
251 220 117 247 206 70 251 220 117 251 220 117 247 206 70 247 206 70 247 206 70 247 206 70 247 206 70 251 220 117 112 76 46 80 51 27 80 51 27 80 51 27 137 100 69 251 220 117 
217 164 83 247 206 70 247 206 70 247 206 70 247 206 70 247 206 70 247 206 70 247 206 70 217 164 83 217 164 83 162 129 102 98 72 49 98 72 49 98 72 49 162 129 102 217 164 83 
200 134 68 200 134 68 200 134 68 200 134 68 217 164 83 217 164 83 200 134 68 200 134 68 200 134 68 200 134 68 162 129 102 98 72 49 111 83 58 111 83 58 200 134 68 200 134 68 
111 83 58 98 72 49 111 83 58 111 83 58 98 72 49 111 83 58 111 83 58 111 83 58 111 83 58 111 83 58 137 100 69 200 166 113 200 134 68 200 134 68 200 166 113 111 83 58 
217 164 83 217 164 83 217 164 83 217 164 83 217 164 83 247 206 70 247 206 70 247 206 70 247 206 70 247 206 70 217 164 83 200 166 113 200 166 113 200 166 113 200 134 68 217 164 83 
217 164 83 200 134 68 200 134 68 200 134 68 217 164 83 217 164 83 247 206 70 247 206 70 247 206 70 247 206 70 247 206 70 247 206 70 247 206 70 247 206 70 217 164 83 217 164 83 
200 134 68 200 134 68 200 134 68 200 134 68 200 134 68 200 134 68 200 134 68 200 134 68 200 134 68 200 134 68 200 134 68 200 134 68 200 134 68 200 134 68 200 134 68 200 134 68 
98 72 49 111 83 58 98 72 49 112 76 46 112 76 46 124 81 43 98 72 49 111 83 58 111 83 58 111 83 58 111 83 58 111 83 58 111 83 58 111 83 58 111 83 58 111 83 58 
200 166 113 112 76 46 80 51 27 80 51 27 80 51 27 137 100 69 200 134 68 200 134 68 200 134 68 200 166 113 200 134 68 200 166 113 200 134 68 200 134 68 200 134 68 200 134 68 
200 166 113 162 129 102 98 72 49 98 72 49 98 72 49 162 129 102 200 166 113 200 166 113 200 166 113 200 166 113 200 166 113 200 166 113 200 166 113 200 166 113 200 166 113 200 166 113 
188 152 109 162 129 102 98 72 49 111 83 58 111 83 58 200 134 68 162 129 102 162 129 102 162 129 102 162 129 102 162 129 102 162 129 102 188 152 109 188 152 109 162 129 102 162 129 102 
111 83 58 137 100 69 200 166 113 200 134 68 200 134 68 200 166 113 111 83 58 111 83 58 111 83 58 111 83 58 111 83 58 111 83 58 111 83 58 111 83 58 111 83 58 111 83 58 
