P3
16 16
255
184 148 95 194 157 98 194 157 98 194 157 98 194 157 98 194 157 98 194 157 98 194 157 98 194 157 98 194 157 98 194 157 98 194 157 98 194 157 98 194 157 98 194 157 98 184 148 95 
138 105 56 184 148 95 175 143 85 175 143 85 175 143 85 184 148 95 184 148 95 184 148 95 184 148 95 184 148 95 184 148 95 175 143 85 175 143 85 175 143 85 184 148 95 138 105 56 
138 105 56 184 148 95 184 148 95 175 143 85 175 143 85 175 143 85 184 148 95 184 148 95 184 148 95 184 148 95 175 143 85 175 143 85 184 148 95 184 148 95 184 148 95 138 105 56 
103 80 44 103 80 44 126 98 55 103 80 44 103 80 44 103 80 44 126 98 55 126 98 55 103 80 44 103 80 44 126 98 55 126 98 55 103 80 44 103 80 44 103 80 44 103 80 44 
103 80 44 138 105 56 138 105 56 138 105 56 138 105 56 138 105 56 138 105 56 138 105 56 138 105 56 138 105 56 138 105 56 138 105 56 138 105 56 138 105 56 138 105 56 103 80 44 
103 80 44 138 105 56 138 105 56 138 105 56 138 105 56 138 105 56 138 105 56 138 105 56 138 105 56 138 105 56 138 105 56 138 105 56 138 105 56 138 105 56 138 105 56 103 80 44 
126 98 55 175 143 85 175 143 85 175 143 85 175 143 85 175 143 85 175 143 85 138 105 56 175 143 85 175 143 85 175 143 85 175 143 85 175 143 85 175 143 85 175 143 85 126 98 55 
126 98 55 152 126 71 152 126 71 152 126 71 152 126 71 152 126 71 152 126 71 152 126 71 152 126 71 152 126 71 152 126 71 152 126 71 152 126 71 152 126 71 152 126 71 126 98 55 
126 98 55 184 148 95 184 148 95 138 105 56 175 143 85 175 143 85 175 143 85 175 143 85 175 143 85 175 143 85 175 143 85 184 148 95 152 126 71 184 148 95 184 148 95 126 98 55 
103 80 44 139 139 138 184 148 95 152 126 71 175 143 85 175 143 85 184 148 95 184 148 95 184 148 95 184 148 95 194 157 98 194 157 98 152 126 71 184 148 95 139 139 138 103 80 44 
126 98 55 184 148 95 184 148 95 152 126 71 184 148 95 184 148 95 184 148 95 184 148 95 194 157 98 194 157 98 194 157 98 194 157 98 152 126 71 184 148 95 184 148 95 103 80 44 
126 98 55 138 105 56 152 126 71 152 126 71 152 126 71 152 126 71 152 126 71 152 126 71 152 126 71 152 126 71 152 126 71 152 126 71 152 126 71 152 126 71 138 105 56 126 98 55 
126 98 55 184 148 95 194 157 98 194 157 98 194 157 98 194 157 98 194 157 98 152 126 71 194 157 98 194 157 98 194 157 98 194 157 98 194 157 98 194 157 98 184 148 95 126 98 55 
103 80 44 139 139 138 184 148 95 184 148 95 184 148 95 175 143 85 175 143 85 152 126 71 184 148 95 184 148 95 184 148 95 184 148 95 184 148 95 175 143 85 139 139 138 103 80 44 
126 98 55 175 143 85 175 143 85 184 148 95 184 148 95 184 148 95 175 143 85 138 105 56 184 148 95 175 143 85 175 143 85 175 143 85 175 143 85 175 143 85 175 143 85 126 98 55 
103 80 44 103 80 44 126 98 55 103 80 44 126 98 55 126 98 55 103 80 44 103 80 44 103 80 44 103 80 44 126 98 55 126 98 55 103 80 44 126 98 55 103 80 44 103 80 44 
