P3
16 16
255
80 105 44 112 146 45 132 168 60 132 168 60 132 168 60 132 168 60 132 168 60 108 128 49 112 146 45 132 168 60 132 168 60 132 168 60 132 168 60 132 168 60 112 146 45 80 105 44 
80 105 44 112 146 45 132 168 60 132 168 60 152 196 64 152 196 64 152 196 64 112 146 45 132 168 60 152 196 64 152 196 64 132 168 60 132 168 60 132 168 60 112 146 45 80 105 44 
66 85 45 112 146 45 112 146 45 132 168 60 132 168 60 152 196 64 152 196 64 108 128 49 112 146 45 152 196 64 132 168 60 132 168 60 132 168 60 112 146 45 112 146 45 66 85 45 
66 85 45 108 128 49 112 146 45 132 168 60 132 168 60 132 168 60 132 168 60 108 128 49 132 168 60 132 168 60 132 168 60 132 168 60 132 168 60 112 146 45 108 128 49 66 85 45 
255 255 255 66 85 45 112 146 45 132 168 60 132 168 60 132 168 60 132 168 60 108 128 49 112 146 45 132 168 60 132 168 60 132 168 60 132 168 60 112 146 45 66 85 45 255 255 255 
255 255 255 66 85 45 108 128 49 112 146 45 132 168 60 132 168 60 132 168 60 80 105 44 112 146 45 132 168 60 132 168 60 132 168 60 112 146 45 108 128 49 66 85 45 255 255 255 
255 255 255 66 85 45 112 146 45 108 128 49 112 146 45 132 168 60 132 168 60 80 105 44 108 128 49 132 168 60 132 168 60 112 146 45 108 128 49 112 146 45 66 85 45 255 255 255 
255 255 255 80 105 44 112 146 45 132 168 60 132 168 60 132 168 60 132 168 60 108 128 49 112 146 45 132 168 60 132 168 60 132 168 60 132 168 60 112 146 45 80 105 44 255 255 255 
66 85 45 108 128 49 112 146 45 132 168 60 132 168 60 152 196 64 132 168 60 108 128 49 132 168 60 132 168 60 132 168 60 132 168 60 132 168 60 112 146 45 108 128 49 66 85 45 
80 105 44 80 105 44 108 128 49 132 168 60 132 168 60 132 168 60 132 168 60 108 128 49 132 168 60 132 168 60 132 168 60 132 168 60 132 168 60 108 128 49 80 105 44 80 105 44 
80 105 44 108 128 49 108 128 49 112 146 45 132 168 60 132 168 60 132 168 60 80 105 44 112 146 45 132 168 60 132 168 60 132 168 60 112 146 45 108 128 49 108 128 49 80 105 44 
66 85 45 108 128 49 112 146 45 108 128 49 112 146 45 112 146 45 132 168 60 80 105 44 108 128 49 132 168 60 112 146 45 112 146 45 108 128 49 112 146 45 108 128 49 66 85 45 
255 255 255 80 105 44 112 146 45 112 146 45 112 146 45 132 168 60 132 168 60 108 128 49 112 146 45 132 168 60 132 168 60 112 146 45 112 146 45 112 146 45 80 105 44 255 255 255 
255 255 255 66 85 45 108 128 49 112 146 45 112 146 45 112 146 45 112 146 45 80 105 44 108 128 49 112 146 45 112 146 45 112 146 45 112 146 45 108 128 49 66 85 45 255 255 255 
255 255 255 255 255 255 66 85 45 80 105 44 108 128 49 108 128 49 80 105 44 66 85 45 66 85 45 80 105 44 108 128 49 108 128 49 80 105 44 66 85 45 255 255 255 255 255 255 
255 255 255 255 255 255 255 255 255 66 85 45 66 85 45 66 85 45 66 85 45 255 255 255 255 255 255 66 85 45 66 85 45 66 85 45 66 85 45 255 255 255 255 255 255 255 255 255 
