P3
16 16
255
215 203 141 219 210 161 219 210 161 219 210 161 219 210 161 219 210 161 219 210 161 219 210 161 219 210 161 219 210 161 219 210 161 219 210 161 219 210 161 219 210 161 219 210 161 215 203 141 
219 210 161 215 193 133 215 193 133 215 203 141 215 203 141 215 203 141 215 203 141 215 193 133 215 193 133 215 193 133 215 203 141 215 203 141 215 203 141 215 193 133 215 193 133 165 148 103 
219 210 161 215 193 133 184 168 117 158 139 97 158 139 97 158 139 97 158 139 97 158 139 97 165 148 103 165 148 103 165 148 103 165 148 103 165 148 103 184 168 117 215 193 133 165 148 103 
219 210 161 215 193 133 158 139 97 246 242 222 246 242 222 246 242 222 238 234 222 246 242 222 246 242 222 238 234 222 246 242 222 246 242 222 246 242 222 227 219 175 215 193 133 165 148 103 
68 46 23 215 193 133 158 139 97 246 242 222 246 242 222 246 242 222 238 234 222 246 242 222 246 242 222 238 234 222 246 242 222 246 242 222 246 242 222 227 219 175 215 193 133 165 148 103 
91 62 31 215 193 133 158 139 97 238 230 213 238 230 213 238 230 213 238 230 213 238 234 222 238 234 222 238 230 213 238 230 213 238 230 213 238 230 213 227 219 175 215 203 141 165 148 103 
219 210 161 215 203 141 158 139 97 246 242 222 255 246 230 238 230 213 255 246 230 255 246 230 255 246 230 255 246 230 238 230 213 255 246 230 246 242 222 219 210 161 215 203 141 165 148 103 
219 210 161 215 203 141 158 139 97 255 246 230 255 246 230 238 230 213 255 246 230 246 242 222 246 242 222 255 246 230 238 230 213 255 246 230 255 246 230 219 210 161 215 203 141 165 148 103 
219 210 161 215 203 141 165 148 103 238 230 213 238 230 213 238 230 213 246 242 222 238 234 222 238 234 222 246 242 222 238 230 213 238 230 213 238 230 213 227 219 175 215 203 141 165 148 103 
219 210 161 215 203 141 165 148 103 255 246 230 255 246 230 238 234 222 246 242 222 238 234 222 238 234 222 246 242 222 238 234 222 255 246 230 255 246 230 227 219 175 215 203 141 165 148 103 
219 210 161 215 203 141 165 148 103 255 246 230 255 250 230 238 234 222 255 246 230 238 234 222 238 234 222 255 246 230 238 234 222 255 250 230 255 246 230 227 219 175 215 203 141 165 148 103 
219 210 161 215 203 141 165 148 103 238 230 213 238 230 213 238 234 222 238 230 213 238 230 213 238 230 213 238 230 213 238 234 222 238 230 213 238 230 213 227 219 175 215 203 141 165 148 103 
219 210 161 215 193 133 165 148 103 246 242 222 246 242 222 238 230 213 255 246 230 246 242 222 246 242 222 255 246 230 238 230 213 246 242 222 246 242 222 227 219 175 215 203 141 165 148 103 
219 210 161 215 193 133 165 148 103 246 242 222 246 242 222 238 230 213 255 246 230 246 242 222 246 242 222 255 246 230 238 230 213 246 242 222 246 242 222 219 210 161 215 193 133 158 139 97 
219 210 161 215 203 141 165 148 103 238 234 222 246 242 222 238 230 213 255 246 230 246 242 222 246 242 222 255 246 230 238 230 213 246 242 222 238 234 222 219 210 161 68 46 23 158 139 97 
68 46 23 215 203 141 165 148 103 238 234 222 246 242 222 238 230 213 255 246 230 246 242 222 246 242 222 255 246 230 238 230 213 246 242 222 238 234 222 219 210 161 91 62 31 158 139 97 
