P3
16 16
255
49 44 54 39 34 28 39 34 28 32 19 28 32 19 28 22 15 16 49 44 54 32 19 28 22 15 16 39 34 28 49 44 54 60 57 71 49 44 54 39 34 28 32 19 28 49 44 54 
39 34 28 49 44 54 49 44 54 39 34 28 49 44 54 49 44 54 32 19 28 32 19 28 49 44 54 49 44 54 49 44 54 60 57 71 60 57 71 49 44 54 22 15 16 32 19 28 
22 15 16 32 19 28 39 34 28 39 34 28 39 34 28 32 19 28 32 19 28 39 34 28 49 44 54 49 44 54 60 57 71 60 57 71 60 57 71 39 34 28 32 19 28 22 15 16 
32 19 28 39 34 28 49 44 54 49 44 54 49 44 54 39 34 28 32 19 28 49 44 54 60 57 71 60 57 71 60 57 71 78 75 84 39 34 28 32 19 28 39 34 28 22 15 16 
39 34 28 49 44 54 49 44 54 60 57 71 60 57 71 60 57 71 39 34 28 32 19 28 49 44 54 78 75 84 78 75 84 39 34 28 32 19 28 32 19 28 39 34 28 22 15 16 
60 57 71 60 57 71 60 57 71 60 57 71 78 75 84 49 44 54 39 34 28 39 34 28 32 19 28 32 19 28 60 57 71 32 19 28 22 15 16 39 34 28 22 15 16 22 15 16 
49 44 54 60 57 71 78 75 84 78 75 84 49 44 54 22 15 16 39 34 28 32 19 28 39 34 28 32 19 28 39 34 28 22 15 16 22 15 16 49 44 54 32 19 28 39 34 28 
49 44 54 49 44 54 39 34 28 32 19 28 22 15 16 22 15 16 39 34 28 49 44 54 49 44 54 39 34 28 39 34 28 49 44 54 60 57 71 32 19 28 32 19 28 39 34 28 
49 44 54 49 44 54 39 34 28 32 19 28 32 19 28 39 34 28 49 44 54 60 57 71 49 44 54 32 19 28 22 15 16 32 19 28 32 19 28 39 34 28 32 19 28 39 34 28 
39 34 28 39 34 28 32 19 28 32 19 28 39 34 28 32 19 28 32 19 28 39 34 28 32 19 28 22 15 16 32 19 28 39 34 28 49 44 54 49 44 54 39 34 28 32 19 28 
32 19 28 49 44 54 49 44 54 49 44 54 32 19 28 22 15 16 22 15 16 32 19 28 39 34 28 60 57 71 60 57 71 60 57 71 60 57 71 60 57 71 49 44 54 22 15 16 
39 34 28 49 44 54 60 57 71 60 57 71 49 44 54 39 34 28 32 19 28 22 15 16 39 34 28 49 44 54 78 75 84 78 75 84 60 57 71 49 44 54 39 34 28 39 34 28 
49 44 54 49 44 54 60 57 71 60 57 71 60 57 71 49 44 54 39 34 28 32 19 28 39 34 28 32 19 28 49 44 54 49 44 54 39 34 28 32 19 28 32 19 28 39 34 28 
60 57 71 60 57 71 60 57 71 78 75 84 49 44 54 22 15 16 22 15 16 39 34 28 39 34 28 32 19 28 32 19 28 49 44 54 32 19 28 32 19 28 32 19 28 49 44 54 
60 57 71 78 75 84 78 75 84 49 44 54 32 19 28 22 15 16 22 15 16 32 19 28 22 15 16 39 34 28 32 19 28 39 34 28 32 19 28 32 19 28 39 34 28 60 57 71 
39 34 28 39 34 28 49 44 54 32 19 28 22 15 16 22 15 16 22 15 16 39 34 28 32 19 28 22 15 16 39 34 28 39 34 28 39 34 28 39 34 28 39 34 28 49 44 54 
