P3
16 16
255
12 14 18 15 16 21 11 12 17 12 13 18 19 20 24 26 26 30 13 14 19 14 15 20 23 24 28 25 25 29 9 10 15 11 13 17 21 21 25 21 21 25 11 13 17 9 11 16 
20 20 25 23 23 27 37 37 41 37 37 41 27 27 31 25 25 29 17 18 22 16 18 22 12 13 18 9 11 16 14 15 20 16 18 22 7 9 14 10 12 16 15 16 21 18 19 23 
27 27 31 28 28 32 16 18 22 18 19 23 33 32 37 28 28 32 21 22 26 16 18 22 25 25 29 28 28 32 24 24 28 24 24 28 34 34 38 37 37 41 25 25 29 23 23 27 
20 20 25 15 16 21 25 26 30 28 28 32 16 18 22 15 16 21 19 20 24 28 28 32 13 14 19 17 18 22 28 28 32 28 28 32 20 20 25 15 16 21 37 37 41 28 28 32 
23 23 27 18 19 23 13 14 19 20 20 25 26 26 30 25 26 30 9 10 15 8 10 15 14 15 20 21 21 25 14 15 20 10 12 17 26 26 30 26 26 30 11 13 17 9 10 15 
10 12 16 8 10 15 13 14 19 28 28 32 13 14 19 8 10 15 12 14 18 15 16 21 13 14 19 8 10 15 15 16 21 16 18 22 9 11 16 14 15 20 12 13 18 16 17 21 
37 37 41 37 37 41 27 27 31 25 26 30 19 20 24 19 20 24 18 19 23 21 21 25 27 27 31 37 37 41 23 24 28 17 18 22 37 37 41 37 37 41 25 25 29 21 22 26 
15 16 21 15 16 21 37 37 41 37 37 41 25 25 29 23 24 28 28 28 32 28 28 32 12 13 18 14 15 20 25 26 30 28 28 32 23 24 28 23 23 27 28 28 32 28 28 32 
25 25 29 24 24 28 10 12 16 14 15 20 28 28 32 23 24 28 13 14 19 15 16 21 14 15 20 16 18 22 14 15 20 9 11 16 19 20 24 17 18 22 11 12 17 10 12 17 
14 15 20 17 18 22 16 17 21 27 27 31 8 10 15 9 10 15 17 18 22 22 23 27 13 14 19 23 23 27 37 37 41 37 37 41 18 19 23 24 24 28 37 37 41 37 37 41 
28 28 32 28 28 32 25 25 29 25 25 29 37 37 41 28 28 32 25 25 29 23 24 28 28 28 32 27 27 31 16 18 22 21 21 25 23 23 27 19 20 24 11 13 17 20 20 25 
11 13 17 13 14 19 22 23 27 22 23 27 15 16 21 15 16 21 26 26 30 24 24 28 12 13 18 13 14 19 14 15 20 23 23 27 8 10 15 8 10 15 16 17 21 23 23 27 
15 16 21 15 16 21 8 10 15 9 10 15 28 28 32 33 32 37 10 12 17 8 10 15 19 20 24 26 26 30 21 21 25 24 24 28 37 37 41 37 37 41 23 23 27 9 11 16 
24 24 28 23 24 28 34 34 38 37 37 41 28 28 32 25 25 29 21 21 25 16 18 22 8 10 15 18 19 23 24 24 28 28 28 32 18 19 23 18 19 23 28 28 32 37 37 41 
33 32 37 30 30 34 20 20 25 17 18 22 28 28 32 21 21 25 23 23 27 25 26 30 37 37 41 27 27 31 14 15 20 14 15 20 21 22 26 24 24 28 15 16 21 12 13 18 
9 11 16 13 14 19 28 28 32 21 22 26 12 13 18 15 16 21 28 28 32 34 34 38 18 19 23 15 16 21 23 24 28 28 28 32 12 13 18 13 14 19 27 27 31 28 28 32 
