P3
16 16
255
37 22 16 36 22 16 36 22 16 36 22 16 37 22 16 37 23 17 39 25 18 38 24 17 36 22 16 39 25 17 38 24 17 37 22 16 36 21 15 36 21 15 36 21 15 37 22 16 
37 22 16 37 22 16 39 24 18 39 25 18 39 23 18 37 23 19 37 23 16 37 22 16 37 23 16 37 23 16 38 25 18 38 24 17 36 22 15 37 22 16 37 22 16 36 22 16 
37 23 17 35 22 16 37 23 16 37 22 16 36 22 15 36 21 15 36 22 15 37 22 16 38 24 17 37 23 17 37 24 17 37 23 17 37 23 17 38 25 17 38 23 16 37 23 15 
38 23 17 38 24 17 37 23 17 37 22 15 36 21 15 36 21 15 36 22 16 39 23 16 37 23 16 37 22 16 37 22 16 37 23 16 37 23 16 37 23 16 37 22 15 37 22 15 
37 23 17 39 24 18 38 24 18 38 24 17 38 23 17 35 21 15 36 21 15 37 21 15 37 22 16 36 22 16 39 25 18 39 25 18 37 23 16 37 22 16 37 23 17 37 22 16 
39 24 18 37 23 17 38 24 17 37 23 17 37 22 15 37 23 16 37 23 16 37 23 16 37 23 16 37 23 16 37 23 17 38 23 17 38 23 17 37 23 17 37 22 16 39 24 18 
38 24 17 38 24 17 37 23 17 37 23 17 37 22 16 36 22 16 37 22 16 39 23 18 37 22 15 36 22 16 37 22 16 38 23 16 38 24 17 38 24 17 38 23 17 37 22 15 
38 24 18 37 22 16 37 22 16 36 22 16 38 24 17 38 24 17 36 22 16 38 24 17 39 24 17 37 23 16 37 22 16 37 23 16 37 23 16 37 23 17 38 24 17 38 24 17 
38 24 18 38 24 17 37 24 17 36 21 15 37 22 16 36 22 15 37 22 16 37 22 16 37 22 16 37 23 17 39 24 17 38 24 17 39 24 17 39 24 18 39 25 19 37 23 16 
38 24 17 37 23 16 37 22 16 36 22 15 36 22 15 36 22 16 37 22 16 36 22 16 37 23 16 37 23 16 37 22 16 37 22 16 37 24 17 37 24 17 39 25 18 38 24 18 
37 22 15 37 23 16 37 23 17 36 22 15 36 21 16 39 25 18 39 25 18 37 22 14 37 23 17 38 23 17 39 25 18 39 24 18 37 23 16 37 23 16 37 22 16 36 22 16 
36 21 16 37 22 16 37 23 16 37 22 16 36 22 16 37 23 16 37 23 17 37 22 17 39 24 17 39 25 18 38 24 17 38 23 17 38 23 17 38 24 17 38 24 17 37 23 16 
37 22 16 37 22 16 37 22 16 37 22 16 37 23 16 37 22 15 36 22 16 37 22 16 39 25 19 40 24 17 37 22 16 36 22 15 37 22 15 37 23 16 37 23 16 37 23 17 
37 23 17 37 24 17 37 24 17 38 24 17 37 23 17 38 25 18 37 22 15 36 22 15 37 22 16 37 22 15 35 22 14 36 22 16 37 22 15 37 23 16 38 25 17 39 24 18 
37 23 16 37 23 17 37 23 17 37 21 14 36 21 15 37 22 16 37 22 15 36 22 16 37 22 16 37 23 17 38 23 17 38 23 17 37 22 16 36 22 15 37 22 15 38 24 17 
37 23 17 37 23 17 37 23 17 37 23 17 37 23 17 38 24 17 39 24 18 37 23 17 37 23 17 37 23 17 37 23 17 37 22 15 37 21 15 36 21 15 37 22 16 37 23 17 
