P3
16 16
255
197 197 197 171 172 171 143 143 143 143 143 143 104 104 104 116 116 116 104 104 104 116 116 116 104 104 104 116 116 116 116 116 116 104 104 104 197 197 197 171 172 171 143 143 143 143 143 143 
171 172 171 63 62 66 73 72 72 104 104 104 79 79 79 73 72 72 63 62 66 63 62 66 73 72 72 73 72 72 73 72 72 63 62 66 171 172 171 63 62 66 73 72 72 104 104 104 
143 143 143 73 72 72 89 88 88 114 121 110 73 72 72 73 72 72 79 79 79 79 79 79 79 79 79 89 88 88 89 88 88 79 79 79 143 143 143 73 72 72 89 88 88 114 121 110 
116 116 116 114 121 110 114 121 110 136 135 136 63 62 66 73 72 72 73 72 72 73 72 72 63 62 66 63 62 66 79 79 79 79 79 79 116 116 116 114 121 110 114 121 110 136 135 136 
104 104 104 63 62 66 63 62 66 79 79 79 89 88 88 103 97 97 89 88 88 89 88 88 89 88 88 79 79 79 73 72 72 73 72 72 63 62 66 63 62 66 63 62 66 104 104 104 
116 116 116 63 62 66 73 72 72 73 72 72 73 72 72 89 88 88 89 88 88 79 79 79 63 62 66 73 72 72 73 72 72 79 79 79 79 79 79 79 79 79 79 79 79 116 116 116 
116 116 116 73 72 72 79 79 79 136 135 136 136 135 136 136 135 136 136 135 136 136 135 136 116 116 116 116 116 116 116 116 116 116 116 116 104 104 104 79 79 79 79 79 79 116 116 116 
104 104 104 79 79 79 79 79 79 136 135 136 197 197 197 197 197 197 197 197 197 197 197 197 197 197 197 171 172 171 171 172 171 171 172 171 104 104 104 73 72 72 73 72 72 104 104 104 
104 104 104 63 62 66 63 62 66 116 116 116 156 156 156 171 172 171 17 17 17 171 172 171 17 17 17 171 172 171 17 17 17 156 156 156 104 104 104 63 62 66 63 62 66 104 104 104 
143 143 143 181 181 181 197 197 197 156 156 156 104 104 104 171 172 171 17 17 17 171 172 171 17 17 17 171 172 171 17 17 17 156 156 156 89 88 88 181 181 181 181 181 181 143 143 143 
104 104 104 143 143 143 104 104 104 156 156 156 104 104 104 171 172 171 17 17 17 156 156 156 17 17 17 156 156 156 17 17 17 156 156 156 89 88 88 156 156 156 156 156 156 104 104 104 
104 104 104 143 143 143 116 116 116 89 88 88 114 121 110 156 156 156 197 197 197 156 156 156 197 197 197 156 156 156 197 197 197 114 121 110 89 88 88 136 135 136 156 156 156 104 104 104 
104 104 104 143 143 143 136 135 136 73 72 72 114 121 110 114 121 110 114 121 110 114 121 110 114 121 110 114 121 110 114 121 110 114 121 110 73 72 72 143 143 143 136 135 136 104 104 104 
89 88 88 136 135 136 136 135 136 73 72 72 73 72 72 73 72 72 73 72 72 89 88 88 89 88 88 89 88 88 89 88 88 89 88 88 89 88 88 136 135 136 127 127 127 89 88 88 
89 88 88 127 127 127 136 135 136 127 127 127 116 116 116 116 116 116 116 116 116 116 116 116 116 116 116 116 116 116 116 116 116 116 116 116 127 127 127 127 127 127 127 127 127 89 88 88 
89 88 88 89 88 88 89 88 88 89 88 88 89 88 88 89 88 88 89 88 88 89 88 88 89 88 88 89 88 88 89 88 88 89 88 88 89 88 88 89 88 88 89 88 88 89 88 88 
