P3
16 16
255
255 255 255 255 255 255 255 255 255 255 255 255 255 255 255 255 255 255 255 255 255 255 255 255 255 255 255 255 255 255 255 255 255 255 255 255 255 255 255 255 255 255 255 255 255 255 255 255 
255 255 255 255 255 255 255 255 255 255 255 255 255 255 255 255 255 255 255 255 255 255 255 255 255 255 255 255 255 255 255 255 255 255 255 255 255 255 255 255 255 255 255 255 255 255 255 255 
255 255 255 255 255 255 255 255 255 255 255 255 255 255 255 255 255 255 255 255 255 255 255 255 255 255 255 255 255 255 255 255 255 255 255 255 255 255 255 255 255 255 255 255 255 255 255 255 
255 255 255 255 255 255 255 255 255 255 255 255 255 255 255 255 255 255 255 255 255 255 255 255 255 255 255 255 255 255 255 255 255 255 255 255 255 255 255 255 255 255 255 255 255 255 255 255 
255 255 255 255 255 255 255 255 255 255 255 255 255 255 255 255 255 255 47 206 253 42 191 253 255 255 255 255 255 255 255 255 255 255 255 255 255 255 255 255 255 255 255 255 255 255 255 255 
255 255 255 255 255 255 255 255 255 255 255 255 255 255 255 39 169 244 42 191 253 39 169 244 28 146 214 255 255 255 255 255 255 255 255 255 255 255 255 39 169 244 255 255 255 255 255 255 
255 255 255 255 255 255 255 255 255 255 255 255 255 255 255 39 169 244 28 146 214 74 143 40 39 169 244 255 255 255 255 255 255 255 255 255 39 169 244 42 191 253 42 191 253 255 255 255 
255 255 255 255 255 255 255 255 255 255 255 255 255 255 255 255 255 255 28 146 214 85 171 45 255 255 255 255 255 255 255 255 255 255 255 255 74 143 40 28 146 214 255 255 255 255 255 255 
255 255 255 255 255 255 255 255 255 255 255 255 255 255 255 255 255 255 255 255 255 255 255 255 74 143 40 255 255 255 255 255 255 85 171 45 255 255 255 255 255 255 255 255 255 255 255 255 
255 255 255 255 255 255 255 255 255 39 169 244 28 146 214 255 255 255 255 255 255 255 255 255 28 146 214 255 255 255 85 171 45 255 255 255 255 255 255 255 255 255 255 255 255 255 255 255 
255 255 255 255 255 255 39 169 244 42 191 253 39 169 244 74 143 40 255 255 255 28 146 214 39 169 244 42 191 253 39 169 244 255 255 255 255 255 255 255 255 255 255 255 255 255 255 255 
255 255 255 255 255 255 255 255 255 28 146 214 255 255 255 255 255 255 85 171 45 255 255 255 42 191 253 47 206 253 255 255 255 255 255 255 255 255 255 255 255 255 255 255 255 255 255 255 
255 255 255 255 255 255 255 255 255 255 255 255 255 255 255 255 255 255 74 143 40 85 171 45 28 146 214 255 255 255 255 255 255 255 255 255 255 255 255 255 255 255 255 255 255 255 255 255 
255 255 255 255 255 255 255 255 255 255 255 255 255 255 255 255 255 255 255 255 255 23 124 4 74 143 40 255 255 255 255 255 255 255 255 255 255 255 255 255 255 255 255 255 255 255 255 255 
255 255 255 255 255 255 255 255 255 255 255 255 255 255 255 255 255 255 255 255 255 255 255 255 74 143 40 23 124 4 255 255 255 255 255 255 255 255 255 255 255 255 255 255 255 255 255 255 
255 255 255 255 255 255 255 255 255 255 255 255 255 255 255 255 255 255 255 255 255 255 255 255 23 124 4 255 255 255 255 255 255 255 255 255 255 255 255 255 255 255 255 255 255 255 255 255 
