P3
16 16
255
36 37 123 47 49 149 47 49 149 36 37 123 36 37 123 47 49 148 47 49 148 37 39 127 34 36 120 47 49 148 47 49 148 37 39 127 36 37 123 47 49 148 47 49 148 33 34 116 
47 49 148 31 33 112 32 33 114 41 43 137 41 43 137 32 33 114 31 33 112 41 43 137 41 43 137 32 33 114 31 33 112 41 43 137 41 43 137 32 33 114 32 33 114 36 37 123 
47 49 149 32 33 114 41 43 137 50 53 154 50 53 154 41 43 137 41 43 137 50 53 154 50 53 154 41 43 137 40 41 133 51 53 155 51 53 155 41 42 135 32 33 114 34 36 120 
36 37 123 41 43 137 50 53 154 51 53 155 49 51 152 49 51 152 51 53 155 51 53 155 51 53 155 50 53 154 49 51 152 51 53 155 51 53 155 51 53 155 41 43 137 30 31 109 
34 36 120 41 43 137 51 53 155 51 53 155 51 53 155 51 53 155 51 53 155 51 53 155 51 53 155 51 53 155 52 54 156 50 53 154 50 53 154 50 53 154 41 43 137 30 31 109 
47 49 148 32 33 114 41 43 137 50 53 154 50 53 154 51 53 155 51 53 155 51 53 155 50 53 154 50 53 154 51 53 155 51 53 155 51 53 155 41 43 137 32 33 114 36 37 123 
47 49 149 32 33 114 41 43 137 51 53 155 52 54 156 51 53 155 48 50 150 51 53 155 51 53 155 49 51 152 51 53 155 50 53 154 50 53 154 41 43 137 32 33 114 35 37 122 
36 37 123 41 43 137 49 51 152 50 53 154 50 53 154 49 51 152 50 53 154 50 53 154 49 51 152 50 53 154 50 53 154 51 53 155 50 53 154 51 53 155 41 43 137 30 31 107 
36 37 123 41 43 137 48 50 150 51 53 155 51 53 155 51 53 155 51 53 155 49 51 152 50 53 154 51 53 155 51 53 155 50 53 154 50 53 154 50 53 154 41 43 137 30 31 109 
47 49 148 32 33 114 41 43 137 51 53 155 51 53 155 50 53 154 51 53 155 50 53 154 50 53 154 51 53 155 51 53 155 50 53 154 51 53 155 41 42 135 32 33 114 36 37 123 
46 48 146 31 33 112 41 42 135 51 53 155 51 53 155 51 53 155 51 53 155 51 53 155 51 53 155 51 53 155 51 53 155 50 53 154 50 53 154 41 43 137 32 33 114 34 36 120 
36 37 123 41 43 137 51 53 155 51 53 155 50 53 154 48 50 150 50 53 154 51 53 155 51 53 155 51 53 155 51 53 155 51 53 155 50 53 154 51 53 155 41 43 137 30 31 109 
36 37 123 41 43 137 52 54 156 50 53 154 51 53 155 52 54 156 51 53 155 51 53 155 50 53 154 50 53 154 51 53 155 51 53 155 51 53 155 51 53 155 41 43 137 30 31 109 
47 49 149 32 33 114 40 41 133 51 53 155 49 51 152 41 43 137 41 43 137 51 53 155 49 51 152 41 43 137 41 43 137 49 51 152 51 53 155 41 43 137 31 33 112 36 37 123 
47 49 148 31 32 111 31 33 112 41 43 137 41 42 135 32 33 114 31 32 111 41 43 137 41 43 137 32 33 114 32 33 114 41 43 137 41 43 137 32 33 114 32 33 114 36 37 123 
32 33 114 36 37 123 34 36 120 30 31 109 30 31 109 35 37 122 36 37 123 30 31 109 30 31 109 34 36 120 36 37 123 30 31 107 30 31 109 35 37 122 35 37 122 30 31 109 
