P3
16 16
255
255 255 255 255 255 255 255 255 255 255 255 255 255 255 255 255 255 255 255 255 255 255 255 255 255 255 255 255 255 255 255 255 255 255 255 255 255 255 255 255 255 255 255 255 255 255 255 255 
255 255 255 255 255 255 255 255 255 255 255 255 255 255 255 255 255 255 255 255 255 255 255 255 255 255 255 255 255 255 255 255 255 255 255 255 255 255 255 255 255 255 255 255 255 255 255 255 
255 255 255 255 255 255 255 255 255 255 255 255 255 255 255 255 255 255 255 255 255 255 255 255 255 255 255 255 255 255 255 255 255 255 255 255 255 255 255 255 255 255 255 255 255 255 255 255 
255 255 255 255 255 255 255 255 255 255 255 255 255 255 255 255 255 255 255 255 255 255 255 255 255 255 255 255 255 255 255 255 255 255 255 255 255 255 255 255 255 255 255 255 255 255 255 255 
255 255 255 255 255 255 255 255 255 255 255 255 255 255 255 255 255 255 255 255 255 255 255 255 255 255 255 255 255 255 255 255 255 255 255 255 255 255 255 255 255 255 255 255 255 255 255 255 
255 255 255 255 255 255 255 255 255 255 255 255 255 255 255 255 255 255 157 47 119 255 255 255 255 255 255 255 255 255 255 255 255 255 255 255 255 255 255 255 255 255 255 255 255 255 255 255 
255 255 255 255 255 255 255 255 255 255 255 255 191 70 146 255 255 255 191 70 146 214 84 155 255 255 255 255 255 255 157 47 119 255 255 255 214 84 155 255 255 255 255 255 255 255 255 255 
255 255 255 214 84 155 255 255 255 255 255 255 255 255 255 214 84 155 228 126 185 191 70 146 255 255 255 255 255 255 191 70 146 214 84 155 255 255 255 255 255 255 214 84 155 255 255 255 
255 255 255 255 255 255 217 98 163 191 70 146 255 255 255 217 98 163 191 70 146 255 255 255 255 255 255 214 84 155 217 98 163 228 126 185 191 70 146 255 255 255 191 70 146 214 84 155 
255 255 255 191 70 146 228 126 185 217 98 163 191 70 146 228 126 185 255 255 255 191 70 146 255 255 255 255 255 255 255 255 255 217 98 163 228 126 185 217 98 163 214 84 155 191 70 146 
255 255 255 157 47 119 191 70 146 255 255 255 217 98 163 228 126 185 217 98 163 157 47 119 255 255 255 214 84 155 255 255 255 228 126 185 228 126 185 214 84 155 255 255 255 255 255 255 
255 255 255 255 255 255 255 255 255 228 126 185 214 84 155 228 126 185 228 126 185 255 255 255 255 255 255 255 255 255 214 84 155 228 126 185 217 98 163 214 84 155 191 70 146 255 255 255 
255 255 255 217 98 163 255 255 255 217 98 163 255 255 255 217 98 163 228 126 185 214 84 155 255 255 255 214 84 155 228 126 185 214 84 155 191 70 146 255 255 255 214 84 155 191 70 146 
157 47 119 228 126 185 217 98 163 255 255 255 255 255 255 214 84 155 217 98 163 191 70 146 255 255 255 214 84 155 191 70 146 255 255 255 255 255 255 255 255 255 255 255 255 255 255 255 
255 255 255 191 70 146 228 126 185 191 70 146 255 255 255 157 47 119 191 70 146 214 84 155 191 70 146 157 47 119 214 84 155 191 70 146 255 255 255 214 84 155 191 70 146 255 255 255 
255 255 255 255 255 255 191 70 146 157 47 119 157 47 119 255 255 255 157 47 119 191 70 146 214 84 155 191 70 146 157 47 119 157 47 119 191 70 146 191 70 146 255 255 255 255 255 255 
