P3
16 16
255
177 98 77 177 98 77 155 86 67 139 110 103 198 104 81 198 104 81 198 104 81 177 98 77 177 98 77 177 98 77 155 86 67 162 134 125 198 104 81 177 98 77 177 98 77 177 98 77 
155 86 67 155 86 67 143 80 63 162 134 125 124 69 54 143 80 63 155 86 67 155 86 67 155 86 67 155 86 67 143 80 63 162 134 125 124 69 54 155 86 67 155 86 67 155 86 67 
124 69 54 115 63 49 115 63 49 169 148 141 115 63 49 115 63 49 143 80 63 143 80 63 124 69 54 115 63 49 115 63 49 162 134 125 115 63 49 143 80 63 124 69 54 124 69 54 
139 110 103 139 110 103 162 134 125 169 148 141 162 134 125 139 110 103 139 110 103 139 110 103 139 110 103 162 134 125 162 134 125 169 148 141 162 134 125 139 110 103 139 110 103 139 110 103 
198 104 81 198 104 81 177 98 77 177 98 77 155 86 67 177 98 77 155 86 67 162 134 125 198 104 81 177 98 77 177 98 77 177 98 77 155 86 67 177 98 77 155 86 67 139 110 103 
124 69 54 155 86 67 155 86 67 155 86 67 155 86 67 143 80 63 124 69 54 162 134 125 124 69 54 143 80 63 143 80 63 143 80 63 143 80 63 143 80 63 124 69 54 162 134 125 
124 69 54 143 80 63 155 86 67 124 69 54 124 69 54 124 69 54 115 63 49 169 148 141 115 63 49 115 63 49 124 69 54 143 80 63 143 80 63 124 69 54 115 63 49 162 134 125 
162 134 125 139 110 103 139 110 103 139 110 103 139 110 103 162 134 125 162 134 125 169 148 141 162 134 125 162 134 125 139 110 103 139 110 103 139 110 103 139 110 103 162 134 125 169 148 141 
177 98 77 177 98 77 155 86 67 162 134 125 198 104 81 198 104 81 198 104 81 177 98 77 155 86 67 177 98 77 155 86 67 162 134 125 198 104 81 198 104 81 177 98 77 177 98 77 
155 86 67 155 86 67 143 80 63 162 134 125 143 80 63 155 86 67 155 86 67 155 86 67 155 86 67 155 86 67 124 69 54 162 134 125 143 80 63 155 86 67 155 86 67 155 86 67 
124 69 54 124 69 54 115 63 49 162 134 125 124 69 54 124 69 54 143 80 63 143 80 63 124 69 54 124 69 54 115 63 49 169 148 141 124 69 54 143 80 63 143 80 63 143 80 63 
139 110 103 162 134 125 162 134 125 169 148 141 162 134 125 139 110 103 139 110 103 139 110 103 139 110 103 139 110 103 162 134 125 169 148 141 162 134 125 139 110 103 139 110 103 139 110 103 
155 86 67 177 98 77 177 98 77 177 98 77 155 86 67 177 98 77 155 86 67 139 110 103 198 104 81 177 98 77 177 98 77 177 98 77 155 86 67 177 98 77 155 86 67 162 134 125 
124 69 54 155 86 67 155 86 67 155 86 67 155 86 67 155 86 67 143 80 63 162 134 125 143 80 63 155 86 67 155 86 67 155 86 67 155 86 67 155 86 67 124 69 54 162 134 125 
115 63 49 124 69 54 124 69 54 124 69 54 124 69 54 124 69 54 115 63 49 169 148 141 115 63 49 124 69 54 124 69 54 124 69 54 124 69 54 124 69 54 115 63 49 169 148 141 
162 134 125 139 110 103 139 110 103 139 110 103 139 110 103 139 110 103 162 134 125 169 148 141 162 134 125 162 134 125 139 110 103 139 110 103 139 110 103 162 134 125 169 148 141 169 148 141 
