P3
16 16
255
98 61 32 110 68 38 110 68 38 98 61 32 98 61 32 109 68 37 109 68 37 100 61 33 97 60 31 109 68 37 109 68 37 100 61 33 98 61 32 109 68 37 109 68 37 95 59 31 
109 68 37 91 56 29 93 57 30 103 64 34 103 64 34 94 58 30 91 56 29 103 64 34 103 64 34 93 57 30 91 56 29 103 64 34 103 64 34 94 58 30 93 57 30 98 61 32 
110 68 38 94 58 30 103 64 34 114 71 40 114 71 40 103 64 34 103 64 34 114 71 40 114 71 40 103 64 34 101 63 34 115 72 40 115 72 40 102 63 34 94 58 30 97 60 31 
98 61 32 103 64 34 114 71 40 115 72 40 112 70 39 112 70 39 115 72 40 115 72 40 115 72 40 114 71 40 112 70 39 115 72 40 115 72 40 115 72 40 103 64 34 88 53 27 
97 60 31 103 64 34 115 72 40 115 72 40 115 72 40 115 72 40 115 72 40 115 72 40 115 72 40 115 72 40 116 72 41 114 71 40 114 71 40 114 71 40 103 64 34 88 53 27 
109 68 37 94 58 30 103 64 34 114 71 40 114 71 40 115 72 40 115 72 40 115 72 40 114 71 40 114 71 40 115 72 40 115 72 40 115 72 40 103 64 34 94 58 30 98 61 32 
110 68 38 93 57 30 103 64 34 115 72 40 116 72 41 115 72 40 111 69 38 115 72 40 115 72 40 112 70 39 115 72 40 114 71 40 114 71 40 103 64 34 93 57 30 98 60 32 
98 61 32 103 64 34 112 70 39 114 71 40 114 71 40 112 70 39 114 71 40 114 71 40 112 70 39 114 71 40 114 71 40 115 72 40 114 71 40 115 72 40 103 64 34 86 52 27 
98 61 32 103 64 34 111 69 38 115 72 40 115 72 40 115 72 40 115 72 40 112 70 39 114 71 40 115 72 40 115 72 40 114 71 40 114 71 40 114 71 40 103 64 34 88 53 27 
109 68 37 93 57 30 103 64 34 115 72 40 115 72 40 114 71 40 115 72 40 114 71 40 114 71 40 115 72 40 115 72 40 114 71 40 115 72 40 102 63 34 93 57 30 98 61 32 
108 67 37 91 56 29 102 63 34 115 72 40 115 72 40 115 72 40 115 72 40 115 72 40 115 72 40 115 72 40 115 72 40 114 71 40 114 71 40 103 64 34 93 57 30 97 60 31 
98 61 32 103 64 34 115 72 40 115 72 40 114 71 40 111 69 38 114 71 40 115 72 40 115 72 40 115 72 40 115 72 40 115 72 40 114 71 40 115 72 40 103 64 34 88 53 27 
98 61 32 103 64 34 116 72 41 114 71 40 115 72 40 116 72 41 115 72 40 115 72 40 114 71 40 114 71 40 115 72 40 115 72 40 115 72 40 115 72 40 103 64 34 88 53 27 
110 68 38 93 57 30 101 63 34 115 72 40 112 70 39 103 64 34 103 64 34 115 72 40 112 70 39 103 64 34 103 64 34 112 70 39 115 72 40 103 64 34 91 56 29 98 61 32 
109 68 37 91 55 29 91 56 29 103 64 34 102 63 34 93 57 30 91 55 29 103 64 34 103 64 34 94 58 30 94 58 30 103 64 34 103 64 34 94 58 30 93 57 30 98 61 32 
94 58 30 98 61 32 97 60 31 88 53 27 88 53 27 98 60 32 98 61 32 88 53 27 88 53 27 97 60 31 98 61 32 86 52 27 88 53 27 98 60 32 98 60 32 88 53 27 
