P3
16 16
255
255 255 255 255 255 255 255 255 255 255 255 255 255 255 255 255 255 255 255 255 255 255 255 255 255 255 255 255 255 255 255 255 255 255 255 255 255 255 255 255 255 255 255 255 255 255 255 255 
255 255 255 9 66 16 13 97 24 13 97 24 13 97 24 13 97 24 9 66 16 9 66 16 9 66 16 13 97 24 13 97 24 13 97 24 13 97 24 9 66 16 9 66 16 255 255 255 
255 255 255 13 97 24 202 204 112 202 204 112 202 204 112 202 204 112 209 211 122 209 211 122 202 204 112 202 204 112 202 204 112 202 204 112 209 211 122 209 211 122 9 66 16 255 255 255 
255 255 255 13 97 24 209 211 122 202 204 112 141 176 75 141 176 75 160 191 100 160 191 100 160 191 100 160 191 100 141 176 75 141 176 75 202 204 112 202 204 112 13 97 24 255 255 255 
255 255 255 13 97 24 209 211 122 160 191 100 202 204 112 202 204 112 209 211 122 209 211 122 209 211 122 209 211 122 202 204 112 202 204 112 141 176 75 202 204 112 13 97 24 255 255 255 
255 255 255 9 66 16 202 204 112 141 176 75 202 204 112 202 204 112 209 211 122 209 211 122 209 211 122 209 211 122 202 204 112 202 204 112 141 176 75 209 211 122 13 97 24 255 255 255 
255 255 255 13 97 24 202 204 112 141 176 75 202 204 112 202 204 112 202 204 112 160 191 100 141 176 75 202 204 112 202 204 112 202 204 112 160 191 100 209 211 122 9 66 16 255 255 255 
255 255 255 13 97 24 202 204 112 160 191 100 202 204 112 209 211 122 160 191 100 209 211 122 209 211 122 141 176 75 209 211 122 202 204 112 160 191 100 209 211 122 9 66 16 255 255 255 
255 255 255 9 66 16 209 211 122 160 191 100 209 211 122 209 211 122 160 191 100 209 211 122 209 211 122 160 191 100 209 211 122 209 211 122 160 191 100 202 204 112 9 66 16 255 255 255 
255 255 255 9 66 16 209 211 122 160 191 100 209 211 122 209 211 122 202 204 112 141 176 75 160 191 100 202 204 112 209 211 122 209 211 122 160 191 100 202 204 112 13 97 24 255 255 255 
255 255 255 13 97 24 209 211 122 160 191 100 202 204 112 209 211 122 209 211 122 209 211 122 209 211 122 202 204 112 202 204 112 202 204 112 160 191 100 202 204 112 13 97 24 255 255 255 
255 255 255 13 97 24 202 204 112 141 176 75 202 204 112 202 204 112 209 211 122 202 204 112 202 204 112 202 204 112 202 204 112 202 204 112 160 191 100 202 204 112 13 97 24 255 255 255 
255 255 255 13 97 24 202 204 112 202 204 112 160 191 100 141 176 75 160 191 100 160 191 100 160 191 100 160 191 100 141 176 75 141 176 75 209 211 122 202 204 112 13 97 24 255 255 255 
255 255 255 9 66 16 202 204 112 202 204 112 202 204 112 202 204 112 209 211 122 209 211 122 209 211 122 209 211 122 209 211 122 209 211 122 209 211 122 209 211 122 9 66 16 255 255 255 
255 255 255 9 66 16 9 66 16 13 97 24 13 97 24 13 97 24 9 66 16 13 97 24 13 97 24 13 97 24 13 97 24 13 97 24 13 97 24 9 66 16 9 66 16 255 255 255 
255 255 255 255 255 255 255 255 255 255 255 255 255 255 255 255 255 255 255 255 255 255 255 255 255 255 255 255 255 255 255 255 255 255 255 255 255 255 255 255 255 255 255 255 255 255 255 255 
