P3
16 16
255
255 255 255 255 255 255 255 255 255 255 255 255 255 255 255 255 255 255 255 255 255 255 255 255 255 255 255 255 255 255 255 255 255 255 255 255 255 255 255 255 255 255 255 255 255 255 255 255 
255 255 255 127 58 29 127 58 29 141 67 36 141 67 36 167 75 36 141 67 36 141 67 36 127 58 29 141 67 36 141 67 36 141 67 36 141 67 36 127 58 29 127 58 29 255 255 255 
255 255 255 127 58 29 141 67 36 141 67 36 141 67 36 141 67 36 141 67 36 141 67 36 141 67 36 141 67 36 141 67 36 141 67 36 167 75 36 141 67 36 127 58 29 255 255 255 
255 255 255 141 67 36 141 67 36 141 67 36 127 58 29 127 58 29 107 52 32 127 58 29 141 67 36 141 67 36 141 67 36 127 58 29 141 67 36 127 58 29 141 67 36 255 255 255 
255 255 255 141 67 36 167 75 36 127 58 29 141 67 36 127 58 29 127 58 29 127 58 29 127 58 29 107 52 32 127 58 29 127 58 29 127 58 29 141 67 36 141 67 36 255 255 255 
255 255 255 141 67 36 141 67 36 127 58 29 127 58 29 107 52 32 127 58 29 127 58 29 127 58 29 127 58 29 127 58 29 127 58 29 107 52 32 141 67 36 141 67 36 255 255 255 
255 255 255 141 67 36 127 58 29 127 58 29 127 58 29 127 58 29 127 58 29 141 67 36 127 58 29 127 58 29 141 67 36 127 58 29 127 58 29 141 67 36 167 75 36 255 255 255 
255 255 255 141 67 36 141 67 36 127 58 29 107 52 32 127 58 29 127 58 29 127 58 29 127 58 29 127 58 29 127 58 29 107 52 32 127 58 29 141 67 36 141 67 36 255 255 255 
255 255 255 141 67 36 167 75 36 127 58 29 127 58 29 127 58 29 127 58 29 107 52 32 127 58 29 127 58 29 127 58 29 127 58 29 141 67 36 141 67 36 141 67 36 255 255 255 
255 255 255 141 67 36 141 67 36 141 67 36 127 58 29 127 58 29 127 58 29 127 58 29 127 58 29 127 58 29 141 67 36 127 58 29 141 67 36 141 67 36 127 58 29 255 255 255 
255 255 255 127 58 29 141 67 36 141 67 36 141 67 36 107 52 32 127 58 29 127 58 29 127 58 29 127 58 29 127 58 29 107 52 32 127 58 29 141 67 36 141 67 36 255 255 255 
255 255 255 141 67 36 141 67 36 127 58 29 127 58 29 127 58 29 127 58 29 141 67 36 127 58 29 107 52 32 127 58 29 127 58 29 127 58 29 141 67 36 167 75 36 255 255 255 
255 255 255 141 67 36 141 67 36 141 67 36 127 58 29 127 58 29 127 58 29 127 58 29 127 58 29 141 67 36 141 67 36 127 58 29 141 67 36 141 67 36 141 67 36 255 255 255 
255 255 255 127 58 29 141 67 36 127 58 29 141 67 36 141 67 36 167 75 36 141 67 36 141 67 36 141 67 36 141 67 36 141 67 36 141 67 36 141 67 36 127 58 29 255 255 255 
255 255 255 127 58 29 127 58 29 141 67 36 141 67 36 141 67 36 141 67 36 141 67 36 127 58 29 141 67 36 167 75 36 141 67 36 141 67 36 127 58 29 127 58 29 255 255 255 
255 255 255 255 255 255 255 255 255 255 255 255 255 255 255 255 255 255 255 255 255 255 255 255 255 255 255 255 255 255 255 255 255 255 255 255 255 255 255 255 255 255 255 255 255 255 255 255 
