P3
16 16
255
255 255 255 255 255 255 255 255 255 255 255 255 255 255 255 255 255 255 255 255 255 255 255 255 255 255 255 255 255 255 255 255 255 255 255 255 255 255 255 255 255 255 255 255 255 255 255 255 
255 255 255 255 255 255 255 255 255 255 255 255 255 255 255 255 255 255 255 255 255 255 255 255 255 255 255 255 255 255 255 255 255 255 255 255 255 255 255 255 255 255 255 255 255 255 255 255 
255 255 255 255 255 255 255 255 255 255 255 255 255 255 255 255 255 255 255 255 255 255 255 255 255 255 255 255 255 255 255 255 255 255 255 255 255 255 255 255 255 255 255 255 255 255 255 255 
255 255 255 255 255 255 255 255 255 255 255 255 255 255 255 255 255 255 255 255 255 255 255 255 255 255 255 255 255 255 255 255 255 255 255 255 255 255 255 255 255 255 255 255 255 255 255 255 
255 255 255 255 255 255 255 255 255 255 255 255 255 255 255 255 255 255 255 255 255 255 255 255 255 255 255 255 255 255 255 255 255 255 255 255 255 255 255 255 255 255 255 255 255 255 255 255 
255 255 255 255 255 255 255 255 255 255 255 255 255 255 255 255 255 255 255 255 255 255 255 255 255 255 255 255 255 255 255 255 255 255 255 255 255 255 255 255 255 255 255 255 255 255 255 255 
255 255 255 255 255 255 255 255 255 255 255 255 255 255 255 255 255 255 255 255 255 255 255 255 255 255 255 255 255 255 255 255 255 255 255 255 255 255 255 255 255 255 255 255 255 255 255 255 
255 255 255 255 255 255 255 255 255 255 255 255 255 255 255 255 255 255 255 255 255 255 255 255 255 255 255 255 255 255 255 255 255 255 255 255 255 255 255 255 255 255 255 255 255 255 255 255 
255 255 255 224 211 184 253 244 216 255 253 254 255 253 254 246 232 203 253 244 216 253 244 216 224 211 184 253 244 216 246 232 203 246 232 203 253 244 216 253 244 216 224 211 184 255 255 255 
255 255 255 253 244 216 127 58 29 246 232 203 246 232 203 127 58 29 90 44 26 90 44 26 90 44 26 90 44 26 127 58 29 253 244 216 127 58 29 127 58 29 253 244 216 255 255 255 
255 255 255 151 73 26 127 58 29 107 52 32 253 244 216 99 50 32 107 52 32 107 52 32 99 50 32 107 52 32 99 50 32 107 52 32 107 52 32 127 58 29 151 73 26 255 255 255 
255 255 255 151 73 26 107 52 32 99 50 32 107 52 32 107 52 32 107 52 32 107 52 32 107 52 32 127 58 29 127 58 29 107 52 32 99 50 32 107 52 32 151 73 26 255 255 255 
255 255 255 151 73 26 90 44 26 89 37 16 89 37 16 90 44 26 90 44 26 90 44 26 89 37 16 89 37 16 90 44 26 90 44 26 90 44 26 90 44 26 151 73 26 255 255 255 
255 255 255 151 73 26 127 58 29 107 52 32 107 52 32 107 52 32 99 50 32 127 58 29 107 52 32 90 44 26 90 44 26 99 50 32 107 52 32 127 58 29 151 73 26 255 255 255 
255 255 255 151 73 26 107 52 32 107 52 32 99 50 32 107 52 32 107 52 32 107 52 32 99 50 32 107 52 32 107 52 32 107 52 32 99 50 32 107 52 32 151 73 26 255 255 255 
255 255 255 151 73 26 89 37 16 89 37 16 90 44 26 90 44 26 89 37 16 89 37 16 90 44 26 90 44 26 90 44 26 89 37 16 89 37 16 89 37 16 151 73 26 255 255 255 
