P3
16 16
255
255 255 255 255 255 255 255 255 255 255 255 255 255 255 255 255 255 255 255 255 255 255 255 255 255 255 255 255 255 255 255 255 255 255 255 255 255 255 255 255 255 255 255 255 255 255 255 255 
255 255 255 255 255 255 255 255 255 255 255 255 255 255 255 255 255 255 255 255 255 255 255 255 255 255 255 255 255 255 255 255 255 255 255 255 255 255 255 255 255 255 255 255 255 255 255 255 
255 255 255 255 255 255 255 255 255 255 255 255 255 255 255 255 255 255 255 255 255 255 255 255 255 255 255 255 255 255 255 255 255 255 255 255 255 255 255 255 255 255 255 255 255 255 255 255 
255 255 255 255 255 255 255 255 255 255 255 255 255 255 255 255 255 255 255 255 255 255 255 255 255 255 255 255 255 255 255 255 255 255 255 255 255 255 255 255 255 255 255 255 255 255 255 255 
255 255 255 255 255 255 255 255 255 255 255 255 255 255 255 255 255 255 255 255 255 255 255 255 255 255 255 255 255 255 255 255 255 255 255 255 255 255 255 255 255 255 255 255 255 255 255 255 
255 255 255 255 255 255 255 255 255 255 255 255 255 255 255 255 255 255 255 255 255 255 255 255 255 255 255 255 255 255 255 255 255 255 255 255 255 255 255 255 255 255 255 255 255 255 255 255 
255 255 255 255 255 255 255 255 255 255 255 255 255 255 255 43 112 42 255 255 255 255 255 255 255 255 255 255 255 255 255 255 255 255 255 255 255 255 255 255 255 255 255 255 255 255 255 255 
255 255 255 74 143 40 43 112 42 255 255 255 255 255 255 255 255 255 74 143 40 255 255 255 255 255 255 255 255 255 43 112 42 38 99 37 255 255 255 255 255 255 255 255 255 255 255 255 
255 255 255 255 255 255 74 143 40 255 255 255 255 255 255 255 255 255 85 171 45 255 255 255 255 255 255 43 112 42 74 143 40 255 255 255 255 255 255 255 255 255 255 255 255 38 99 37 
255 255 255 255 255 255 43 112 42 255 255 255 43 112 42 38 99 37 255 255 255 74 143 40 255 255 255 85 171 45 255 255 255 255 255 255 255 255 255 255 255 255 43 112 42 255 255 255 
255 255 255 255 255 255 38 99 37 38 99 37 255 255 255 38 99 37 43 112 42 38 99 37 38 99 37 74 143 40 255 255 255 38 99 37 255 255 255 43 112 42 255 255 255 255 255 255 
38 99 37 43 112 42 74 143 40 38 99 37 43 112 42 74 143 40 85 171 45 43 112 42 38 99 37 38 99 37 85 171 45 74 143 40 43 112 42 38 99 37 74 143 40 74 143 40 
255 255 255 38 99 37 43 112 42 74 143 40 255 255 255 43 112 42 74 143 40 74 143 40 38 99 37 43 112 42 74 143 40 43 112 42 38 99 37 74 143 40 43 112 42 255 255 255 
255 255 255 255 255 255 38 99 37 74 143 40 43 112 42 38 99 37 38 99 37 43 112 42 43 112 42 74 143 40 38 99 37 38 99 37 43 112 42 74 143 40 255 255 255 255 255 255 
255 255 255 255 255 255 255 255 255 38 99 37 38 99 37 255 255 255 38 99 37 43 112 42 38 99 37 38 99 37 38 99 37 255 255 255 43 112 42 38 99 37 255 255 255 255 255 255 
255 255 255 255 255 255 255 255 255 126 61 14 126 61 14 255 255 255 255 255 255 126 61 14 126 61 14 255 255 255 255 255 255 126 61 14 126 61 14 255 255 255 255 255 255 255 255 255 
