P3
16 16
255
255 255 255 255 255 255 255 255 255 255 255 255 80 114 51 72 97 36 80 114 51 80 114 51 79 50 20 112 146 45 112 146 45 255 255 255 66 85 45 72 97 36 255 255 255 255 255 255 
255 255 255 255 255 255 255 255 255 91 64 18 80 114 51 80 114 51 80 114 51 79 50 20 80 114 51 72 97 36 112 146 45 112 146 45 72 97 36 64 84 30 72 97 36 255 255 255 
255 255 255 255 255 255 112 146 45 66 85 45 79 50 20 66 85 45 72 97 36 91 64 18 80 114 51 80 114 51 72 97 36 112 146 45 112 146 45 72 97 36 72 97 36 255 255 255 
255 255 255 112 146 45 80 114 51 108 128 49 91 64 18 72 97 36 66 85 45 91 64 18 255 255 255 108 128 49 108 128 49 80 114 51 112 146 45 255 255 255 255 255 255 255 255 255 
255 255 255 112 146 45 108 128 49 255 255 255 112 82 29 255 255 255 72 97 36 112 82 29 255 255 255 255 255 255 108 128 49 108 128 49 108 128 49 72 97 36 255 255 255 255 255 255 
255 255 255 255 255 255 255 255 255 112 146 45 112 146 45 112 82 29 255 255 255 112 82 29 66 85 45 72 97 36 255 255 255 79 50 20 72 97 36 72 97 36 255 255 255 255 255 255 
255 255 255 255 255 255 112 146 45 112 146 45 72 97 36 108 128 49 255 255 255 112 82 29 72 97 36 64 84 30 72 97 36 79 50 20 255 255 255 255 255 255 255 255 255 255 255 255 
255 255 255 112 146 45 112 146 45 72 97 36 108 128 49 108 128 49 255 255 255 91 64 18 255 255 255 72 97 36 72 97 36 80 114 51 112 146 45 255 255 255 255 255 255 255 255 255 
255 255 255 112 146 45 80 114 51 112 146 45 108 128 49 79 50 20 80 114 51 66 85 45 108 128 49 255 255 255 255 255 255 108 128 49 80 114 51 112 146 45 255 255 255 255 255 255 
255 255 255 112 146 45 112 146 45 108 128 49 91 64 18 255 255 255 80 114 51 66 85 45 112 146 45 255 255 255 255 255 255 91 64 18 108 128 49 112 146 45 255 255 255 255 255 255 
255 255 255 255 255 255 255 255 255 255 255 255 91 64 18 255 255 255 108 128 49 80 114 51 112 146 45 255 255 255 112 82 29 64 84 30 72 97 36 255 255 255 255 255 255 255 255 255 
255 255 255 255 255 255 255 255 255 108 128 49 66 85 45 80 114 51 255 255 255 112 146 45 66 85 45 255 255 255 91 64 18 72 97 36 64 84 30 72 97 36 255 255 255 255 255 255 
255 255 255 255 255 255 255 255 255 112 146 45 66 85 45 108 128 49 255 255 255 66 85 45 66 85 45 80 114 51 66 85 45 108 128 49 72 97 36 72 97 36 255 255 255 255 255 255 
255 255 255 255 255 255 255 255 255 112 146 45 108 128 49 112 146 45 255 255 255 72 97 36 66 85 45 108 128 49 66 85 45 112 146 45 255 255 255 255 255 255 255 255 255 255 255 255 
255 255 255 255 255 255 255 255 255 255 255 255 112 146 45 255 255 255 255 255 255 255 255 255 72 97 36 112 146 45 108 128 49 112 146 45 255 255 255 255 255 255 255 255 255 255 255 255 
255 255 255 255 255 255 255 255 255 255 255 255 255 255 255 255 255 255 255 255 255 255 255 255 255 255 255 255 255 255 112 146 45 255 255 255 255 255 255 255 255 255 255 255 255 255 255 255 
