P3
16 16
255
156 153 156 156 153 156 156 153 156 156 153 156 156 153 156 139 137 139 139 137 139 156 153 156 156 153 156 156 153 156 139 137 139 156 153 156 156 153 156 139 137 139 156 153 156 106 109 106 
156 153 156 127 127 127 127 127 127 127 127 127 106 109 106 127 127 127 127 127 127 127 127 127 127 127 127 106 109 106 106 109 106 127 127 127 127 127 127 127 127 127 127 127 127 90 89 90 
139 137 139 127 127 127 99 99 99 99 99 99 90 89 90 90 89 90 90 89 90 90 89 90 99 99 99 99 99 99 99 99 99 99 99 99 106 109 106 120 118 120 106 109 106 90 89 90 
139 137 139 106 109 106 90 89 90 156 153 156 156 153 156 156 153 156 139 137 139 139 137 139 156 153 156 156 153 156 139 137 139 156 153 156 99 99 99 139 137 139 120 118 120 90 89 90 
156 153 156 127 127 127 90 89 90 156 153 156 139 137 139 127 127 127 127 127 127 120 118 120 127 127 127 127 127 127 127 127 127 106 109 106 99 99 99 139 137 139 127 127 127 90 89 90 
156 153 156 127 127 127 90 89 90 156 153 156 127 127 127 120 118 120 106 109 106 106 109 106 120 118 120 120 118 120 127 127 127 120 118 120 99 99 99 139 137 139 127 127 127 90 89 90 
139 137 139 106 109 106 90 89 90 139 137 139 127 127 127 120 118 120 90 89 90 90 89 90 90 89 90 139 137 139 127 127 127 106 109 106 99 99 99 156 153 156 120 118 120 90 89 90 
139 137 139 127 127 127 90 89 90 156 153 156 120 118 120 106 109 106 90 89 90 90 89 90 90 89 90 156 153 156 127 127 127 120 118 120 90 89 90 156 153 156 106 109 106 90 89 90 
139 137 139 106 109 106 90 89 90 139 137 139 127 127 127 120 118 120 90 89 90 90 89 90 90 89 90 139 137 139 120 118 120 106 109 106 90 89 90 156 153 156 120 118 120 90 89 90 
156 153 156 106 109 106 99 99 99 139 137 139 127 127 127 120 118 120 139 137 139 156 153 156 139 137 139 139 137 139 127 127 127 106 109 106 90 89 90 156 153 156 120 118 120 90 89 90 
156 153 156 127 127 127 99 99 99 156 153 156 127 127 127 127 127 127 139 137 139 127 127 127 139 137 139 127 127 127 120 118 120 106 109 106 90 89 90 139 137 139 120 118 120 90 89 90 
156 153 156 127 127 127 99 99 99 156 153 156 120 118 120 106 109 106 120 118 120 106 109 106 120 118 120 106 109 106 106 109 106 106 109 106 99 99 99 139 137 139 127 127 127 90 89 90 
156 153 156 127 127 127 106 109 106 99 99 99 99 99 99 99 99 99 90 89 90 90 89 90 90 89 90 90 89 90 90 89 90 99 99 99 99 99 99 139 137 139 120 118 120 90 89 90 
139 137 139 139 137 139 156 153 156 156 153 156 139 137 139 139 137 139 156 153 156 156 153 156 156 153 156 156 153 156 139 137 139 139 137 139 139 137 139 127 127 127 120 118 120 90 89 90 
139 137 139 120 118 120 120 118 120 127 127 127 120 118 120 106 109 106 120 118 120 127 127 127 127 127 127 120 118 120 120 118 120 106 109 106 120 118 120 106 109 106 106 109 106 90 89 90 
106 109 106 90 89 90 90 89 90 90 89 90 90 89 90 90 89 90 90 89 90 90 89 90 90 89 90 90 89 90 90 89 90 90 89 90 90 89 90 90 89 90 90 89 90 90 89 90 
