P3
16 16
255
124 91 124 91 52 91 86 46 86 71 33 71 86 46 86 86 46 86 91 52 91 124 91 124 99 69 97 124 91 124 91 52 91 91 52 91 143 113 143 143 113 143 143 113 143 124 91 124 
91 52 91 124 91 124 91 52 91 64 26 64 64 26 64 71 33 71 86 46 86 86 46 86 99 69 97 91 52 91 124 91 124 143 113 143 91 52 91 86 46 86 86 46 86 91 52 91 
91 52 91 143 113 143 91 52 91 58 20 58 58 20 58 86 46 86 86 46 86 91 52 91 124 91 124 91 52 91 71 33 71 86 46 86 71 33 71 64 26 64 64 26 64 86 46 86 
91 52 91 143 113 143 71 33 71 58 20 58 64 26 64 71 33 71 124 91 124 143 113 143 143 113 143 71 33 71 71 33 71 64 26 64 64 26 64 58 20 58 64 26 64 91 52 91 
124 91 124 86 46 86 71 33 71 71 33 71 64 26 64 64 26 64 91 52 91 124 91 124 91 52 91 86 46 86 58 20 58 58 20 58 64 26 64 64 26 64 71 33 71 124 91 124 
86 46 86 86 46 86 71 33 71 64 26 64 91 52 91 64 26 64 91 52 91 124 91 124 86 46 86 86 46 86 86 46 86 64 26 64 71 33 71 91 52 91 91 52 91 124 91 124 
91 52 91 86 46 86 86 46 86 86 46 86 86 46 86 91 52 91 91 52 91 164 157 126 153 142 95 124 91 124 143 113 143 124 91 124 124 91 124 143 113 143 124 91 124 91 52 91 
99 69 97 99 69 97 91 52 91 91 52 91 143 113 143 143 113 143 164 157 126 226 221 188 201 197 176 164 157 126 91 52 91 143 113 143 143 113 143 124 91 124 99 69 97 99 69 97 
91 52 91 124 91 124 143 113 143 143 113 143 124 91 124 91 52 91 153 142 95 201 197 176 164 157 126 153 142 95 86 46 86 91 52 91 91 52 91 86 46 86 91 52 91 91 52 91 
124 91 124 91 52 91 86 46 86 86 46 86 71 33 71 71 33 71 71 33 71 164 157 126 153 142 95 91 52 91 71 33 71 86 46 86 91 52 91 71 33 71 86 46 86 91 52 91 
91 52 91 91 52 91 71 33 71 64 26 64 64 26 64 64 26 64 71 33 71 91 52 91 124 91 124 86 46 86 71 33 71 64 26 64 71 33 71 64 26 64 91 52 91 99 69 97 
91 52 91 86 46 86 64 26 64 58 20 58 58 20 58 71 33 71 91 52 91 143 113 143 91 52 91 86 46 86 64 26 64 58 20 58 64 26 64 71 33 71 86 46 86 124 91 124 
86 46 86 71 33 71 71 33 71 64 26 64 71 33 71 64 26 64 143 113 143 124 91 124 86 46 86 71 33 71 58 20 58 58 20 58 71 33 71 86 46 86 143 113 143 86 46 86 
91 52 91 86 46 86 71 33 71 71 33 71 86 46 86 86 46 86 124 91 124 99 69 97 91 52 91 86 46 86 64 26 64 71 33 71 91 52 91 124 91 124 143 113 143 91 52 91 
91 52 91 91 52 91 91 52 91 143 113 143 143 113 143 91 52 91 86 46 86 91 52 91 99 69 97 91 52 91 71 33 71 86 46 86 86 46 86 91 52 91 91 52 91 143 113 143 
143 113 143 143 113 143 124 91 124 86 46 86 86 46 86 124 91 124 143 113 143 86 46 86 124 91 124 91 52 91 91 52 91 86 46 86 91 52 91 91 52 91 91 52 91 143 113 143 
