P3
16 16
255
31 30 30 31 30 30 21 21 21 21 21 21 13 13 13 21 21 21 21 21 21 5 5 5 5 5 5 21 21 21 21 21 21 13 13 13 5 5 5 5 5 5 13 13 13 21 21 21 
21 21 21 21 21 21 21 21 21 13 13 13 21 21 21 13 13 13 5 5 5 5 5 5 5 5 5 21 21 21 13 13 13 5 5 5 13 13 13 21 21 21 31 30 30 31 30 30 
21 21 21 13 13 13 5 5 5 5 5 5 5 5 5 13 13 13 21 21 21 21 21 21 5 5 5 5 5 5 5 5 5 5 5 5 21 21 21 21 21 21 21 21 21 21 21 21 
13 13 13 5 5 5 5 5 5 13 13 13 21 21 21 41 40 40 31 30 30 21 21 21 21 21 21 21 21 21 21 21 21 5 5 5 21 21 21 21 21 21 13 13 13 5 5 5 
5 5 5 5 5 5 13 13 13 21 21 21 31 30 30 31 30 30 21 21 21 21 21 21 21 21 21 13 13 13 5 5 5 5 5 5 21 21 21 13 13 13 5 5 5 5 5 5 
21 21 21 5 5 5 21 21 21 21 21 21 21 21 21 21 21 21 21 21 21 13 13 13 5 5 5 5 5 5 5 5 5 5 5 5 5 5 5 13 13 13 21 21 21 21 21 21 
5 5 5 13 13 13 31 30 30 21 21 21 21 21 21 13 13 13 13 13 13 5 5 5 5 5 5 13 13 13 13 13 13 21 21 21 21 21 21 21 21 21 21 21 21 21 21 21 
5 5 5 21 21 21 21 21 21 21 21 21 13 13 13 5 5 5 13 13 13 21 21 21 21 21 21 31 30 30 41 40 40 31 30 30 21 21 21 21 21 21 13 13 13 5 5 5 
5 5 5 21 21 21 13 13 13 13 13 13 5 5 5 13 13 13 21 21 21 31 30 30 31 30 30 21 21 21 21 21 21 21 21 21 13 13 13 5 5 5 5 5 5 5 5 5 
5 5 5 5 5 5 13 13 13 21 21 21 13 13 13 21 21 21 31 30 30 21 21 21 21 21 21 13 13 13 13 13 13 5 5 5 31 30 30 21 21 21 5 5 5 5 5 5 
21 21 21 13 13 13 21 21 21 13 13 13 21 21 21 21 21 21 21 21 21 13 13 13 5 5 5 5 5 5 5 5 5 21 21 21 21 21 21 13 13 13 13 13 13 21 21 21 
31 30 30 21 21 21 13 13 13 5 5 5 21 21 21 13 13 13 13 13 13 21 21 21 21 21 21 13 13 13 5 5 5 5 5 5 13 13 13 21 21 21 21 21 21 31 30 30 
5 5 5 5 5 5 5 5 5 21 21 21 13 13 13 13 13 13 31 30 30 41 40 40 31 30 30 21 21 21 13 13 13 21 21 21 31 30 30 31 30 30 21 21 21 21 21 21 
5 5 5 5 5 5 5 5 5 13 13 13 21 21 21 31 30 30 41 40 40 21 21 21 5 5 5 5 5 5 21 21 21 31 30 30 21 21 21 21 21 21 13 13 13 5 5 5 
5 5 5 5 5 5 13 13 13 21 21 21 31 30 30 21 21 21 13 13 13 5 5 5 5 5 5 13 13 13 21 21 21 21 21 21 21 21 21 13 13 13 5 5 5 5 5 5 
13 13 13 21 21 21 21 21 21 21 21 21 21 21 21 13 13 13 21 21 21 21 21 21 13 13 13 21 21 21 21 21 21 21 21 21 13 13 13 5 5 5 5 5 5 5 5 5 
