P3
16 16
255
110 109 109 97 97 97 166 166 166 166 166 166 82 82 82 97 97 97 97 97 97 166 166 166 181 181 181 166 166 166 136 135 136 97 97 97 136 135 136 181 181 181 166 166 166 136 135 136 
97 97 97 166 166 166 181 181 181 136 135 136 136 135 136 82 82 82 181 181 181 181 181 181 166 166 166 136 135 136 136 135 136 82 82 82 97 97 97 136 135 136 110 109 109 136 135 136 
97 97 97 166 166 166 136 135 136 166 166 166 110 109 109 97 97 97 166 166 166 136 135 136 136 135 136 166 166 166 110 109 109 97 97 97 82 82 82 97 97 97 136 135 136 110 109 109 
97 97 97 97 97 97 136 135 136 110 109 109 97 97 97 97 97 97 136 135 136 110 109 109 136 135 136 110 109 109 97 97 97 136 135 136 166 166 166 136 135 136 97 97 97 82 82 82 
82 82 82 110 109 109 97 97 97 136 135 136 181 181 181 166 166 166 97 97 97 136 135 136 97 97 97 97 97 97 181 181 181 166 166 166 166 166 166 166 166 166 136 135 136 97 97 97 
181 181 181 110 109 109 166 166 166 181 181 181 136 135 136 136 135 136 110 109 109 97 97 97 82 82 82 136 135 136 136 135 136 181 181 181 166 166 166 136 135 136 110 109 109 136 135 136 
166 166 166 136 135 136 97 97 97 136 135 136 166 166 166 136 135 136 136 135 136 110 109 109 97 97 97 97 97 97 110 109 109 166 166 166 136 135 136 110 109 109 97 97 97 181 181 181 
136 135 136 136 135 136 110 109 109 110 109 109 136 135 136 136 135 136 110 109 109 97 97 97 136 135 136 181 181 181 166 166 166 97 97 97 110 109 109 136 135 136 97 97 97 136 135 136 
110 109 109 97 97 97 181 181 181 166 166 166 110 109 109 110 109 109 97 97 97 136 135 136 181 181 181 136 135 136 136 135 136 136 135 136 97 97 97 97 97 97 82 82 82 110 109 109 
97 97 97 181 181 181 166 166 166 136 135 136 110 109 109 136 135 136 110 109 109 110 109 109 136 135 136 136 135 136 97 97 97 110 109 109 97 97 97 136 135 136 166 166 166 97 97 97 
136 135 136 110 109 109 136 135 136 110 109 109 136 135 136 97 97 97 97 97 97 82 82 82 97 97 97 110 109 109 110 109 109 97 97 97 82 82 82 166 166 166 166 166 166 181 181 181 
136 135 136 110 109 109 110 109 109 97 97 97 97 97 97 110 109 109 136 135 136 181 181 181 166 166 166 97 97 97 97 97 97 82 82 82 136 135 136 181 181 181 181 181 181 136 135 136 
110 109 109 136 135 136 181 181 181 166 166 166 110 109 109 97 97 97 181 181 181 166 166 166 136 135 136 166 166 166 110 109 109 97 97 97 136 135 136 136 135 136 110 109 109 136 135 136 
97 97 97 181 181 181 166 166 166 136 135 136 136 135 136 97 97 97 166 166 166 136 135 136 110 109 109 136 135 136 136 135 136 110 109 109 97 97 97 97 97 97 136 135 136 110 109 109 
166 166 166 166 166 166 136 135 136 110 109 109 136 135 136 110 109 109 97 97 97 110 109 109 136 135 136 136 135 136 110 109 109 97 97 97 166 166 166 136 135 136 97 97 97 97 97 97 
97 97 97 136 135 136 97 97 97 97 97 97 110 109 109 136 135 136 110 109 109 97 97 97 110 109 109 97 97 97 97 97 97 136 135 136 181 181 181 166 166 166 136 135 136 110 109 109 
