P3
16 16
255
199 126 79 199 126 79 199 126 79 206 143 102 166 96 48 206 143 102 199 126 79 199 126 79 199 126 79 199 126 79 199 126 79 206 143 102 166 96 48 206 143 102 199 126 79 199 126 79 
199 126 79 199 126 79 206 143 102 166 96 48 215 180 157 166 96 48 206 143 102 199 126 79 199 126 79 199 126 79 206 143 102 166 96 48 215 180 157 166 96 48 206 143 102 199 126 79 
199 126 79 206 143 102 166 96 48 215 180 157 207 166 139 215 180 157 166 96 48 206 143 102 206 143 102 206 143 102 166 96 48 215 180 157 207 166 139 215 180 157 166 96 48 206 143 102 
206 143 102 166 96 48 215 180 157 207 166 139 111 73 43 111 73 43 111 73 43 64 52 32 84 60 36 64 52 32 111 73 43 111 73 43 111 73 43 207 166 139 215 180 157 166 96 48 
166 96 48 201 143 107 207 166 139 111 73 43 213 210 221 210 207 218 210 207 218 210 207 218 205 202 213 197 194 205 197 194 205 197 194 205 197 194 205 111 73 43 207 166 139 201 143 107 
187 109 58 166 96 48 201 143 107 111 73 43 206 203 214 179 176 185 179 176 185 179 176 185 179 176 185 179 176 185 179 176 185 179 176 185 168 165 175 111 73 43 201 143 107 166 96 48 
199 126 79 187 109 58 166 96 48 111 73 43 206 203 214 179 176 185 168 84 81 179 176 185 162 46 44 179 176 185 78 108 50 179 176 185 159 157 167 84 60 36 166 96 48 187 109 58 
199 126 79 199 126 79 187 109 58 64 52 32 210 207 218 179 176 185 179 176 185 179 176 185 179 176 185 179 176 185 179 176 185 179 176 185 145 143 153 64 52 32 187 109 58 199 126 79 
199 126 79 199 126 79 199 126 79 84 60 36 205 202 213 179 176 185 194 135 62 179 176 185 206 122 119 179 176 185 205 58 54 179 176 185 119 116 128 84 60 36 199 126 79 199 126 79 
199 126 79 199 126 79 206 143 102 64 52 32 205 202 213 179 176 185 179 176 185 179 176 185 179 176 185 179 176 185 179 176 185 179 176 185 119 116 128 64 52 32 206 143 102 199 126 79 
199 126 79 206 143 102 166 96 48 111 73 43 197 194 205 179 176 185 130 37 35 179 176 185 206 122 119 179 176 185 172 105 103 179 176 185 119 116 128 111 73 43 166 96 48 206 143 102 
206 143 102 166 96 48 215 180 157 111 73 43 197 194 205 179 176 185 179 176 185 179 176 185 179 176 185 179 176 185 179 176 185 179 176 185 119 116 128 111 73 43 215 180 157 166 96 48 
166 96 48 215 180 157 207 166 139 111 73 43 197 194 205 168 165 175 159 157 167 145 143 153 119 116 128 119 116 128 119 116 128 119 116 128 119 116 128 111 73 43 207 166 139 215 180 157 
187 109 58 166 96 48 207 166 139 201 143 107 111 73 43 111 73 43 84 60 36 64 52 32 84 60 36 64 52 32 111 73 43 111 73 43 111 73 43 201 143 107 207 166 139 166 96 48 
199 126 79 187 109 58 166 96 48 207 166 139 201 143 107 201 143 107 166 96 48 187 109 58 187 109 58 187 109 58 166 96 48 201 143 107 201 143 107 207 166 139 166 96 48 187 109 58 
199 126 79 199 126 79 187 109 58 166 96 48 201 143 107 166 96 48 187 109 58 199 126 79 199 126 79 199 126 79 187 109 58 166 96 48 201 143 107 166 96 48 187 109 58 199 126 79 
