P3
16 16
255
123 125 123 139 141 139 139 141 139 139 141 139 123 125 123 139 141 139 139 141 139 139 141 139 123 125 123 139 141 139 139 141 139 139 141 139 139 141 139 139 141 139 139 141 139 139 141 139 
123 125 123 187 187 187 172 170 172 172 170 172 172 170 172 172 170 172 187 187 187 187 187 187 187 187 187 197 202 197 197 202 197 197 202 197 197 202 197 187 187 187 172 170 172 139 141 139 
139 141 139 172 170 172 187 187 187 197 202 197 197 202 197 197 202 197 197 202 197 187 187 187 187 187 187 187 187 187 172 170 172 172 170 172 172 170 172 172 170 172 172 170 172 139 141 139 
139 141 139 197 202 197 197 202 197 187 187 187 187 187 187 187 187 187 187 187 187 187 187 187 187 187 187 187 187 187 187 187 187 187 187 187 197 202 197 197 202 197 187 187 187 139 141 139 
139 141 139 172 170 172 172 170 172 172 170 172 187 187 187 187 187 187 187 187 187 197 202 197 197 202 197 197 202 197 187 187 187 187 187 187 187 187 187 187 187 187 172 170 172 123 125 123 
139 141 139 187 187 187 187 187 187 187 187 187 187 187 187 187 187 187 172 170 172 123 125 123 123 125 123 187 187 187 213 216 213 172 170 172 172 170 172 187 187 187 187 187 187 139 141 139 
123 125 123 123 125 123 172 170 172 197 202 197 197 202 197 139 141 139 123 125 123 211 199 185 211 199 185 221 203 190 213 216 213 187 187 187 187 187 187 172 170 172 123 125 123 123 125 123 
139 141 139 139 141 139 123 125 123 187 187 187 187 187 187 123 125 123 197 184 169 235 222 212 221 203 190 211 199 185 187 187 187 213 216 213 172 170 172 123 125 123 139 141 139 139 141 139 
139 141 139 123 125 123 197 202 197 187 187 187 139 141 139 123 125 123 197 184 169 221 203 190 235 222 212 211 199 185 221 203 190 213 216 213 172 170 172 197 202 197 123 125 123 139 141 139 
197 202 197 197 202 197 172 170 172 187 187 187 123 125 123 197 184 169 221 203 190 235 222 212 221 203 190 235 222 212 211 199 185 187 187 187 213 216 213 172 170 172 197 202 197 197 202 197 
139 141 139 172 170 172 187 187 187 139 141 139 123 125 123 197 184 169 235 222 212 221 203 190 235 222 212 221 203 190 211 199 185 221 203 190 213 216 213 187 187 187 172 170 172 139 141 139 
123 125 123 172 170 172 187 187 187 123 125 123 255 0 0 255 0 0 255 0 0 255 0 0 255 0 0 215 3 4 215 3 4 215 3 4 187 187 187 197 202 197 172 170 172 123 125 123 
139 141 139 187 187 187 187 187 187 123 125 123 255 0 0 215 3 4 177 0 2 177 0 2 177 0 2 177 0 2 177 0 2 177 0 2 187 187 187 197 202 197 187 187 187 139 141 139 
139 141 139 172 170 172 187 187 187 197 202 197 197 202 197 187 187 187 187 187 187 187 187 187 187 187 187 197 202 197 197 202 197 197 202 197 197 202 197 187 187 187 172 170 172 139 141 139 
139 141 139 197 202 197 197 202 197 187 187 187 187 187 187 187 187 187 197 202 197 197 202 197 187 187 187 187 187 187 187 187 187 187 187 187 172 170 172 172 170 172 172 170 172 139 141 139 
139 141 139 139 141 139 139 141 139 139 141 139 123 125 123 139 141 139 139 141 139 139 141 139 139 141 139 139 141 139 139 141 139 139 141 139 139 141 139 139 141 139 123 125 123 139 141 139 
