P3
16 16
255
255 255 255 255 255 255 255 255 255 255 255 255 255 255 255 255 255 255 255 255 255 255 255 255 255 255 255 255 255 255 255 255 255 255 255 255 255 255 255 255 255 255 255 255 255 255 255 255 
255 255 255 255 255 255 255 255 255 255 255 255 255 255 255 255 255 255 255 255 255 255 255 255 255 255 255 255 255 255 255 255 255 255 255 255 255 255 255 255 255 255 255 255 255 255 255 255 
255 255 255 255 255 255 74 48 24 74 48 24 106 68 24 82 76 16 82 60 24 74 48 24 82 60 24 82 60 24 131 103 75 74 48 24 74 48 24 74 48 24 255 255 255 255 255 255 
255 255 255 255 255 255 74 48 24 106 68 24 219 209 166 106 68 24 82 60 24 131 103 75 106 68 24 180 169 115 219 209 166 131 103 75 106 68 24 74 48 24 255 255 255 255 255 255 
255 255 255 255 255 255 106 68 24 219 209 166 219 209 166 180 169 115 95 72 50 106 68 24 95 72 50 219 209 166 180 169 115 95 72 50 82 60 24 74 48 24 255 255 255 255 255 255 
255 255 255 255 255 255 82 60 24 95 72 50 131 103 75 219 209 166 219 209 166 82 60 24 139 89 32 131 103 75 180 169 115 106 68 24 74 48 24 74 48 24 255 255 255 255 255 255 
255 255 255 255 255 255 82 60 24 106 68 24 106 68 24 180 169 115 131 103 75 82 76 16 106 68 24 106 68 24 74 48 24 95 72 50 131 103 75 82 60 24 255 255 255 255 255 255 
255 255 255 255 255 255 82 60 24 131 103 75 95 72 50 131 103 75 95 72 50 131 103 75 131 103 75 82 60 24 95 72 50 131 103 75 131 103 75 95 72 50 255 255 255 255 255 255 
255 255 255 255 255 255 74 48 24 95 72 50 106 68 24 82 60 24 219 209 166 219 209 166 180 169 115 131 103 75 82 60 24 82 60 24 74 48 24 82 60 24 255 255 255 255 255 255 
255 255 255 255 255 255 82 60 24 82 60 24 106 68 24 180 169 115 219 209 166 180 169 115 131 103 75 131 103 75 180 169 115 131 103 75 82 76 16 82 76 16 255 255 255 255 255 255 
255 255 255 255 255 255 82 60 24 180 169 115 219 209 166 95 72 50 82 60 24 106 68 24 106 68 24 180 169 115 219 209 166 219 209 166 82 60 24 82 76 16 255 255 255 255 255 255 
255 255 255 255 255 255 106 68 24 131 103 75 180 169 115 219 209 166 180 169 115 82 60 24 131 103 75 106 68 24 131 103 75 180 169 115 74 48 24 82 60 24 255 255 255 255 255 255 
255 255 255 255 255 255 74 48 24 74 48 24 131 103 75 95 72 50 106 68 24 172 101 32 139 89 32 106 68 24 82 60 24 82 76 16 82 60 24 74 48 24 255 255 255 255 255 255 
255 255 255 255 255 255 74 48 24 74 48 24 82 60 24 82 60 24 82 60 24 82 76 16 82 60 24 74 48 24 82 60 24 82 60 24 74 48 24 74 48 24 255 255 255 255 255 255 
255 255 255 255 255 255 255 255 255 255 255 255 255 255 255 255 255 255 255 255 255 255 255 255 255 255 255 255 255 255 255 255 255 255 255 255 255 255 255 255 255 255 255 255 255 255 255 255 
255 255 255 255 255 255 255 255 255 255 255 255 255 255 255 255 255 255 255 255 255 255 255 255 255 255 255 255 255 255 255 255 255 255 255 255 255 255 255 255 255 255 255 255 255 255 255 255 
