P3
16 16
255
92 48 66 75 39 55 75 39 55 75 39 55 75 39 55 92 48 66 75 39 55 75 39 55 75 39 55 92 48 66 75 39 55 75 39 55 92 48 66 75 39 55 75 39 55 75 39 55 
75 39 55 134 62 90 126 58 86 146 65 96 126 58 86 134 62 90 146 65 96 134 62 90 146 65 96 146 65 96 146 65 96 146 65 96 134 62 90 126 58 86 134 62 90 92 48 66 
75 39 55 126 58 86 92 48 66 92 48 66 106 52 75 92 48 66 92 48 66 92 48 66 92 48 66 106 52 75 106 52 75 92 48 66 92 48 66 106 52 75 126 58 86 75 39 55 
92 48 66 134 62 90 92 48 66 255 255 255 255 255 255 255 255 255 255 255 255 255 255 255 255 255 255 255 255 255 255 255 255 255 255 255 255 255 255 92 48 66 126 58 86 75 39 55 
75 39 55 134 62 90 75 39 55 92 48 66 92 48 66 106 52 75 92 48 66 75 39 55 75 39 55 75 39 55 75 39 55 92 48 66 92 48 66 75 39 55 126 58 86 92 48 66 
75 39 55 126 58 86 134 62 90 134 62 90 146 65 96 146 65 96 146 65 96 146 65 96 134 62 90 134 62 90 146 65 96 146 65 96 134 62 90 126 58 86 134 62 90 92 48 66 
75 39 55 146 65 96 75 39 55 92 48 66 92 48 66 75 39 55 75 39 55 75 39 55 75 39 55 92 48 66 106 52 75 92 48 66 92 48 66 75 39 55 134 62 90 75 39 55 
92 48 66 146 65 96 92 48 66 255 255 255 255 255 255 255 255 255 255 255 255 255 255 255 255 255 255 255 255 255 255 255 255 255 255 255 255 255 255 92 48 66 126 58 86 75 39 55 
75 39 55 134 62 90 92 48 66 255 255 255 255 255 255 255 255 255 255 255 255 255 255 255 255 255 255 255 255 255 255 255 255 255 255 255 255 255 255 92 48 66 126 58 86 75 39 55 
75 39 55 134 62 90 75 39 55 75 39 55 75 39 55 92 48 66 75 39 55 92 48 66 106 52 75 106 52 75 92 48 66 92 48 66 75 39 55 75 39 55 146 65 96 92 48 66 
92 48 66 126 58 86 126 58 86 134 62 90 146 65 96 146 65 96 146 65 96 146 65 96 126 58 86 146 65 96 126 58 86 134 62 90 134 62 90 126 58 86 146 65 96 75 39 55 
75 39 55 126 58 86 75 39 55 92 48 66 92 48 66 92 48 66 106 52 75 92 48 66 75 39 55 75 39 55 92 48 66 75 39 55 75 39 55 75 39 55 146 65 96 75 39 55 
75 39 55 134 62 90 92 48 66 255 255 255 255 255 255 255 255 255 255 255 255 255 255 255 255 255 255 255 255 255 255 255 255 255 255 255 255 255 255 92 48 66 134 62 90 92 48 66 
75 39 55 134 62 90 92 48 66 92 48 66 106 52 75 92 48 66 92 48 66 106 52 75 106 52 75 106 52 75 92 48 66 106 52 75 92 48 66 92 48 66 146 65 96 92 48 66 
92 48 66 134 62 90 146 65 96 146 65 96 134 62 90 126 58 86 146 65 96 146 65 96 146 65 96 146 65 96 146 65 96 146 65 96 146 65 96 146 65 96 126 58 86 92 48 66 
92 48 66 75 39 55 75 39 55 75 39 55 75 39 55 92 48 66 92 48 66 75 39 55 92 48 66 75 39 55 75 39 55 75 39 55 92 48 66 92 48 66 92 48 66 75 39 55 
