P3
16 16
255
68 33 49 68 33 49 82 24 16 177 39 39 75 39 55 75 39 55 123 0 0 82 24 16 150 21 21 82 24 16 68 33 49 75 39 55 68 33 49 137 15 15 82 24 16 68 33 49 
68 33 49 68 33 49 82 24 16 150 21 21 68 33 49 75 39 55 123 0 0 82 24 16 150 21 21 82 24 16 75 39 55 75 39 55 82 24 16 123 0 0 82 24 16 68 33 49 
82 24 16 137 15 15 123 0 0 82 24 16 82 24 16 75 39 55 82 24 16 137 15 15 137 15 15 68 33 49 86 44 62 68 33 49 82 24 16 82 24 16 137 15 15 82 24 16 
177 39 39 68 33 49 75 39 55 123 0 0 82 24 16 68 33 49 68 33 49 82 24 16 137 15 15 82 24 16 86 44 62 75 39 55 123 0 0 82 24 16 150 21 21 150 21 21 
82 24 16 75 39 55 86 44 62 82 24 16 123 0 0 82 24 16 75 39 55 82 24 16 123 0 0 82 24 16 75 39 55 86 44 62 82 24 16 137 15 15 150 21 21 82 24 16 
68 33 49 86 44 62 86 44 62 82 24 16 123 0 0 82 24 16 86 44 62 75 39 55 82 24 16 123 0 0 82 24 16 75 39 55 68 33 49 82 24 16 137 15 15 82 24 16 
82 24 16 123 0 0 86 44 62 86 44 62 82 24 16 123 0 0 75 39 55 86 44 62 86 44 62 82 24 16 123 0 0 82 24 16 82 24 16 137 15 15 82 24 16 75 39 55 
137 15 15 75 39 55 86 44 62 75 39 55 82 24 16 123 0 0 68 33 49 75 39 55 86 44 62 86 44 62 82 24 16 123 0 0 123 0 0 82 24 16 75 39 55 75 39 55 
137 15 15 68 33 49 68 33 49 82 24 16 68 33 49 82 24 16 123 0 0 82 24 16 68 33 49 75 39 55 75 39 55 82 24 16 123 0 0 68 33 49 86 44 62 86 44 62 
82 24 16 150 21 21 68 33 49 137 15 15 75 39 55 75 39 55 82 24 16 123 0 0 123 0 0 82 24 16 68 33 49 123 0 0 123 0 0 82 24 16 86 44 62 75 39 55 
82 24 16 177 39 39 150 21 21 82 24 16 68 33 49 86 44 62 86 44 62 68 33 49 82 24 16 123 0 0 82 24 16 123 0 0 82 24 16 75 39 55 75 39 55 68 33 49 
150 21 21 82 24 16 75 39 55 68 33 49 82 24 16 75 39 55 86 44 62 86 44 62 68 33 49 123 0 0 123 0 0 82 24 16 137 15 15 68 33 49 68 33 49 82 24 16 
137 15 15 75 39 55 75 39 55 123 0 0 82 24 16 68 33 49 75 39 55 86 44 62 82 24 16 123 0 0 82 24 16 68 33 49 150 21 21 82 24 16 68 33 49 82 24 16 
82 24 16 75 39 55 82 24 16 137 15 15 82 24 16 123 0 0 68 33 49 75 39 55 137 15 15 82 24 16 68 33 49 75 39 55 82 24 16 177 39 39 82 24 16 137 15 15 
68 33 49 82 24 16 137 15 15 82 24 16 68 33 49 123 0 0 82 24 16 68 33 49 82 24 16 150 21 21 82 24 16 75 39 55 75 39 55 82 24 16 150 21 21 82 24 16 
68 33 49 68 33 49 150 21 21 82 24 16 75 39 55 68 33 49 123 0 0 68 33 49 82 24 16 177 39 39 150 21 21 82 24 16 68 33 49 137 15 15 82 24 16 68 33 49 
