P3
16 16
255
227 130 108 214 123 91 227 130 108 227 130 108 214 123 91 227 130 108 214 123 91 167 90 64 227 130 108 214 123 91 214 123 91 227 130 108 227 130 108 214 123 91 227 130 108 167 90 64 
214 123 91 178 98 71 200 116 86 227 130 108 227 130 108 200 116 86 178 98 71 154 80 56 214 123 91 167 90 64 178 98 71 227 130 108 200 116 86 178 98 71 178 98 71 154 80 56 
227 130 108 200 116 86 227 130 108 227 130 108 200 116 86 167 90 64 167 90 64 154 80 56 227 130 108 178 98 71 227 130 108 200 116 86 178 98 71 167 90 64 178 98 71 167 90 64 
227 130 108 200 116 86 227 130 108 200 116 86 167 90 64 167 90 64 200 116 86 154 80 56 227 130 108 200 116 86 200 116 86 178 98 71 167 90 64 178 98 71 200 116 86 154 80 56 
227 130 108 178 98 71 200 116 86 178 98 71 167 90 64 200 116 86 227 130 108 167 90 64 214 123 91 200 116 86 178 98 71 167 90 64 167 90 64 200 116 86 227 130 108 154 80 56 
214 123 91 178 98 71 178 98 71 167 90 64 178 98 71 227 130 108 227 130 108 167 90 64 227 130 108 178 98 71 178 98 71 167 90 64 200 116 86 227 130 108 227 130 108 167 90 64 
214 123 91 178 98 71 167 90 64 178 98 71 200 116 86 227 130 108 200 116 86 154 80 56 214 123 91 178 98 71 167 90 64 200 116 86 227 130 108 227 130 108 200 116 86 167 90 64 
167 90 64 154 80 56 154 80 56 154 80 56 167 90 64 154 80 56 154 80 56 154 80 56 167 90 64 154 80 56 167 90 64 154 80 56 154 80 56 154 80 56 167 90 64 154 80 56 
227 130 108 227 130 108 214 123 91 227 130 108 214 123 91 214 123 91 227 130 108 167 90 64 227 130 108 214 123 91 214 123 91 227 130 108 227 130 108 214 123 91 214 123 91 167 90 64 
214 123 91 200 116 86 178 98 71 178 98 71 178 98 71 200 116 86 227 130 108 167 90 64 214 123 91 200 116 86 227 130 108 227 130 108 200 116 86 178 98 71 167 90 64 167 90 64 
227 130 108 178 98 71 167 90 64 178 98 71 200 116 86 227 130 108 200 116 86 167 90 64 214 123 91 227 130 108 227 130 108 200 116 86 178 98 71 167 90 64 167 90 64 167 90 64 
227 130 108 167 90 64 178 98 71 200 116 86 227 130 108 200 116 86 167 90 64 154 80 56 214 123 91 227 130 108 200 116 86 178 98 71 167 90 64 167 90 64 178 98 71 154 80 56 
214 123 91 178 98 71 200 116 86 227 130 108 227 130 108 167 90 64 178 98 71 154 80 56 214 123 91 200 116 86 178 98 71 178 98 71 167 90 64 178 98 71 227 130 108 167 90 64 
214 123 91 200 116 86 227 130 108 227 130 108 178 98 71 178 98 71 200 116 86 154 80 56 227 130 108 178 98 71 178 98 71 167 90 64 178 98 71 227 130 108 227 130 108 154 80 56 
214 123 91 227 130 108 227 130 108 178 98 71 178 98 71 200 116 86 200 116 86 167 90 64 214 123 91 178 98 71 167 90 64 178 98 71 200 116 86 227 130 108 200 116 86 154 80 56 
154 80 56 167 90 64 167 90 64 167 90 64 154 80 56 154 80 56 167 90 64 154 80 56 167 90 64 167 90 64 167 90 64 167 90 64 154 80 56 154 80 56 167 90 64 167 90 64 
