P3
16 16
255
60 51 34 60 51 34 60 51 34 60 51 34 60 51 34 60 51 34 60 51 34 60 51 34 60 51 34 60 51 34 60 51 34 60 51 34 60 51 34 60 51 34 60 51 34 60 51 34 
60 51 34 101 79 49 210 193 171 210 193 171 101 79 49 71 61 41 101 79 49 210 193 171 210 193 171 101 79 49 71 61 41 101 79 49 210 193 171 210 193 171 101 79 49 60 51 34 
60 51 34 210 193 171 228 219 206 217 203 184 202 182 156 71 61 41 210 193 171 223 212 197 217 203 184 202 182 156 71 61 41 210 193 171 228 219 206 217 203 184 202 182 156 60 51 34 
60 51 34 210 193 171 217 203 184 210 193 171 190 170 142 71 61 41 210 193 171 217 203 184 210 193 171 202 182 156 71 61 41 210 193 171 217 203 184 210 193 171 190 170 142 60 51 34 
60 51 34 101 79 49 202 182 156 190 170 142 101 79 49 71 61 41 101 79 49 202 182 156 190 170 142 101 79 49 71 61 41 101 79 49 202 182 156 190 170 142 101 79 49 60 51 34 
60 51 34 71 61 41 71 61 41 71 61 41 71 61 41 71 61 41 71 61 41 71 61 41 71 61 41 71 61 41 71 61 41 71 61 41 71 61 41 71 61 41 71 61 41 60 51 34 
60 51 34 101 79 49 210 193 171 210 193 171 101 79 49 71 61 41 101 79 49 210 193 171 210 193 171 101 79 49 71 61 41 101 79 49 210 193 171 210 193 171 101 79 49 60 51 34 
60 51 34 210 193 171 228 219 206 217 203 184 202 182 156 71 61 41 210 193 171 228 219 206 228 219 206 202 182 156 71 61 41 210 193 171 228 219 206 217 203 184 202 182 156 60 51 34 
60 51 34 210 193 171 217 203 184 210 193 171 190 170 142 71 61 41 210 193 171 217 203 184 210 193 171 190 170 142 71 61 41 210 193 171 217 203 184 210 193 171 190 170 142 60 51 34 
60 51 34 101 79 49 202 182 156 190 170 142 101 79 49 71 61 41 101 79 49 202 182 156 190 170 142 101 79 49 71 61 41 101 79 49 202 182 156 190 170 142 101 79 49 60 51 34 
60 51 34 71 61 41 71 61 41 71 61 41 71 61 41 71 61 41 71 61 41 71 61 41 71 61 41 71 61 41 71 61 41 71 61 41 71 61 41 71 61 41 71 61 41 60 51 34 
60 51 34 101 79 49 210 193 171 210 193 171 101 79 49 71 61 41 101 79 49 210 193 171 210 193 171 101 79 49 71 61 41 101 79 49 210 193 171 210 193 171 101 79 49 60 51 34 
60 51 34 210 193 171 228 219 206 217 203 184 190 170 142 71 61 41 210 193 171 228 219 206 217 203 184 202 182 156 71 61 41 210 193 171 228 219 206 217 203 184 202 182 156 60 51 34 
60 51 34 210 193 171 228 219 206 210 193 171 190 170 142 71 61 41 210 193 171 217 203 184 210 193 171 190 170 142 71 61 41 210 193 171 217 203 184 210 193 171 190 170 142 60 51 34 
60 51 34 101 79 49 202 182 156 190 170 142 101 79 49 71 61 41 101 79 49 202 182 156 202 182 156 101 79 49 71 61 41 101 79 49 202 182 156 190 170 142 101 79 49 60 51 34 
60 51 34 60 51 34 60 51 34 60 51 34 60 51 34 60 51 34 60 51 34 60 51 34 60 51 34 60 51 34 60 51 34 60 51 34 60 51 34 60 51 34 60 51 34 60 51 34 
