P3
16 16
255
121 121 121 100 100 100 81 81 81 81 81 81 81 81 81 81 81 81 61 61 67 61 61 67 100 100 100 100 100 100 100 100 100 81 81 81 81 81 81 61 61 67 81 81 81 81 81 81 
81 81 81 61 61 67 47 47 55 47 47 55 61 61 67 61 61 67 61 61 67 61 61 67 81 81 81 100 100 100 119 103 79 136 116 85 136 116 85 119 103 79 81 81 81 61 61 67 
100 100 100 100 100 100 136 116 85 175 142 119 136 116 85 61 61 67 47 47 55 47 47 55 47 47 55 61 61 67 121 121 121 136 116 85 175 142 119 121 121 121 61 61 67 61 61 67 
61 61 67 136 116 85 175 142 119 216 175 147 121 121 121 81 81 81 81 81 81 61 61 67 81 81 81 100 100 100 100 100 100 121 121 121 121 121 121 100 100 100 100 100 100 81 81 81 
47 47 55 61 61 67 121 121 121 121 121 121 61 61 67 61 61 67 61 61 67 136 116 85 136 116 85 175 142 119 175 142 119 136 116 85 100 100 100 100 100 100 81 81 81 61 61 67 
121 121 121 121 121 121 81 81 81 100 100 100 136 116 85 175 142 119 216 175 147 216 175 147 226 192 170 216 175 147 175 142 119 121 121 121 81 81 81 136 116 85 175 142 119 100 100 100 
121 121 121 100 100 100 100 100 100 81 81 81 121 121 121 121 121 121 175 142 119 216 175 147 216 175 147 121 121 121 121 121 121 61 61 67 47 47 55 47 47 55 61 61 67 81 81 81 
100 100 100 81 81 81 61 61 67 61 61 67 61 61 67 61 61 67 121 121 121 121 121 121 121 121 121 100 100 100 81 81 81 61 61 67 47 47 55 61 61 67 81 81 81 81 81 81 
81 81 81 61 61 67 81 81 81 136 116 85 175 142 119 61 61 67 81 81 81 121 121 121 100 100 100 119 103 79 136 116 85 175 142 119 119 103 79 61 61 67 61 61 67 81 81 81 
61 61 67 61 61 67 119 103 79 175 142 119 175 142 119 216 175 147 216 175 147 100 100 100 81 81 81 81 81 81 175 142 119 216 175 147 121 121 121 47 47 55 47 47 55 61 61 67 
100 100 100 81 81 81 100 100 100 121 121 121 216 175 147 226 192 170 121 121 121 61 61 67 61 61 67 47 47 55 121 121 121 121 121 121 81 81 81 81 81 81 121 121 121 121 121 121 
100 100 100 100 100 100 81 81 81 61 61 67 121 121 121 121 121 121 121 121 121 121 121 121 81 81 81 61 61 67 81 81 81 119 103 79 136 116 85 81 81 81 121 121 121 100 100 100 
100 100 100 81 81 81 61 61 67 61 61 67 136 116 85 175 142 119 121 121 121 100 100 100 119 103 79 136 116 85 175 142 119 216 175 147 216 175 147 175 142 119 136 116 85 100 100 100 
61 61 67 136 116 85 175 142 119 47 47 55 121 121 121 121 121 121 100 100 100 100 100 100 81 81 81 175 142 119 216 175 147 226 192 170 175 142 119 121 121 121 121 121 121 61 61 67 
121 121 121 121 121 121 136 116 85 119 103 79 81 81 81 61 61 67 61 61 67 47 47 55 61 61 67 100 100 100 121 121 121 121 121 121 121 121 121 100 100 100 100 100 100 121 121 121 
100 100 100 100 100 100 121 121 121 121 121 121 100 100 100 81 81 81 81 81 81 47 47 55 81 81 81 100 100 100 100 100 100 100 100 100 81 81 81 81 81 81 100 100 100 100 100 100 
