P3
16 16
255
121 121 121 100 100 100 81 81 81 81 81 81 81 81 81 81 81 81 61 61 67 61 61 67 100 100 100 100 100 100 100 100 100 81 81 81 81 81 81 61 61 67 81 81 81 81 81 81 
81 81 81 61 61 67 47 47 55 47 47 55 61 61 67 61 61 67 61 61 67 61 61 67 81 81 81 100 100 100 81 81 81 47 47 55 47 47 55 61 61 67 81 81 81 61 61 67 
100 100 100 47 47 55 58 118 99 58 118 99 121 121 121 61 61 67 47 47 55 47 47 55 61 61 67 61 61 67 47 47 55 224 115 77 193 103 70 121 121 121 61 61 67 61 61 67 
61 61 67 81 81 81 100 100 100 121 121 121 81 81 81 58 118 99 58 118 99 61 61 67 81 81 81 100 100 100 121 121 121 121 121 121 121 121 121 100 100 100 100 100 100 81 81 81 
47 47 55 61 61 67 81 81 81 81 81 81 58 118 99 129 128 88 224 115 77 193 103 70 129 128 88 100 100 100 100 100 100 121 121 121 100 100 100 100 100 100 81 81 81 61 61 67 
121 121 121 121 121 121 81 81 81 129 128 88 193 103 70 224 115 77 243 130 104 121 121 121 100 100 100 100 100 100 61 61 67 47 47 55 47 47 55 61 61 67 81 81 81 100 100 100 
121 121 121 100 100 100 100 100 100 81 81 81 121 121 121 121 121 121 121 121 121 61 61 67 81 81 81 61 61 67 47 47 55 129 128 88 129 128 88 47 47 55 61 61 67 81 81 81 
100 100 100 81 81 81 61 61 67 47 47 55 47 47 55 61 61 67 100 100 100 121 121 121 100 100 100 58 104 90 89 149 129 79 186 152 89 149 129 193 103 70 81 81 81 81 81 81 
81 81 81 61 61 67 47 47 55 58 118 99 129 128 88 61 61 67 81 81 81 121 121 121 100 100 100 81 81 81 58 104 90 89 149 129 129 128 88 224 115 77 193 103 70 121 121 121 
61 61 67 89 149 129 79 186 152 79 186 152 89 149 129 129 128 88 121 121 121 100 100 100 81 81 81 81 81 81 61 61 67 58 118 99 121 121 121 121 121 121 121 121 121 61 61 67 
100 100 100 81 81 81 58 118 99 89 149 129 121 121 121 121 121 121 81 81 81 61 61 67 61 61 67 47 47 55 47 47 55 121 121 121 81 81 81 81 81 81 100 100 100 121 121 121 
100 100 100 100 100 100 121 121 121 121 121 121 100 100 100 121 121 121 121 121 121 193 103 70 81 81 81 61 61 67 81 81 81 61 61 67 61 61 67 81 81 81 121 121 121 100 100 100 
100 100 100 81 81 81 61 61 67 61 61 67 81 81 81 58 118 99 129 128 88 224 115 77 243 130 104 193 103 70 61 61 67 61 61 67 61 61 67 81 81 81 100 100 100 100 100 100 
61 61 67 61 61 67 58 118 99 129 128 88 47 47 55 81 81 81 58 118 99 129 128 88 58 118 99 121 121 121 47 47 55 61 61 67 47 47 55 58 118 99 79 186 152 61 61 67 
121 121 121 121 121 121 100 100 100 100 100 100 81 81 81 61 61 67 61 61 67 121 121 121 121 121 121 100 100 100 100 100 100 81 81 81 81 81 81 121 121 121 121 121 121 121 121 121 
121 121 121 121 121 121 100 100 100 81 81 81 100 100 100 81 81 81 81 81 81 47 47 55 81 81 81 121 121 121 100 100 100 100 100 100 81 81 81 81 81 81 100 100 100 100 100 100 
