P3
16 16
255
153 128 67 153 128 67 144 117 64 144 117 64 153 128 67 153 128 67 144 117 64 144 117 64 144 117 64 144 117 64 133 107 58 144 117 64 170 141 74 153 128 67 133 107 58 144 117 64 
153 128 67 144 117 64 144 117 64 144 117 64 170 141 74 144 117 64 144 117 64 153 128 67 153 128 67 153 128 67 133 107 58 144 117 64 144 117 64 170 141 74 170 141 74 133 107 58 
144 117 64 144 117 64 170 141 74 170 141 74 153 128 67 144 117 64 144 117 64 144 117 64 133 107 58 153 128 67 144 117 64 170 141 74 144 117 64 144 117 64 144 117 64 133 107 58 
144 117 64 133 107 58 133 107 58 144 117 64 144 117 64 144 117 64 170 141 74 153 128 67 144 117 64 133 107 58 144 117 64 170 141 74 144 117 64 144 117 64 153 128 67 144 117 64 
144 117 64 153 128 67 144 117 64 144 117 64 153 128 67 153 128 67 133 107 58 170 141 74 144 117 64 133 107 58 153 128 67 144 117 64 153 128 67 133 107 58 144 117 64 144 117 64 
144 117 64 153 128 67 153 128 67 170 141 74 170 141 74 153 128 67 144 117 64 170 141 74 144 117 64 144 117 64 144 117 64 133 107 58 153 128 67 153 128 67 133 107 58 144 117 64 
144 117 64 144 117 64 144 117 64 144 117 64 144 117 64 153 128 67 144 117 64 144 117 64 133 107 58 170 141 74 153 128 67 133 107 58 144 117 64 144 117 64 133 107 58 170 141 74 
153 128 67 144 117 64 144 117 64 153 128 67 144 117 64 133 107 58 133 107 58 144 117 64 144 117 64 170 141 74 144 117 64 144 117 64 133 107 58 144 117 64 170 141 74 153 128 67 
153 128 67 144 117 64 133 107 58 153 128 67 144 117 64 153 128 67 144 117 64 153 128 67 170 141 74 153 128 67 153 128 67 144 117 64 144 117 64 153 128 67 170 141 74 144 117 64 
144 117 64 153 128 67 133 107 58 170 141 74 153 128 67 153 128 67 144 117 64 144 117 64 133 107 58 133 107 58 153 128 67 153 128 67 144 117 64 144 117 64 144 117 64 144 117 64 
153 128 67 153 128 67 153 128 67 170 141 74 153 128 67 144 117 64 144 117 64 144 117 64 144 117 64 144 117 64 144 117 64 153 128 67 144 117 64 170 141 74 170 141 74 144 117 64 
144 117 64 153 128 67 144 117 64 153 128 67 144 117 64 153 128 67 153 128 67 144 117 64 170 141 74 153 128 67 144 117 64 144 117 64 144 117 64 153 128 67 144 117 64 144 117 64 
144 117 64 170 141 74 153 128 67 144 117 64 144 117 64 144 117 64 153 128 67 153 128 67 144 117 64 170 141 74 170 141 74 153 128 67 144 117 64 144 117 64 144 117 64 153 128 67 
144 117 64 170 141 74 144 117 64 144 117 64 144 117 64 170 141 74 133 107 58 133 107 58 144 117 64 144 117 64 153 128 67 133 107 58 133 107 58 153 128 67 153 128 67 144 117 64 
144 117 64 153 128 67 144 117 64 144 117 64 170 141 74 153 128 67 153 128 67 144 117 64 144 117 64 153 128 67 133 107 58 144 117 64 144 117 64 153 128 67 144 117 64 153 128 67 
144 117 64 144 117 64 144 117 64 153 128 67 170 141 74 144 117 64 144 117 64 153 128 67 144 117 64 144 117 64 144 117 64 144 117 64 153 128 67 144 117 64 144 117 64 144 117 64 
