P3
16 16
255
255 255 255 255 255 255 255 255 255 255 255 255 255 255 255 255 255 255 255 255 255 255 255 255 255 255 255 255 255 255 255 255 255 255 255 255 255 255 255 255 255 255 255 255 255 255 255 255 
255 255 255 255 255 255 255 255 255 255 255 255 255 255 255 255 255 255 255 255 255 255 255 255 255 255 255 255 255 255 255 255 255 255 255 255 255 255 255 255 255 255 255 255 255 255 255 255 
255 255 255 255 255 255 255 255 255 255 255 255 255 255 255 255 255 255 255 255 255 255 255 255 255 255 255 255 255 255 255 255 255 255 255 255 255 255 255 255 255 255 255 255 255 255 255 255 
255 255 255 255 255 255 255 255 255 255 255 255 255 255 255 255 255 255 255 255 255 255 255 255 255 255 255 255 255 255 255 255 255 255 255 255 255 255 255 255 255 255 255 255 255 255 255 255 
255 255 255 195 251 241 195 251 241 44 205 177 107 0 47 107 0 47 107 0 47 107 0 47 107 0 47 107 0 47 107 0 47 107 0 47 44 205 177 195 251 241 195 251 241 255 255 255 
195 251 241 162 246 231 162 246 231 74 237 209 107 0 47 127 7 40 162 41 41 162 41 41 162 41 41 162 41 41 127 7 40 107 0 47 74 237 209 162 246 231 162 246 231 195 251 241 
195 251 241 162 246 231 162 246 231 74 237 209 0 0 1 107 0 47 162 41 41 162 41 41 162 41 41 162 41 41 107 0 47 0 0 1 74 237 209 162 246 231 162 246 231 195 251 241 
44 205 177 74 237 209 74 237 209 16 12 28 0 0 1 0 0 1 107 0 47 162 41 41 162 41 41 107 0 47 0 0 1 0 0 1 16 12 28 74 237 209 74 237 209 44 205 177 
0 0 1 0 0 1 16 12 28 39 30 61 16 12 28 16 12 28 0 0 1 107 0 47 107 0 47 6 3 11 16 12 28 16 12 28 39 30 61 16 12 28 16 12 28 16 12 28 
39 30 61 16 12 28 0 0 1 0 0 1 16 12 28 6 3 11 39 30 61 39 30 61 16 12 28 6 3 11 0 0 1 16 12 28 6 3 11 16 12 28 6 3 11 6 3 11 
16 12 28 6 3 11 6 3 11 0 0 1 6 3 11 6 3 11 6 3 11 16 12 28 6 3 11 6 3 11 0 0 1 0 0 1 16 12 28 6 3 11 0 0 1 39 30 61 
0 0 1 16 12 28 6 3 11 6 3 11 16 12 28 0 0 1 6 3 11 16 12 28 6 3 11 59 39 84 59 39 84 39 30 61 16 12 28 16 12 28 16 12 28 16 12 28 
6 3 11 59 39 84 59 39 84 16 12 28 0 0 1 16 12 28 16 12 28 16 12 28 39 30 61 59 39 84 16 12 28 6 3 11 16 12 28 59 39 84 16 12 28 6 3 11 
39 30 61 39 30 61 16 12 28 6 3 11 6 3 11 6 3 11 0 0 1 16 12 28 16 12 28 16 12 28 6 3 11 6 3 11 6 3 11 0 0 1 39 30 61 6 3 11 
0 0 1 39 30 61 6 3 11 6 3 11 16 12 28 6 3 11 39 30 61 6 3 11 6 3 11 16 12 28 16 12 28 0 0 1 6 3 11 0 0 1 0 0 1 6 3 11 
16 12 28 6 3 11 0 0 1 16 12 28 0 0 1 6 3 11 16 12 28 39 30 61 16 12 28 0 0 1 6 3 11 6 3 11 6 3 11 6 3 11 6 3 11 6 3 11 
