P3
16 16
255
255 255 255 195 251 241 195 251 241 44 205 177 107 0 47 107 0 47 107 0 47 107 0 47 107 0 47 107 0 47 107 0 47 107 0 47 44 205 177 195 251 241 195 251 241 255 255 255 
195 251 241 162 246 231 162 246 231 74 237 209 127 7 40 162 41 41 162 41 41 162 41 41 162 41 41 162 41 41 162 41 41 127 7 40 74 237 209 162 246 231 162 246 231 195 251 241 
195 251 241 162 246 231 162 246 231 74 237 209 127 7 40 162 41 41 162 41 41 162 41 41 162 41 41 162 41 41 162 41 41 127 7 40 74 237 209 162 246 231 162 246 231 195 251 241 
44 205 177 74 237 209 74 237 209 127 7 40 162 41 41 162 41 41 162 41 41 116 29 50 116 29 50 162 41 41 162 41 41 162 41 41 127 7 40 74 237 209 74 237 209 44 205 177 
107 0 47 127 7 40 127 7 40 162 41 41 162 41 41 116 29 50 88 22 44 88 22 44 88 22 44 88 22 44 116 29 50 162 41 41 162 41 41 127 7 40 127 7 40 107 0 47 
107 0 47 162 41 41 162 41 41 162 41 41 116 29 50 88 22 44 88 22 44 88 22 44 88 22 44 88 22 44 88 22 44 116 29 50 162 41 41 162 41 41 162 41 41 107 0 47 
107 0 47 162 41 41 162 41 41 162 41 41 88 22 44 88 22 44 88 22 44 88 22 44 88 22 44 88 22 44 88 22 44 88 22 44 162 41 41 162 41 41 162 41 41 107 0 47 
107 0 47 162 41 41 162 41 41 116 29 50 88 22 44 88 22 44 88 22 44 88 22 44 88 22 44 88 22 44 88 22 44 88 22 44 116 29 50 162 41 41 162 41 41 107 0 47 
107 0 47 162 41 41 162 41 41 116 29 50 88 22 44 88 22 44 88 22 44 88 22 44 88 22 44 88 22 44 88 22 44 88 22 44 116 29 50 162 41 41 162 41 41 107 0 47 
107 0 47 162 41 41 162 41 41 162 41 41 88 22 44 88 22 44 88 22 44 88 22 44 88 22 44 88 22 44 88 22 44 88 22 44 162 41 41 162 41 41 162 41 41 107 0 47 
107 0 47 162 41 41 162 41 41 162 41 41 116 29 50 88 22 44 88 22 44 88 22 44 88 22 44 88 22 44 88 22 44 116 29 50 162 41 41 162 41 41 162 41 41 107 0 47 
107 0 47 127 7 40 127 7 40 162 41 41 162 41 41 116 29 50 88 22 44 88 22 44 88 22 44 88 22 44 116 29 50 162 41 41 162 41 41 127 7 40 127 7 40 107 0 47 
44 205 177 74 237 209 74 237 209 127 7 40 162 41 41 162 41 41 162 41 41 116 29 50 116 29 50 162 41 41 162 41 41 162 41 41 127 7 40 74 237 209 74 237 209 44 205 177 
195 251 241 162 246 231 162 246 231 74 237 209 127 7 40 162 41 41 162 41 41 162 41 41 162 41 41 162 41 41 162 41 41 127 7 40 74 237 209 162 246 231 162 246 231 195 251 241 
195 251 241 162 246 231 162 246 231 74 237 209 127 7 40 162 41 41 162 41 41 162 41 41 162 41 41 162 41 41 162 41 41 127 7 40 74 237 209 162 246 231 162 246 231 195 251 241 
255 255 255 195 251 241 195 251 241 44 205 177 107 0 47 107 0 47 107 0 47 107 0 47 107 0 47 107 0 47 107 0 47 107 0 47 44 205 177 195 251 241 195 251 241 255 255 255 
