P3
16 16
255
200 183 122 200 183 122 215 193 133 215 193 133 215 193 133 228 205 142 228 205 142 228 205 142 215 193 133 228 205 142 228 205 142 215 193 133 215 193 133 215 193 133 215 193 133 174 159 118 
215 193 133 184 168 117 174 159 118 184 168 117 184 168 117 174 159 118 174 159 118 184 168 117 184 168 117 184 168 117 174 159 118 184 168 117 174 159 118 174 159 118 184 168 117 184 168 117 
215 193 133 184 168 117 228 205 142 255 255 255 228 205 142 228 205 142 215 193 133 228 205 142 215 193 133 200 183 122 215 193 133 200 183 122 215 193 133 200 183 122 174 159 118 174 159 118 
174 159 118 174 159 118 184 168 117 255 255 255 211 211 211 184 168 117 184 168 117 174 159 118 184 168 117 184 168 117 174 159 118 174 159 118 174 159 118 200 183 122 184 168 117 158 139 97 
215 193 133 174 159 118 255 255 255 190 190 190 255 255 255 228 205 142 228 205 142 228 205 142 215 193 133 228 205 142 228 205 142 215 193 133 174 159 118 215 193 133 184 168 117 200 183 122 
215 193 133 184 168 117 255 255 255 150 150 150 211 211 211 174 159 118 215 193 133 215 193 133 215 193 133 215 193 133 215 193 133 215 193 133 184 168 117 200 183 122 174 159 118 215 193 133 
215 193 133 184 168 117 211 211 211 190 190 190 255 255 255 174 159 118 215 193 133 215 193 133 215 193 133 215 193 133 215 193 133 215 193 133 184 168 117 215 193 133 184 168 117 215 193 133 
158 139 97 184 168 117 255 255 255 150 150 150 211 211 211 174 159 118 215 193 133 215 193 133 215 193 133 215 193 133 215 193 133 215 193 133 184 168 117 215 193 133 184 168 117 165 148 103 
200 183 122 184 168 117 255 255 255 150 150 150 255 255 255 174 159 118 215 193 133 215 193 133 215 193 133 215 193 133 215 193 133 228 205 142 184 168 117 255 255 255 255 255 255 174 159 118 
215 193 133 174 159 118 211 211 211 150 150 150 190 190 190 174 159 118 215 193 133 215 193 133 215 193 133 215 193 133 215 193 133 228 205 142 255 255 255 216 216 216 174 159 118 174 159 118 
228 205 142 174 159 118 174 159 118 150 150 150 174 159 118 184 168 117 215 193 133 228 205 142 215 193 133 228 205 142 228 205 142 255 255 255 216 216 216 184 168 117 184 168 117 184 168 117 
158 139 97 184 168 117 200 183 122 174 159 118 150 150 150 184 168 117 184 168 117 184 168 117 174 159 118 184 168 117 73 54 21 216 216 216 184 168 117 215 193 133 184 168 117 158 139 97 
215 193 133 184 168 117 200 183 122 228 205 142 228 205 142 228 205 142 215 193 133 228 205 142 184 168 117 73 54 21 104 78 30 184 168 117 215 193 133 228 205 142 184 168 117 215 193 133 
200 183 122 184 168 117 184 168 117 184 168 117 184 168 117 174 159 118 184 168 117 184 168 117 184 168 117 104 78 30 174 159 118 174 159 118 174 159 118 184 168 117 184 168 117 200 183 122 
215 193 133 215 193 133 215 193 133 215 193 133 215 193 133 215 193 133 215 193 133 184 168 117 228 205 142 184 168 117 184 168 117 215 193 133 215 193 133 215 193 133 215 193 133 215 193 133 
158 139 97 158 139 97 158 139 97 158 139 97 165 148 103 165 148 103 174 159 118 174 159 118 174 159 118 165 148 103 165 148 103 165 148 103 158 139 97 165 148 103 158 139 97 158 139 97 
