P3
16 16
255
160 194 252 160 194 252 160 194 252 160 194 252 174 203 254 218 232 255 185 210 255 174 203 254 174 203 254 160 194 252 160 194 252 160 194 252 185 210 255 185 210 255 185 210 255 160 194 252 
160 194 252 160 194 252 160 194 252 174 203 254 185 210 255 185 210 255 174 203 254 174 203 254 160 194 252 160 194 252 160 194 252 174 203 254 185 210 255 174 203 254 160 194 252 160 194 252 
160 194 252 160 194 252 174 203 254 185 210 255 174 203 254 174 203 254 174 203 254 174 203 254 174 203 254 160 194 252 174 203 254 185 210 255 174 203 254 160 194 252 160 194 252 160 194 252 
174 203 254 174 203 254 160 194 252 174 203 254 174 203 254 128 175 253 174 203 254 174 203 254 160 194 252 174 203 254 174 203 254 174 203 254 160 194 252 160 194 252 160 194 252 160 194 252 
174 203 254 160 194 252 160 194 252 160 194 252 153 190 254 164 196 254 128 175 253 160 194 252 160 194 252 160 194 252 125 172 251 150 187 253 160 194 252 160 194 252 174 203 254 174 203 254 
160 194 252 160 194 252 160 194 252 174 203 254 174 203 254 128 175 253 161 194 254 122 170 252 148 187 253 160 194 252 125 172 251 174 203 254 174 203 254 174 203 254 185 210 255 185 210 255 
160 194 252 160 194 252 174 203 254 174 203 254 160 194 252 161 194 254 148 187 253 108 158 244 160 194 252 110 160 244 164 196 254 174 203 254 131 177 253 167 199 255 174 203 254 160 194 252 
160 194 252 160 194 252 160 194 252 160 194 252 125 172 251 160 194 252 160 194 252 150 187 253 110 160 244 164 196 254 113 162 244 116 164 245 177 205 255 185 210 255 174 203 254 160 194 252 
160 194 252 174 203 254 174 203 254 160 194 252 161 194 254 128 175 253 110 160 244 160 194 252 110 160 244 110 160 244 167 199 255 165 197 255 185 210 255 174 203 254 174 203 254 160 194 252 
174 203 254 174 203 254 174 203 254 174 203 254 174 203 254 164 196 254 161 194 254 110 160 244 161 194 254 167 199 255 123 168 245 185 210 255 128 175 253 174 203 254 160 194 252 160 194 252 
174 203 254 174 203 254 174 203 254 185 210 255 174 203 254 125 172 251 110 160 244 161 194 254 174 203 254 185 210 255 164 196 254 113 162 244 174 203 254 161 194 254 160 194 252 174 203 254 
174 203 254 185 210 255 185 210 255 174 203 254 160 194 252 150 187 253 161 194 254 128 175 253 185 210 255 174 203 254 110 160 244 164 196 254 128 175 253 160 194 252 160 194 252 174 203 254 
185 210 255 185 210 255 174 203 254 160 194 252 161 194 254 148 187 253 160 194 252 128 175 253 160 194 252 160 194 252 161 194 254 174 203 254 160 194 252 160 194 252 174 203 254 174 203 254 
214 229 255 185 210 255 160 194 252 160 194 252 148 187 253 148 187 253 160 194 252 160 194 252 125 172 251 174 203 254 160 194 252 160 194 252 160 194 252 174 203 254 174 203 254 174 203 254 
185 210 255 160 194 252 160 194 252 148 187 253 148 187 253 160 194 252 160 194 252 174 203 254 185 210 255 174 203 254 160 194 252 160 194 252 160 194 252 160 194 252 185 210 255 214 229 255 
160 194 252 160 194 252 160 194 252 160 194 252 160 194 252 174 203 254 218 232 255 185 210 255 174 203 254 160 194 252 160 194 252 160 194 252 160 194 252 185 210 255 218 232 255 185 210 255 
