P3
16 16
255
80 78 78 80 78 78 80 78 78 80 78 78 60 59 59 80 78 78 80 78 78 80 78 78 60 59 59 60 59 59 60 59 59 80 78 78 60 59 59 60 59 59 80 78 78 80 78 78 
80 78 78 93 91 91 104 104 104 104 104 104 119 119 119 104 104 104 133 133 133 119 119 119 104 104 104 104 104 104 104 104 104 119 119 119 104 104 104 104 104 104 93 91 91 80 78 78 
80 78 78 93 91 91 119 119 119 145 145 145 145 145 145 93 91 91 104 104 104 93 91 91 133 133 133 133 133 133 119 119 119 104 104 104 133 133 133 133 133 133 119 119 119 80 78 78 
80 78 78 104 104 104 133 133 133 133 133 133 133 133 133 145 145 145 93 91 91 104 104 104 119 119 119 145 145 145 133 133 133 133 133 133 104 104 104 133 133 133 133 133 133 80 78 78 
80 78 78 93 91 91 119 119 119 133 133 133 133 133 133 119 119 119 93 91 91 119 119 119 104 104 104 133 133 133 145 145 145 133 133 133 93 91 91 119 119 119 104 104 104 60 59 59 
60 59 59 93 91 91 93 91 91 104 104 104 104 104 104 93 91 91 133 133 133 145 145 145 133 133 133 104 104 104 119 119 119 133 133 133 104 104 104 80 78 78 80 78 78 60 59 59 
80 78 78 104 104 104 145 145 145 145 145 145 119 119 119 104 104 104 133 133 133 133 133 133 145 145 145 133 133 133 104 104 104 104 104 104 119 119 119 119 119 119 93 91 91 80 78 78 
60 59 59 119 119 119 133 133 133 133 133 133 145 145 145 104 104 104 133 133 133 133 133 133 119 119 119 93 91 91 145 145 145 133 133 133 133 133 133 133 133 133 119 119 119 60 59 59 
60 59 59 104 104 104 119 119 119 119 119 119 104 104 104 93 91 91 93 91 91 119 119 119 93 91 91 145 145 145 133 133 133 133 133 133 133 133 133 119 119 119 104 104 104 80 78 78 
80 78 78 197 197 197 176 176 176 197 197 197 197 197 197 197 197 197 197 197 197 197 197 197 197 197 197 197 197 197 197 197 197 197 197 197 197 197 197 197 197 197 168 168 168 80 78 78 
80 78 78 157 157 157 168 168 168 168 168 168 176 176 176 168 168 168 176 176 176 176 176 176 176 176 176 176 176 176 176 176 176 176 176 176 157 157 157 176 176 176 157 157 157 60 59 59 
60 59 59 157 157 157 157 157 157 168 168 168 168 168 168 168 168 168 168 168 168 168 168 168 168 168 168 168 168 168 168 168 168 168 168 168 168 168 168 168 168 168 145 145 145 80 78 78 
60 59 59 145 145 145 157 157 157 157 157 157 157 157 157 157 157 157 168 168 168 157 157 157 168 168 168 168 168 168 168 168 168 168 168 168 168 168 168 157 157 157 145 145 145 80 78 78 
80 78 78 127 127 127 145 145 145 157 157 157 145 145 145 157 157 157 157 157 157 157 157 157 157 157 157 168 168 168 157 157 157 145 145 145 157 157 157 145 145 145 127 127 127 80 78 78 
80 78 78 104 104 104 104 104 104 119 119 119 119 119 119 104 104 104 119 119 119 119 119 119 119 119 119 119 119 119 119 119 119 119 119 119 104 104 104 104 104 104 104 104 104 80 78 78 
80 78 78 80 78 78 80 78 78 80 78 78 60 59 59 80 78 78 80 78 78 80 78 78 60 59 59 60 59 59 60 59 59 60 59 59 80 78 78 80 78 78 80 78 78 80 78 78 
