P3
16 16
255
49 44 54 39 34 28 39 34 28 32 19 28 32 19 28 22 15 16 49 44 54 32 19 28 22 15 16 39 34 28 49 44 54 60 57 71 49 44 54 69 27 3 69 27 3 49 44 54 
39 34 28 49 44 54 218 145 15 126 69 14 69 27 3 49 44 54 32 19 28 32 19 28 49 44 54 49 44 54 49 44 54 60 57 71 60 57 71 49 44 54 69 27 3 32 19 28 
22 15 16 218 145 15 39 34 28 39 34 28 39 34 28 32 19 28 32 19 28 39 34 28 49 44 54 218 145 15 252 238 75 60 57 71 60 57 71 39 34 28 32 19 28 22 15 16 
126 69 14 39 34 28 49 44 54 49 44 54 49 44 54 39 34 28 32 19 28 49 44 54 60 57 71 60 57 71 126 69 14 252 238 75 39 34 28 32 19 28 39 34 28 22 15 16 
39 34 28 49 44 54 49 44 54 60 57 71 60 57 71 60 57 71 39 34 28 32 19 28 49 44 54 78 75 84 78 75 84 39 34 28 126 69 14 32 19 28 39 34 28 69 27 3 
60 57 71 60 57 71 60 57 71 60 57 71 78 75 84 49 44 54 39 34 28 39 34 28 32 19 28 32 19 28 60 57 71 32 19 28 69 27 3 39 34 28 22 15 16 69 27 3 
49 44 54 60 57 71 78 75 84 78 75 84 49 44 54 22 15 16 39 34 28 69 27 3 39 34 28 32 19 28 39 34 28 22 15 16 69 27 3 49 44 54 32 19 28 39 34 28 
49 44 54 49 44 54 39 34 28 32 19 28 22 15 16 69 27 3 126 69 14 49 44 54 49 44 54 39 34 28 39 34 28 49 44 54 60 57 71 32 19 28 32 19 28 39 34 28 
49 44 54 49 44 54 39 34 28 32 19 28 32 19 28 39 34 28 49 44 54 60 57 71 49 44 54 32 19 28 218 145 15 126 69 14 69 27 3 39 34 28 32 19 28 39 34 28 
39 34 28 39 34 28 32 19 28 32 19 28 39 34 28 32 19 28 32 19 28 39 34 28 32 19 28 69 27 3 32 19 28 39 34 28 49 44 54 49 44 54 39 34 28 69 27 3 
32 19 28 39 34 28 39 34 28 49 44 54 126 69 14 218 145 15 22 15 16 32 19 28 49 44 54 60 57 71 60 57 71 60 57 71 60 57 71 60 57 71 49 44 54 126 69 14 
39 34 28 49 44 54 60 57 71 60 57 71 49 44 54 39 34 28 252 238 75 22 15 16 49 44 54 49 44 54 78 75 84 78 75 84 60 57 71 49 44 54 39 34 28 218 145 15 
49 44 54 49 44 54 60 57 71 60 57 71 60 57 71 49 44 54 218 145 15 32 19 28 39 34 28 32 19 28 49 44 54 49 44 54 39 34 28 32 19 28 126 69 14 39 34 28 
60 57 71 60 57 71 60 57 71 78 75 84 49 44 54 22 15 16 22 15 16 126 69 14 39 34 28 32 19 28 32 19 28 49 44 54 32 19 28 69 27 3 69 27 3 49 44 54 
60 57 71 78 75 84 78 75 84 49 44 54 32 19 28 22 15 16 22 15 16 69 27 3 22 15 16 39 34 28 32 19 28 39 34 28 32 19 28 32 19 28 39 34 28 60 57 71 
39 34 28 39 34 28 49 44 54 32 19 28 22 15 16 22 15 16 22 15 16 39 34 28 32 19 28 22 15 16 39 34 28 39 34 28 69 27 3 39 34 28 39 34 28 49 44 54 
