P3
16 16
255
41 36 34 49 44 40 49 44 40 54 50 47 54 50 47 54 50 47 54 50 47 54 50 47 54 50 47 49 44 40 49 44 40 49 44 40 49 44 40 49 44 40 49 44 40 39 34 32 
49 44 40 115 64 41 115 64 41 115 64 41 115 64 41 115 64 41 115 64 41 115 64 41 115 64 41 123 68 41 123 68 41 115 64 41 115 64 41 123 68 41 115 64 41 49 44 40 
49 44 40 131 72 41 123 68 41 123 68 41 123 68 41 123 68 41 131 72 41 115 64 41 115 64 41 148 76 41 148 76 41 131 72 41 131 72 41 148 76 41 131 72 41 49 44 40 
54 50 47 123 68 41 131 72 41 131 72 41 192 118 61 192 118 61 162 97 47 162 97 47 123 68 41 162 97 47 192 118 61 192 118 61 131 72 41 131 72 41 123 68 41 49 44 40 
54 50 47 115 64 41 162 97 47 192 118 61 192 118 61 233 165 91 233 165 91 192 118 61 192 118 61 233 165 91 233 165 91 192 118 61 192 118 61 162 97 47 131 72 41 49 44 40 
54 50 47 123 68 41 162 97 47 192 118 61 233 165 91 233 165 91 255 209 128 255 209 128 255 209 128 255 209 128 233 165 91 233 165 91 192 118 61 162 97 47 115 64 41 49 44 40 
54 50 47 131 72 41 192 118 61 233 165 91 233 165 91 255 209 128 255 209 128 255 251 168 255 251 168 255 209 128 255 209 128 233 165 91 233 165 91 192 118 61 131 72 41 54 50 47 
54 50 47 131 72 41 192 118 61 233 165 91 255 209 128 255 209 128 255 251 168 255 253 212 255 253 212 255 251 168 255 209 128 255 209 128 233 165 91 192 118 61 123 68 41 54 50 47 
54 50 47 131 72 41 192 118 61 233 165 91 255 209 128 255 209 128 255 251 168 255 253 212 255 253 212 255 251 168 255 209 128 255 209 128 233 165 91 192 118 61 131 72 41 54 50 47 
49 44 40 115 64 41 192 118 61 233 165 91 233 165 91 255 209 128 255 209 128 255 251 168 255 251 168 255 209 128 255 209 128 233 165 91 233 165 91 192 118 61 115 64 41 54 50 47 
49 44 40 123 68 41 162 97 47 192 118 61 233 165 91 233 165 91 255 209 128 255 209 128 255 209 128 255 209 128 233 165 91 233 165 91 192 118 61 162 97 47 123 68 41 54 50 47 
49 44 40 123 68 41 162 97 47 192 118 61 192 118 61 233 165 91 233 165 91 192 118 61 192 118 61 233 165 91 233 165 91 192 118 61 192 118 61 131 72 41 123 68 41 54 50 47 
49 44 40 123 68 41 148 76 41 162 97 47 192 118 61 192 118 61 162 97 47 123 68 41 162 97 47 162 97 47 192 118 61 192 118 61 148 76 41 148 76 41 131 72 41 54 50 47 
49 44 40 123 68 41 131 72 41 148 76 41 148 76 41 123 68 41 123 68 41 115 64 41 115 64 41 148 76 41 131 72 41 123 68 41 123 68 41 123 68 41 115 64 41 49 44 40 
49 44 40 115 64 41 115 64 41 115 64 41 115 64 41 131 72 41 131 72 41 115 64 41 131 72 41 131 72 41 115 64 41 123 68 41 131 72 41 131 72 41 123 68 41 49 44 40 
41 36 34 49 44 40 49 44 40 53 44 41 51 45 42 51 45 42 49 44 40 49 44 40 54 50 47 54 50 47 54 50 47 54 50 47 54 50 47 54 50 47 49 44 40 41 36 34 
