P3
16 16
255
255 255 255 115 146 133 113 134 126 110 126 120 255 255 255 255 255 255 255 255 255 255 255 255 110 126 120 255 255 255 99 117 110 255 255 255 113 134 126 110 126 120 255 255 255 255 255 255 
255 255 255 110 126 120 99 117 110 110 126 120 255 255 255 255 255 255 255 255 255 255 255 255 255 255 255 110 126 120 115 146 133 113 134 126 255 255 255 113 134 126 99 117 110 255 255 255 
99 117 110 99 117 110 255 255 255 174 175 140 115 146 133 113 134 126 255 255 255 255 255 255 255 255 255 113 134 126 110 126 120 99 117 110 255 255 255 110 126 120 174 175 140 110 126 120 
255 255 255 255 255 255 113 134 126 115 146 133 255 255 255 110 126 120 255 255 255 255 255 255 255 255 255 255 255 255 255 255 255 110 126 120 255 255 255 255 255 255 113 134 126 255 255 255 
110 126 120 110 126 120 255 255 255 113 134 126 255 255 255 99 117 110 110 126 120 255 255 255 255 255 255 255 255 255 255 255 255 113 134 126 110 126 120 255 255 255 255 255 255 255 255 255 
255 255 255 255 255 255 255 255 255 255 255 255 255 255 255 115 146 133 113 134 126 99 117 110 110 126 120 255 255 255 255 255 255 115 146 133 113 134 126 255 255 255 255 255 255 255 255 255 
255 255 255 255 255 255 255 255 255 255 255 255 255 255 255 113 134 126 255 255 255 255 255 255 174 175 140 113 134 126 110 126 120 255 255 255 255 255 255 110 126 120 113 134 126 255 255 255 
255 255 255 255 255 255 99 117 110 99 117 110 255 255 255 110 126 120 255 255 255 255 255 255 99 117 110 255 255 255 255 255 255 255 255 255 255 255 255 255 255 255 113 134 126 110 126 120 
255 255 255 110 126 120 255 255 255 255 255 255 255 255 255 255 255 255 110 126 120 99 117 110 99 117 110 255 255 255 255 255 255 255 255 255 255 255 255 255 255 255 255 255 255 99 117 110 
255 255 255 174 175 140 110 126 120 255 255 255 255 255 255 255 255 255 255 255 255 255 255 255 110 126 120 255 255 255 255 255 255 113 134 126 110 126 120 255 255 255 255 255 255 255 255 255 
255 255 255 255 255 255 113 134 126 255 255 255 115 146 133 255 255 255 255 255 255 255 255 255 113 134 126 115 146 133 255 255 255 110 126 120 99 117 110 110 126 120 255 255 255 255 255 255 
255 255 255 255 255 255 110 126 120 115 146 133 255 255 255 113 134 126 110 126 120 255 255 255 255 255 255 113 134 126 113 134 126 174 175 140 99 117 110 113 134 126 255 255 255 255 255 255 
255 255 255 255 255 255 255 255 255 113 134 126 255 255 255 255 255 255 255 255 255 99 117 110 255 255 255 255 255 255 110 126 120 110 126 120 99 117 110 255 255 255 255 255 255 255 255 255 
110 126 120 255 255 255 255 255 255 174 175 140 99 117 110 255 255 255 255 255 255 255 255 255 255 255 255 110 126 120 255 255 255 255 255 255 255 255 255 255 255 255 255 255 255 110 126 120 
255 255 255 255 255 255 255 255 255 99 117 110 255 255 255 255 255 255 99 117 110 110 126 120 99 117 110 255 255 255 255 255 255 255 255 255 113 134 126 115 146 133 255 255 255 110 126 120 
255 255 255 255 255 255 110 126 120 255 255 255 255 255 255 99 117 110 255 255 255 99 117 110 110 126 120 255 255 255 255 255 255 255 255 255 255 255 255 113 134 126 110 126 120 255 255 255 
