P3
16 16
255
71 79 82 54 57 61 54 57 61 153 153 153 157 157 157 54 57 61 91 108 113 91 108 113 51 54 57 81 90 94 91 108 113 100 118 123 71 79 82 71 79 82 54 57 61 54 57 61 
54 57 61 54 57 61 149 149 149 153 153 153 91 108 113 96 114 119 91 108 113 51 54 57 51 54 57 81 90 94 96 114 119 100 118 123 71 79 82 71 79 82 54 57 61 54 57 61 
54 57 61 157 157 157 153 153 153 81 90 94 71 79 82 54 57 61 54 57 61 54 57 61 54 57 61 71 79 82 96 114 119 96 114 119 74 82 85 71 79 82 71 79 82 71 79 82 
153 153 153 153 153 153 81 90 94 71 79 82 71 79 82 54 57 61 61 64 69 69 77 80 71 79 82 71 79 82 69 77 80 91 108 113 96 114 119 74 82 85 71 79 82 71 79 82 
153 153 153 54 57 61 71 79 82 67 74 78 74 82 85 51 54 57 51 54 57 67 74 78 71 79 82 51 54 57 51 54 57 71 79 82 91 108 113 91 108 113 91 108 113 96 114 119 
54 57 61 54 57 61 71 79 82 81 90 94 81 90 94 54 57 61 51 54 57 54 57 61 54 57 61 51 54 57 51 54 57 51 54 57 67 74 78 91 108 113 100 118 123 91 108 113 
54 57 61 91 108 113 91 108 113 96 114 119 96 114 119 157 157 157 157 157 157 71 79 82 61 64 69 54 57 61 54 57 61 51 54 57 71 79 82 67 74 78 67 74 78 81 90 94 
91 108 113 91 108 113 96 114 119 91 108 113 91 108 113 157 157 157 153 153 153 153 153 153 149 149 149 54 57 61 54 57 61 81 90 94 67 74 78 54 57 61 54 57 61 54 57 61 
91 108 113 54 57 61 54 57 61 71 79 82 91 108 113 100 118 123 153 153 153 54 57 61 153 153 153 71 79 82 54 57 61 74 82 85 74 82 85 54 57 61 61 64 69 149 149 149 
54 57 61 54 57 61 54 57 61 54 57 61 71 79 82 91 108 113 153 153 153 149 149 149 153 153 153 157 157 157 51 54 57 51 54 57 51 54 57 54 57 61 149 149 149 153 153 153 
54 57 61 71 79 82 91 108 113 54 57 61 54 57 61 91 108 113 91 108 113 100 118 123 153 153 153 153 153 153 51 54 57 54 57 61 54 57 61 61 64 69 157 157 157 54 57 61 
71 79 82 91 108 113 100 118 123 71 79 82 54 57 61 51 54 57 71 79 82 91 108 113 96 114 119 91 108 113 81 90 94 71 79 82 67 74 78 67 74 78 149 149 149 81 90 94 
91 108 113 91 108 113 91 108 113 91 108 113 71 79 82 51 54 57 51 54 57 71 79 82 91 108 113 96 114 119 74 82 85 67 74 78 71 79 82 81 90 94 157 157 157 71 79 82 
91 108 113 71 79 82 71 79 82 91 108 113 91 108 113 91 108 113 51 54 57 51 54 57 91 108 113 153 153 153 153 153 153 157 157 157 149 149 149 157 157 157 157 157 157 54 57 61 
71 79 82 67 74 78 71 79 82 100 118 123 91 108 113 71 79 82 51 54 57 54 57 61 153 153 153 153 153 153 61 64 69 51 54 57 67 74 78 71 79 82 54 57 61 54 57 61 
71 79 82 71 79 82 91 108 113 91 108 113 71 79 82 54 57 61 54 57 61 157 157 157 153 153 153 61 64 69 54 57 61 67 74 78 71 79 82 54 57 61 54 57 61 71 79 82 
