P3
16 16
255
57 61 65 59 63 67 56 60 64 57 61 65 62 67 70 67 73 76 58 62 65 58 63 66 65 71 74 66 72 75 55 58 62 57 60 64 63 68 72 63 68 72 57 60 64 56 59 63 
62 67 71 64 70 73 71 79 82 71 79 82 68 75 78 66 72 75 60 65 69 60 65 68 57 61 65 56 59 63 58 63 66 60 65 68 54 57 61 56 59 63 59 63 67 61 66 69 
68 75 78 69 76 79 60 65 68 61 66 70 70 78 81 69 76 79 63 69 72 60 65 68 66 72 75 69 76 79 65 72 75 65 72 75 70 78 81 71 79 82 66 72 75 64 70 73 
62 67 71 59 63 67 66 73 76 69 76 79 60 65 68 59 64 67 62 67 70 69 76 79 58 62 65 60 65 69 69 76 79 69 76 79 62 67 71 59 63 67 71 79 82 68 75 78 
64 70 73 61 66 69 58 62 65 62 67 71 67 73 76 66 73 76 55 58 62 54 58 62 59 63 66 63 68 72 58 63 66 56 60 63 67 73 76 67 73 76 57 60 64 55 58 62 
56 59 63 55 58 62 58 62 66 69 76 79 58 62 65 54 58 62 57 61 65 59 63 67 58 62 65 54 58 62 59 63 67 60 65 68 55 59 63 58 63 66 57 61 65 60 64 68 
71 79 82 71 79 82 67 74 77 66 73 76 62 67 70 62 67 70 61 66 69 63 68 72 68 75 78 71 79 82 65 71 74 60 65 69 71 79 82 71 79 82 66 72 75 63 69 72 
59 63 67 59 63 67 71 79 82 71 79 82 66 72 75 65 71 74 69 76 79 68 75 78 57 61 65 58 63 66 66 73 76 69 76 79 65 71 74 64 70 73 69 76 79 68 75 78 
66 72 75 65 72 75 56 59 63 59 63 66 68 75 78 65 71 74 58 62 65 59 64 67 59 63 66 60 65 68 58 63 66 55 59 63 62 67 70 60 65 69 56 60 64 56 60 63 
59 63 66 60 65 69 60 64 68 68 75 78 55 58 62 55 58 62 60 65 69 64 70 73 58 62 65 64 70 73 71 79 82 71 79 82 61 66 70 65 72 75 71 79 82 71 79 82 
68 75 78 69 76 79 66 72 75 66 72 75 71 79 82 69 76 79 66 72 75 65 71 74 69 76 79 68 75 78 60 65 68 63 68 72 64 70 73 62 67 70 57 60 64 62 67 71 
57 60 64 58 62 65 64 70 73 64 70 73 59 63 67 59 64 67 67 73 76 65 72 75 57 61 65 58 62 65 59 63 66 64 70 73 55 58 62 55 58 62 60 64 68 64 70 73 
59 64 67 59 63 67 55 58 62 55 58 62 68 75 78 70 78 81 56 60 63 54 58 62 62 67 70 67 73 76 63 68 72 65 72 75 71 79 82 71 79 82 64 70 73 55 59 63 
65 72 75 65 71 74 70 78 81 71 79 82 68 75 78 66 72 75 63 68 72 60 65 68 55 58 62 61 66 70 65 72 75 69 76 79 61 66 69 61 66 70 69 76 79 71 79 82 
70 78 81 70 77 80 62 67 71 60 65 69 69 76 79 63 68 72 64 70 73 66 73 76 71 79 82 68 75 78 58 63 66 59 63 66 63 69 72 65 72 75 59 64 67 57 61 65 
56 59 63 58 62 65 68 75 78 63 69 72 57 61 65 59 64 67 69 76 79 70 78 81 61 66 69 59 63 67 65 71 74 68 75 78 57 61 65 58 62 65 68 75 78 69 76 79 
