P3
16 16
255
57 42 36 57 41 35 57 41 35 57 41 35 57 41 36 58 43 36 59 45 37 59 44 36 57 42 35 59 45 36 59 44 36 57 42 35 56 40 34 56 40 34 56 41 34 57 42 35 
57 42 36 58 42 35 59 44 37 60 45 37 60 43 37 58 43 38 57 42 35 57 42 35 57 42 35 58 43 36 59 45 36 58 44 36 56 41 35 58 42 35 58 42 35 57 41 35 
57 42 36 55 42 35 57 42 35 57 42 35 57 41 34 56 41 34 57 41 34 57 42 35 59 43 36 58 43 36 58 43 36 58 43 36 57 42 36 58 45 36 58 43 35 58 43 34 
58 43 36 59 44 36 58 43 36 58 41 35 56 41 34 56 40 34 57 41 35 59 42 36 58 42 36 57 42 36 57 42 36 57 43 36 58 42 36 58 42 36 58 42 35 57 42 34 
58 43 36 60 44 36 59 44 36 59 43 36 58 43 36 55 40 34 56 41 34 57 41 34 57 41 35 57 41 35 60 45 37 60 45 37 58 42 36 57 42 36 58 43 36 57 42 35 
60 44 36 58 43 36 58 43 36 57 42 36 57 41 35 58 42 36 58 42 36 58 42 36 58 42 36 58 42 36 58 43 36 58 43 36 58 43 36 58 43 36 57 42 36 60 44 36 
59 43 36 58 44 36 58 43 36 57 42 36 57 42 35 57 41 35 58 42 36 60 42 36 58 41 35 57 41 35 57 42 36 58 43 36 59 44 36 59 44 36 58 43 36 57 41 35 
58 43 36 58 42 35 57 42 35 57 41 35 59 43 36 59 43 36 57 41 35 59 44 36 59 44 36 58 42 36 57 42 36 58 42 36 58 42 36 58 43 36 58 43 36 58 43 36 
58 43 36 59 44 36 58 44 36 56 40 34 57 42 35 57 41 34 57 42 35 57 42 35 57 42 36 58 43 36 59 44 36 59 44 36 59 44 36 59 44 37 60 45 38 58 42 36 
58 43 36 58 42 36 57 42 35 57 41 34 57 41 34 57 41 35 57 42 35 57 41 35 58 42 36 57 42 35 57 42 35 57 42 35 58 43 36 58 43 36 60 45 37 59 44 37 
58 42 35 58 42 36 57 42 36 57 41 34 57 41 35 60 45 37 60 45 37 57 41 33 58 43 36 58 43 36 60 45 36 59 44 37 58 42 36 58 43 35 58 42 35 57 41 35 
57 41 35 58 42 35 58 42 36 57 42 35 57 41 35 58 42 36 58 43 36 57 42 36 59 44 36 60 45 36 58 43 36 58 43 36 58 43 36 59 44 36 59 44 36 58 42 36 
57 41 35 57 42 35 57 42 36 58 42 35 57 42 35 58 41 35 57 41 35 57 42 35 60 45 38 61 43 36 57 42 35 56 41 35 57 41 35 58 43 35 58 42 36 58 43 36 
58 43 36 58 43 36 58 43 36 59 44 36 57 43 36 58 45 37 58 42 35 57 41 34 57 42 35 58 41 35 55 41 33 57 41 35 58 41 35 58 42 36 59 46 36 60 44 36 
58 42 36 57 43 36 57 42 36 58 40 33 56 40 34 57 42 36 58 41 35 57 41 35 57 42 36 57 42 36 58 43 36 58 43 36 58 42 35 57 42 34 58 41 35 59 43 36 
57 42 36 58 43 36 58 43 36 57 43 36 57 43 36 58 43 36 60 44 36 58 43 36 57 43 36 58 43 36 58 43 36 58 41 35 57 41 34 56 41 34 58 42 35 58 43 36 
