P3
16 16
255
48 51 54 59 63 66 59 63 66 48 51 54 48 51 54 58 62 66 58 62 66 50 53 57 47 49 52 58 62 66 58 62 66 50 53 57 48 51 54 58 62 66 58 62 66 45 47 50 
58 62 66 43 45 48 44 46 49 54 57 61 54 57 61 44 46 50 43 45 48 54 57 61 54 57 61 44 46 49 43 45 48 54 57 61 54 57 61 44 46 50 44 46 49 48 51 54 
59 63 66 44 46 50 54 57 61 61 66 69 61 66 69 54 57 61 54 57 61 61 66 69 61 66 69 54 57 61 53 55 59 62 66 70 62 66 70 54 57 61 44 46 50 47 49 52 
48 51 54 54 57 61 61 66 69 62 66 70 60 64 68 60 64 68 62 66 70 62 66 70 62 66 70 61 66 69 60 64 68 62 66 70 62 66 70 62 66 70 54 57 61 41 43 47 
47 49 52 54 57 61 62 66 70 62 66 70 62 66 70 62 66 70 62 66 70 62 66 70 62 66 70 62 66 70 62 67 71 61 66 69 61 66 69 61 66 69 54 57 61 41 43 47 
58 62 66 44 46 50 54 57 61 61 66 69 61 66 69 62 66 70 62 66 70 62 66 70 61 66 69 61 66 69 62 66 70 62 66 70 62 66 70 54 57 61 44 46 50 48 51 54 
59 63 66 44 46 49 54 57 61 62 66 70 62 67 71 62 66 70 59 63 67 62 66 70 62 66 70 60 64 68 62 66 70 61 66 69 61 66 69 54 57 61 44 46 49 48 50 54 
48 51 54 54 57 61 60 64 68 61 66 69 61 66 69 60 64 68 61 66 69 61 66 69 60 64 68 61 66 69 61 66 69 62 66 70 61 66 69 62 66 70 54 57 61 41 43 46 
48 51 54 54 57 61 59 63 67 62 66 70 62 66 70 62 66 70 62 66 70 60 64 68 61 66 69 62 66 70 62 66 70 61 66 69 61 66 69 61 66 69 54 57 61 41 43 47 
58 62 66 44 46 49 54 57 61 62 66 70 62 66 70 61 66 69 62 66 70 61 66 69 61 66 69 62 66 70 62 66 70 61 66 69 62 66 70 54 57 61 44 46 49 48 51 54 
57 61 65 43 45 48 54 57 61 62 66 70 62 66 70 62 66 70 62 66 70 62 66 70 62 66 70 62 66 70 62 66 70 61 66 69 61 66 69 54 57 61 44 46 49 47 49 52 
48 51 54 54 57 61 62 66 70 62 66 70 61 66 69 59 63 67 61 66 69 62 66 70 62 66 70 62 66 70 62 66 70 62 66 70 61 66 69 62 66 70 54 57 61 41 43 47 
48 51 54 54 57 61 62 67 71 61 66 69 62 66 70 62 67 71 62 66 70 62 66 70 61 66 69 61 66 69 62 66 70 62 66 70 62 66 70 62 66 70 54 57 61 41 43 47 
59 63 66 44 46 49 53 55 59 62 66 70 60 64 68 54 57 61 54 57 61 62 66 70 60 64 68 54 57 61 54 57 61 60 64 68 62 66 70 54 57 61 43 45 48 48 51 54 
58 62 66 43 45 48 43 45 48 54 57 61 54 57 61 44 46 49 43 45 48 54 57 61 54 57 61 44 46 50 44 46 50 54 57 61 54 57 61 44 46 50 44 46 49 48 51 54 
44 46 50 48 51 54 47 49 52 41 43 47 41 43 47 48 50 54 48 51 54 41 43 47 41 43 47 47 49 52 48 51 54 41 43 46 41 43 47 48 50 54 48 50 54 41 43 47 
