P3
16 16
255
121 85 58 255 255 255 121 85 58 255 255 255 121 85 58 255 255 255 185 133 92 150 108 74 121 85 58 255 255 255 121 85 58 255 255 255 150 108 74 185 133 92 255 255 255 121 85 58 
255 255 255 121 85 58 144 87 64 185 133 92 255 255 255 255 255 255 150 108 74 144 87 64 255 255 255 255 255 255 121 85 58 150 108 74 255 255 255 173 125 101 255 255 255 144 87 64 
255 255 255 255 255 255 255 255 255 187 151 137 255 255 255 144 87 64 144 87 64 150 108 74 255 255 255 121 85 58 255 255 255 185 133 92 255 255 255 173 125 101 144 87 64 255 255 255 
255 255 255 144 87 64 173 125 101 187 151 137 187 151 137 144 87 64 255 255 255 187 151 137 150 108 74 144 87 64 255 255 255 187 151 137 173 125 101 255 255 255 187 151 137 255 255 255 
255 255 255 144 87 64 255 255 255 255 255 255 187 151 137 255 255 255 255 255 255 187 151 137 187 151 137 255 255 255 144 87 64 187 151 137 255 255 255 255 255 255 187 151 137 255 255 255 
255 255 255 255 255 255 255 255 255 144 87 64 173 125 101 255 255 255 255 255 255 144 87 64 187 151 137 173 125 101 255 255 255 173 125 101 255 255 255 255 255 255 173 125 101 255 255 255 
255 255 255 255 255 255 173 125 101 173 125 101 255 255 255 173 125 101 173 125 101 144 87 64 255 255 255 187 151 137 255 255 255 144 87 64 173 125 101 255 255 255 255 255 255 173 125 101 
255 255 255 255 255 255 173 125 101 255 255 255 255 255 255 173 125 101 255 255 255 255 255 255 187 151 137 187 151 137 255 255 255 255 255 255 173 125 101 144 87 64 255 255 255 255 255 255 
255 255 255 255 255 255 255 255 255 255 255 255 255 255 255 144 87 64 255 255 255 187 151 137 173 125 101 255 255 255 255 255 255 173 125 101 255 255 255 144 87 64 255 255 255 255 255 255 
255 255 255 255 255 255 255 255 255 255 255 255 255 255 255 255 255 255 255 255 255 173 125 101 255 255 255 255 255 255 255 255 255 144 87 64 255 255 255 255 255 255 255 255 255 255 255 255 
255 255 255 255 255 255 255 255 255 255 255 255 255 255 255 255 255 255 255 255 255 255 255 255 173 125 101 255 255 255 255 255 255 255 255 255 255 255 255 255 255 255 255 255 255 255 255 255 
255 255 255 255 255 255 255 255 255 255 255 255 255 255 255 255 255 255 255 255 255 255 255 255 255 255 255 255 255 255 255 255 255 255 255 255 255 255 255 255 255 255 255 255 255 255 255 255 
255 255 255 255 255 255 255 255 255 255 255 255 255 255 255 255 255 255 255 255 255 255 255 255 255 255 255 255 255 255 255 255 255 255 255 255 255 255 255 255 255 255 255 255 255 255 255 255 
255 255 255 255 255 255 255 255 255 255 255 255 255 255 255 255 255 255 255 255 255 255 255 255 255 255 255 255 255 255 255 255 255 255 255 255 255 255 255 255 255 255 255 255 255 255 255 255 
255 255 255 255 255 255 255 255 255 255 255 255 255 255 255 255 255 255 255 255 255 255 255 255 255 255 255 255 255 255 255 255 255 255 255 255 255 255 255 255 255 255 255 255 255 255 255 255 
255 255 255 255 255 255 255 255 255 255 255 255 255 255 255 255 255 255 255 255 255 255 255 255 255 255 255 255 255 255 255 255 255 255 255 255 255 255 255 255 255 255 255 255 255 255 255 255 
