P3
16 16
255
138 115 32 191 171 49 148 128 30 191 171 49 138 115 32 203 182 48 148 128 30 191 171 49 148 128 30 191 171 49 171 146 37 191 171 49 148 128 30 191 171 49 171 146 37 203 182 48 
148 128 30 191 171 49 148 128 30 191 171 49 148 128 30 203 182 48 148 128 30 191 171 49 148 128 30 171 146 37 148 128 30 191 171 49 171 146 37 191 171 49 138 115 32 171 146 37 
138 115 32 148 128 30 171 146 37 191 171 49 138 115 32 191 171 49 148 128 30 171 146 37 138 115 32 148 128 30 138 115 32 171 146 37 138 115 32 171 146 37 171 146 37 171 146 37 
165 73 44 164 81 43 146 65 35 164 81 43 164 81 43 164 81 43 146 65 35 146 65 35 146 65 35 135 53 28 146 65 35 164 81 43 164 81 43 164 81 43 146 65 35 164 81 43 
148 128 30 171 146 37 148 128 30 171 146 37 138 115 32 171 146 37 148 128 30 171 146 37 148 128 30 171 146 37 148 128 30 171 146 37 138 115 32 171 146 37 138 115 32 148 128 30 
148 128 30 191 171 49 171 146 37 191 171 49 148 128 30 191 171 49 138 115 32 203 182 48 138 115 32 171 146 37 148 128 30 171 146 37 148 128 30 171 146 37 138 115 32 171 146 37 
171 146 37 191 171 49 171 146 37 203 182 48 148 128 30 191 171 49 148 128 30 203 182 48 171 146 37 191 171 49 171 146 37 203 182 48 148 128 30 171 146 37 148 128 30 191 171 49 
171 146 37 191 171 49 171 146 37 203 182 48 171 146 37 203 182 48 148 128 30 191 171 49 171 146 37 203 182 48 171 146 37 191 171 49 171 146 37 203 182 48 171 146 37 203 182 48 
171 146 37 203 182 48 171 146 37 203 182 48 171 146 37 203 182 48 171 146 37 203 182 48 171 146 37 203 182 48 171 146 37 203 182 48 171 146 37 203 182 48 171 146 37 203 182 48 
171 146 37 203 182 48 148 128 30 203 182 48 171 146 37 203 182 48 171 146 37 203 182 48 171 146 37 191 171 49 171 146 37 203 182 48 171 146 37 203 182 48 148 128 30 191 171 49 
138 115 32 203 182 48 148 128 30 191 171 49 148 128 30 171 146 37 148 128 30 171 146 37 171 146 37 148 128 30 148 128 30 191 171 49 138 115 32 191 171 49 171 146 37 191 171 49 
146 65 35 146 65 35 164 81 43 164 81 43 165 73 44 146 65 35 165 73 44 164 81 43 165 73 44 146 65 35 146 65 35 164 81 43 164 81 43 164 81 43 146 65 35 164 81 43 
138 115 32 148 128 30 148 128 30 138 115 32 138 115 32 138 115 32 138 115 32 148 128 30 138 115 32 148 128 30 148 128 30 171 146 37 138 115 32 148 128 30 138 115 32 148 128 30 
138 115 32 171 146 37 138 115 32 138 115 32 148 128 30 171 146 37 138 115 32 171 146 37 138 115 32 171 146 37 148 128 30 148 128 30 138 115 32 148 128 30 138 115 32 171 146 37 
148 128 30 171 146 37 138 115 32 171 146 37 148 128 30 191 171 49 138 115 32 191 171 49 148 128 30 191 171 49 148 128 30 171 146 37 138 115 32 171 146 37 138 115 32 203 182 48 
138 115 32 171 146 37 148 128 30 191 171 49 138 115 32 203 182 48 148 128 30 191 171 49 138 115 32 203 182 48 171 146 37 203 182 48 148 128 30 203 182 48 148 128 30 203 182 48 
