P3
16 16
255
189 165 16 148 125 16 172 141 8 172 141 8 148 125 16 139 113 16 172 141 8 148 125 16 148 125 16 148 125 16 172 141 8 172 141 8 172 141 8 148 125 16 148 125 16 172 141 8 
139 113 16 189 165 16 172 141 8 189 165 16 148 125 16 172 141 8 172 141 8 172 141 8 139 113 16 172 141 8 148 125 16 172 141 8 148 125 16 148 125 16 189 165 16 172 141 8 
172 141 8 172 141 8 172 141 8 205 178 8 172 141 8 189 165 16 172 141 8 172 141 8 172 141 8 205 178 8 189 165 16 172 141 8 189 165 16 139 113 16 172 141 8 139 113 16 
139 113 16 172 141 8 148 125 16 189 165 16 139 113 16 205 178 8 148 125 16 189 165 16 148 125 16 172 141 8 139 113 16 172 141 8 205 178 8 172 141 8 139 113 16 148 125 16 
148 125 16 139 113 16 148 125 16 148 125 16 189 165 16 148 125 16 172 141 8 139 113 16 172 141 8 139 113 16 148 125 16 172 141 8 148 125 16 189 165 16 172 141 8 148 125 16 
139 113 16 189 165 16 139 113 16 172 141 8 148 125 16 172 141 8 139 113 16 205 178 8 189 165 16 172 141 8 139 113 16 172 141 8 148 125 16 205 178 8 139 113 16 172 141 8 
172 141 8 172 141 8 172 141 8 189 165 16 205 178 8 148 125 16 189 165 16 148 125 16 172 141 8 148 125 16 205 178 8 189 165 16 172 141 8 148 125 16 172 141 8 148 125 16 
172 141 8 189 165 16 148 125 16 139 113 16 172 141 8 172 141 8 148 125 16 148 125 16 172 141 8 205 178 8 148 125 16 172 141 8 172 141 8 139 113 16 148 125 16 172 141 8 
148 125 16 205 178 8 172 141 8 189 165 16 189 165 16 205 178 8 189 165 16 148 125 16 172 141 8 148 125 16 172 141 8 148 125 16 205 178 8 189 165 16 189 165 16 172 141 8 
172 141 8 148 125 16 172 141 8 148 125 16 148 125 16 139 113 16 139 113 16 189 165 16 172 141 8 205 178 8 189 165 16 172 141 8 148 125 16 189 165 16 172 141 8 172 141 8 
148 125 16 172 141 8 139 113 16 172 141 8 139 113 16 172 141 8 148 125 16 172 141 8 148 125 16 205 178 8 148 125 16 172 141 8 172 141 8 172 141 8 172 141 8 139 113 16 
139 113 16 189 165 16 139 113 16 172 141 8 172 141 8 205 178 8 148 125 16 172 141 8 139 113 16 189 165 16 172 141 8 189 165 16 172 141 8 205 178 8 148 125 16 172 141 8 
172 141 8 205 178 8 189 165 16 139 113 16 172 141 8 148 125 16 172 141 8 139 113 16 172 141 8 139 113 16 148 125 16 148 125 16 189 165 16 139 113 16 189 165 16 148 125 16 
139 113 16 172 141 8 139 113 16 172 141 8 172 141 8 172 141 8 205 178 8 148 125 16 148 125 16 172 141 8 148 125 16 189 165 16 172 141 8 189 165 16 148 125 16 148 125 16 
148 125 16 148 125 16 172 141 8 148 125 16 172 141 8 148 125 16 189 165 16 172 141 8 172 141 8 189 165 16 205 178 8 172 141 8 172 141 8 172 141 8 189 165 16 148 125 16 
189 165 16 172 141 8 148 125 16 148 125 16 139 113 16 172 141 8 148 125 16 172 141 8 139 113 16 172 141 8 148 125 16 172 141 8 148 125 16 148 125 16 139 113 16 189 165 16 
