P3
16 16
255
252 213 140 252 213 140 252 213 140 252 213 140 254 224 152 254 224 152 252 213 140 254 224 152 252 213 140 251 203 131 245 190 135 251 203 131 252 213 140 252 213 140 254 224 152 254 224 152 
252 213 140 254 224 152 254 224 152 251 203 131 251 203 131 251 203 131 245 190 135 251 203 131 251 203 131 245 190 135 245 190 135 245 190 135 251 203 131 245 190 135 252 213 140 254 224 152 
254 224 152 254 224 152 254 224 152 251 203 131 251 203 131 245 190 135 245 190 135 245 190 135 245 190 135 241 185 128 251 203 131 245 190 135 251 203 131 251 203 131 251 203 131 252 213 140 
254 224 152 245 190 135 251 203 131 251 203 131 251 203 131 245 190 135 241 185 128 241 185 128 245 190 135 251 203 131 251 203 131 245 190 135 245 190 135 245 190 135 251 203 131 251 203 131 
252 213 140 251 203 131 245 190 135 245 190 135 245 190 135 245 190 135 241 185 128 241 185 128 241 185 128 245 190 135 245 190 135 245 190 135 245 190 135 251 203 131 251 203 131 245 190 135 
254 224 152 251 203 131 245 190 135 241 185 128 241 185 128 241 185 128 241 185 128 241 185 128 241 185 128 241 185 128 241 185 128 245 190 135 245 190 135 251 203 131 252 213 140 251 203 131 
252 213 140 245 190 135 245 190 135 241 185 128 241 185 128 241 185 128 241 185 128 241 185 128 245 190 135 251 203 131 241 185 128 251 203 131 245 190 135 251 203 131 252 213 140 251 203 131 
252 213 140 245 190 135 251 203 131 241 185 128 245 190 135 245 190 135 241 185 128 241 185 128 241 185 128 245 190 135 241 185 128 245 190 135 245 190 135 252 213 140 252 213 140 245 190 135 
251 203 131 245 190 135 245 190 135 245 190 135 251 203 131 251 203 131 245 190 135 241 185 128 241 185 128 241 185 128 241 185 128 245 190 135 251 203 131 252 213 140 252 213 140 245 190 135 
252 213 140 245 190 135 245 190 135 241 185 128 251 203 131 245 190 135 241 185 128 241 185 128 241 185 128 245 190 135 245 190 135 245 190 135 251 203 131 254 224 152 252 213 140 251 203 131 
251 203 131 251 203 131 245 190 135 241 185 128 245 190 135 241 185 128 241 185 128 241 185 128 241 185 128 245 190 135 245 190 135 252 213 140 252 213 140 254 224 152 252 213 140 251 203 131 
245 190 135 245 190 135 245 190 135 241 185 128 245 190 135 245 190 135 241 185 128 245 190 135 245 190 135 251 203 131 251 203 131 252 213 140 252 213 140 254 224 152 251 203 131 245 190 135 
251 203 131 245 190 135 251 203 131 245 190 135 245 190 135 245 190 135 241 185 128 245 190 135 245 190 135 251 203 131 252 213 140 252 213 140 254 224 152 252 213 140 251 203 131 245 190 135 
252 213 140 251 203 131 252 213 140 251 203 131 245 190 135 251 203 131 251 203 131 252 213 140 252 213 140 252 213 140 254 224 152 254 224 152 254 224 152 251 203 131 245 190 135 245 190 135 
254 224 152 252 213 140 254 224 152 252 213 140 251 203 131 251 203 131 251 203 131 251 203 131 251 203 131 252 213 140 252 213 140 252 213 140 251 203 131 245 190 135 245 190 135 251 203 131 
254 224 152 254 224 152 252 213 140 251 203 131 252 213 140 252 213 140 252 213 140 245 190 135 245 190 135 251 203 131 251 203 131 251 203 131 245 190 135 245 190 135 251 203 131 252 213 140 
