P3
16 16
255
251 193 87 251 193 87 251 193 87 254 209 105 250 234 168 250 234 168 248 228 149 255 219 135 255 219 135 254 209 105 254 209 105 251 193 87 249 179 73 249 179 73 254 209 105 254 209 105 
251 193 87 254 209 105 254 209 105 248 228 149 248 228 149 248 228 149 248 228 149 255 219 135 255 219 135 248 228 149 255 219 135 254 209 105 251 193 87 251 193 87 251 193 87 251 193 87 
254 209 105 251 193 87 255 219 135 248 228 149 248 228 149 255 219 135 255 219 135 248 228 149 255 219 135 254 209 105 254 209 105 251 193 87 251 193 87 249 179 73 249 179 73 254 209 105 
251 193 87 255 219 135 255 219 135 248 228 149 254 209 105 251 193 87 254 209 105 255 219 135 255 219 135 254 209 105 254 209 105 251 193 87 249 179 73 249 179 73 249 179 73 251 193 87 
251 193 87 254 209 105 254 209 105 255 219 135 251 193 87 251 193 87 251 193 87 251 193 87 249 179 73 251 193 87 249 179 73 249 179 73 249 179 73 251 193 87 249 179 73 249 179 73 
251 193 87 254 209 105 254 209 105 251 193 87 251 193 87 249 179 73 249 179 73 249 179 73 249 179 73 249 179 73 251 193 87 255 219 135 255 219 135 254 209 105 251 193 87 249 179 73 
249 179 73 251 193 87 251 193 87 251 193 87 251 193 87 251 193 87 251 193 87 249 179 73 251 193 87 254 209 105 255 219 135 255 219 135 255 219 135 254 209 105 254 209 105 251 193 87 
251 193 87 249 179 73 251 193 87 254 209 105 255 219 135 255 219 135 255 219 135 254 209 105 251 193 87 255 219 135 254 209 105 251 193 87 249 179 73 249 179 73 251 193 87 254 209 105 
254 209 105 251 193 87 251 193 87 251 193 87 254 209 105 255 219 135 255 219 135 254 209 105 254 209 105 251 193 87 249 179 73 249 179 73 251 193 87 254 209 105 254 209 105 254 209 105 
251 193 87 254 209 105 251 193 87 249 179 73 249 179 73 249 179 73 249 179 73 251 193 87 251 193 87 251 193 87 254 209 105 254 209 105 248 228 149 250 234 168 250 234 168 248 228 149 
255 219 135 254 209 105 254 209 105 254 209 105 254 209 105 251 193 87 249 179 73 249 179 73 249 179 73 251 193 87 251 193 87 248 228 149 250 234 168 250 234 168 248 228 149 248 228 149 
248 228 149 255 219 135 255 219 135 254 209 105 254 209 105 254 209 105 254 209 105 251 193 87 251 193 87 251 193 87 248 228 149 248 228 149 248 228 149 255 219 135 255 219 135 248 228 149 
248 228 149 248 228 149 255 219 135 255 219 135 248 228 149 248 228 149 248 228 149 254 209 105 255 219 135 255 219 135 255 219 135 255 219 135 254 209 105 254 209 105 255 219 135 248 228 149 
248 228 149 248 228 149 248 228 149 255 219 135 255 219 135 248 228 149 248 228 149 248 228 149 255 219 135 254 209 105 255 219 135 254 209 105 254 209 105 254 209 105 255 219 135 255 219 135 
255 219 135 248 228 149 248 228 149 254 209 105 254 209 105 255 219 135 255 219 135 255 219 135 254 209 105 251 193 87 251 193 87 251 193 87 251 193 87 254 209 105 254 209 105 255 219 135 
255 219 135 255 219 135 254 209 105 251 193 87 254 209 105 255 219 135 255 219 135 254 209 105 251 193 87 251 193 87 251 193 87 249 179 73 249 179 73 249 179 73 249 179 73 251 193 87 
