P3
16 16
255
73 72 72 79 79 79 79 79 79 89 88 88 89 88 88 89 88 88 103 97 97 103 97 97 103 97 97 103 97 97 89 88 88 89 88 88 79 79 79 79 79 79 79 79 79 73 72 72 
79 79 79 73 72 72 73 72 72 73 72 72 73 72 72 73 72 72 73 72 72 73 72 72 73 72 72 73 72 72 73 72 72 73 72 72 73 72 72 73 72 72 73 72 72 79 79 79 
79 79 79 73 72 72 52 52 56 63 62 66 63 62 66 63 62 66 63 62 66 63 62 66 63 62 66 63 62 66 63 62 66 63 62 66 63 62 66 52 52 56 73 72 72 79 79 79 
79 79 79 73 72 72 63 62 66 255 255 255 255 255 255 255 255 255 255 255 255 255 255 255 255 255 255 255 255 255 255 255 255 255 255 255 255 255 255 63 62 66 73 72 72 79 79 79 
89 88 88 73 72 72 63 62 66 255 255 255 255 255 255 255 255 255 255 255 255 255 255 255 255 255 255 255 255 255 255 255 255 255 255 255 255 255 255 63 62 66 73 72 72 89 88 88 
89 88 88 73 72 72 63 62 66 255 255 255 255 255 255 255 255 255 255 255 255 255 255 255 255 255 255 255 255 255 255 255 255 255 255 255 255 255 255 63 62 66 73 72 72 89 88 88 
103 97 97 73 72 72 63 62 66 255 255 255 255 255 255 255 255 255 255 255 255 255 255 255 255 255 255 255 255 255 255 255 255 255 255 255 255 255 255 63 62 66 73 72 72 103 97 97 
103 97 97 73 72 72 63 62 66 255 255 255 255 255 255 255 255 255 255 255 255 255 255 255 255 255 255 255 255 255 255 255 255 255 255 255 255 255 255 63 62 66 73 72 72 103 97 97 
103 97 97 73 72 72 63 62 66 255 255 255 255 255 255 255 255 255 255 255 255 255 255 255 255 255 255 255 255 255 255 255 255 255 255 255 255 255 255 63 62 66 73 72 72 103 97 97 
103 97 97 73 72 72 63 62 66 255 255 255 255 255 255 255 255 255 255 255 255 255 255 255 255 255 255 255 255 255 255 255 255 255 255 255 255 255 255 63 62 66 73 72 72 103 97 97 
89 88 88 73 72 72 63 62 66 255 255 255 255 255 255 255 255 255 255 255 255 255 255 255 255 255 255 255 255 255 255 255 255 255 255 255 255 255 255 63 62 66 73 72 72 89 88 88 
89 88 88 73 72 72 63 62 66 255 255 255 255 255 255 255 255 255 255 255 255 255 255 255 255 255 255 255 255 255 255 255 255 255 255 255 255 255 255 63 62 66 73 72 72 89 88 88 
89 88 88 73 72 72 63 62 66 255 255 255 255 255 255 255 255 255 255 255 255 255 255 255 255 255 255 255 255 255 255 255 255 255 255 255 255 255 255 63 62 66 73 72 72 89 88 88 
79 79 79 73 72 72 52 52 56 63 62 66 63 62 66 63 62 66 63 62 66 63 62 66 63 62 66 63 62 66 63 62 66 63 62 66 63 62 66 52 52 56 73 72 72 79 79 79 
79 79 79 73 72 72 73 72 72 73 72 72 73 72 72 73 72 72 73 72 72 73 72 72 73 72 72 73 72 72 73 72 72 73 72 72 73 72 72 73 72 72 73 72 72 79 79 79 
73 72 72 79 79 79 79 79 79 89 88 88 89 88 88 89 88 88 103 97 97 103 97 97 103 97 97 103 97 97 89 88 88 89 88 88 79 79 79 79 79 79 79 79 79 73 72 72 
