P3
16 16
255
255 255 255 255 255 255 255 255 255 255 255 255 255 255 255 255 255 255 255 255 255 255 255 255 255 255 255 255 255 255 255 255 255 255 255 255 255 255 255 255 255 255 255 255 255 255 255 255 
255 255 255 255 255 255 255 255 255 255 255 255 255 255 255 255 255 255 255 255 255 255 255 255 255 255 255 255 255 255 255 255 255 255 255 255 255 255 255 255 255 255 255 255 255 255 255 255 
255 255 255 255 255 255 255 255 255 255 255 255 255 255 255 228 218 74 228 218 74 255 255 255 255 255 255 255 255 255 228 218 74 213 203 62 255 255 255 255 255 255 255 255 255 255 255 255 
255 255 255 255 255 255 255 255 255 255 255 255 255 255 255 213 203 62 237 236 76 228 218 74 255 255 255 255 255 255 228 218 74 209 179 65 255 255 255 255 255 255 255 255 255 255 255 255 
255 255 255 255 255 255 255 255 255 255 255 255 255 255 255 255 255 255 213 203 62 237 236 76 228 218 74 213 203 62 228 218 74 182 137 48 255 255 255 255 255 255 255 255 255 255 255 255 
255 255 255 255 255 255 255 255 255 255 255 255 255 255 255 255 255 255 255 255 255 182 137 48 228 218 74 190 160 53 209 179 65 255 255 255 255 255 255 228 218 74 213 203 62 255 255 255 
255 255 255 255 255 255 255 255 255 228 218 74 228 218 74 255 255 255 255 255 255 255 255 255 182 137 48 213 203 62 255 255 255 209 179 65 228 218 74 237 236 76 209 179 65 255 255 255 
255 255 255 255 255 255 255 255 255 209 179 65 237 236 76 209 179 65 255 255 255 255 255 255 255 255 255 209 179 65 213 203 62 228 218 74 237 236 76 213 203 62 255 255 255 255 255 255 
255 255 255 228 218 74 228 218 74 255 255 255 213 203 62 209 179 65 255 255 255 209 179 65 255 255 255 182 137 48 190 160 53 213 203 62 255 255 255 255 255 255 255 255 255 255 255 255 
255 255 255 182 137 48 237 236 76 228 218 74 213 203 62 213 203 62 209 179 65 209 179 65 255 255 255 255 255 255 182 137 48 209 179 65 255 255 255 255 255 255 255 255 255 255 255 255 
255 255 255 255 255 255 182 137 48 209 179 65 213 203 62 237 236 76 213 203 62 182 137 48 255 255 255 255 255 255 182 137 48 209 179 65 213 203 62 237 236 76 228 218 74 255 255 255 
255 255 255 255 255 255 255 255 255 255 255 255 182 137 48 209 179 65 213 203 62 255 255 255 255 255 255 255 255 255 182 137 48 213 203 62 228 218 74 228 218 74 182 137 48 255 255 255 
255 255 255 255 255 255 209 179 65 182 137 48 255 255 255 182 137 48 209 179 65 209 179 65 182 137 48 255 255 255 182 137 48 209 179 65 182 137 48 255 255 255 255 255 255 255 255 255 
255 255 255 255 255 255 255 255 255 209 179 65 182 137 48 182 137 48 182 137 48 182 137 48 209 179 65 182 137 48 209 179 65 209 179 65 213 203 62 237 236 76 255 255 255 255 255 255 
255 255 255 255 255 255 255 255 255 255 255 255 255 255 255 255 255 255 255 255 255 182 137 48 213 203 62 209 179 65 209 179 65 255 255 255 255 255 255 255 255 255 255 255 255 255 255 255 
255 255 255 255 255 255 255 255 255 255 255 255 255 255 255 255 255 255 255 255 255 255 255 255 213 203 62 213 203 62 182 137 48 255 255 255 255 255 255 255 255 255 255 255 255 255 255 255 
