P3
16 16
255
157 190 230 157 190 230 157 190 230 157 190 230 157 190 230 157 190 230 157 190 230 157 190 230 157 190 230 157 190 230 157 190 230 157 190 230 157 190 230 157 190 230 157 190 230 157 190 230 
157 190 230 194 214 239 194 214 239 194 214 239 194 214 239 194 214 239 194 214 239 194 214 239 194 214 239 194 214 239 194 214 239 194 214 239 194 214 239 194 214 239 194 214 239 157 190 230 
157 190 230 194 214 239 194 214 239 194 214 239 162 193 231 194 214 239 194 214 239 194 214 239 194 214 239 194 214 239 194 214 239 194 214 239 194 214 239 194 214 239 194 214 239 157 190 230 
157 190 230 194 214 239 194 214 239 162 193 231 194 214 239 194 214 239 194 214 239 194 214 239 194 214 239 194 214 239 194 214 239 194 214 239 194 214 239 194 214 239 194 214 239 157 190 230 
157 190 230 194 214 239 162 193 231 194 214 239 194 214 239 194 214 239 194 214 239 194 214 239 194 214 239 194 214 239 194 214 239 194 214 239 194 214 239 194 214 239 194 214 239 157 190 230 
157 190 230 194 214 239 194 214 239 194 214 239 194 214 239 194 214 239 194 214 239 194 214 239 194 214 239 194 214 239 194 214 239 194 214 239 194 214 239 194 214 239 194 214 239 157 190 230 
157 190 230 194 214 239 194 214 239 194 214 239 194 214 239 194 214 239 194 214 239 194 214 239 194 214 239 194 214 239 194 214 239 194 214 239 194 214 239 194 214 239 194 214 239 157 190 230 
157 190 230 194 214 239 194 214 239 194 214 239 194 214 239 194 214 239 194 214 239 194 214 239 194 214 239 194 214 239 194 214 239 194 214 239 194 214 239 194 214 239 194 214 239 157 190 230 
157 190 230 194 214 239 194 214 239 194 214 239 194 214 239 194 214 239 194 214 239 194 214 239 194 214 239 194 214 239 194 214 239 194 214 239 194 214 239 194 214 239 194 214 239 157 190 230 
157 190 230 194 214 239 194 214 239 194 214 239 194 214 239 194 214 239 194 214 239 194 214 239 194 214 239 194 214 239 194 214 239 194 214 239 194 214 239 194 214 239 194 214 239 157 190 230 
157 190 230 194 214 239 194 214 239 194 214 239 194 214 239 194 214 239 194 214 239 194 214 239 194 214 239 194 214 239 194 214 239 194 214 239 194 214 239 194 214 239 194 214 239 157 190 230 
157 190 230 194 214 239 194 214 239 194 214 239 194 214 239 194 214 239 194 214 239 194 214 239 194 214 239 194 214 239 194 214 239 194 214 239 194 214 239 194 214 239 194 214 239 157 190 230 
157 190 230 194 214 239 194 214 239 194 214 239 194 214 239 194 214 239 194 214 239 194 214 239 194 214 239 194 214 239 194 214 239 194 214 239 194 214 239 162 193 231 194 214 239 157 190 230 
157 190 230 194 214 239 194 214 239 194 214 239 194 214 239 194 214 239 194 214 239 194 214 239 194 214 239 194 214 239 194 214 239 194 214 239 162 193 231 194 214 239 194 214 239 157 190 230 
157 190 230 194 214 239 194 214 239 194 214 239 194 214 239 194 214 239 194 214 239 194 214 239 194 214 239 194 214 239 194 214 239 194 214 239 194 214 239 194 214 239 194 214 239 157 190 230 
157 190 230 157 190 230 157 190 230 157 190 230 157 190 230 157 190 230 157 190 230 157 190 230 157 190 230 157 190 230 157 190 230 157 190 230 157 190 230 157 190 230 157 190 230 157 190 230 
