P3
16 16
255
39 146 206 53 172 215 53 172 215 39 146 206 39 146 206 52 171 215 52 171 215 40 149 208 37 143 204 52 171 215 52 171 215 40 149 208 39 146 206 52 171 215 52 171 215 36 140 202 
52 171 215 35 137 199 36 139 201 44 157 211 44 157 211 36 139 201 35 137 199 44 157 211 44 157 211 36 139 201 35 137 199 44 157 211 44 157 211 36 139 201 36 139 201 39 146 206 
53 172 215 36 139 201 44 157 211 58 179 218 58 179 218 44 157 211 44 157 211 58 179 218 58 179 218 44 157 211 43 154 210 59 180 219 59 180 219 44 156 211 36 139 201 37 143 204 
39 146 206 44 157 211 58 179 218 59 180 219 56 176 217 56 176 217 59 180 219 59 180 219 59 180 219 58 179 218 56 176 217 59 180 219 59 180 219 59 180 219 44 157 211 33 132 194 
37 143 204 44 157 211 59 180 219 59 180 219 59 180 219 59 180 219 59 180 219 59 180 219 59 180 219 59 180 219 60 182 220 58 179 218 58 179 218 58 179 218 44 157 211 33 132 194 
52 171 215 36 139 201 44 157 211 58 179 218 58 179 218 59 180 219 59 180 219 59 180 219 58 179 218 58 179 218 59 180 219 59 180 219 59 180 219 44 157 211 36 139 201 39 146 206 
53 172 215 36 139 201 44 157 211 59 180 219 60 182 220 59 180 219 54 174 216 59 180 219 59 180 219 56 176 217 59 180 219 58 179 218 58 179 218 44 157 211 36 139 201 38 145 205 
39 146 206 44 157 211 56 176 217 58 179 218 58 179 218 56 176 217 58 179 218 58 179 218 56 176 217 58 179 218 58 179 218 59 180 219 58 179 218 59 180 219 44 157 211 32 130 191 
39 146 206 44 157 211 54 174 216 59 180 219 59 180 219 59 180 219 59 180 219 56 176 217 58 179 218 59 180 219 59 180 219 58 179 218 58 179 218 58 179 218 44 157 211 33 132 194 
52 171 215 36 139 201 44 157 211 59 180 219 59 180 219 58 179 218 59 180 219 58 179 218 58 179 218 59 180 219 59 180 219 58 179 218 59 180 219 44 156 211 36 139 201 39 146 206 
51 168 214 35 137 199 44 156 211 59 180 219 59 180 219 59 180 219 59 180 219 59 180 219 59 180 219 59 180 219 59 180 219 58 179 218 58 179 218 44 157 211 36 139 201 37 143 204 
39 146 206 44 157 211 59 180 219 59 180 219 58 179 218 54 174 216 58 179 218 59 180 219 59 180 219 59 180 219 59 180 219 59 180 219 58 179 218 59 180 219 44 157 211 33 132 194 
39 146 206 44 157 211 60 182 220 58 179 218 59 180 219 60 182 220 59 180 219 59 180 219 58 179 218 58 179 218 59 180 219 59 180 219 59 180 219 59 180 219 44 157 211 33 132 194 
53 172 215 36 139 201 43 154 210 59 180 219 56 176 217 44 157 211 44 157 211 59 180 219 56 176 217 44 157 211 44 157 211 56 176 217 59 180 219 44 157 211 35 137 199 39 146 206 
52 171 215 35 137 199 35 137 199 44 157 211 44 156 211 36 139 201 35 137 199 44 157 211 44 157 211 36 139 201 36 139 201 44 157 211 44 157 211 36 139 201 36 139 201 39 146 206 
36 139 201 39 146 206 37 143 204 33 132 194 33 132 194 38 145 205 39 146 206 33 132 194 33 132 194 37 143 204 39 146 206 32 130 191 33 132 194 38 145 205 38 145 205 33 132 194 
