P3
16 16
255
255 255 255 255 255 255 255 255 255 255 255 255 255 255 255 255 255 255 255 255 255 255 255 255 255 255 255 255 255 255 255 255 255 255 255 255 255 255 255 255 255 255 255 255 255 255 255 255 
255 255 255 255 255 255 255 255 255 255 255 255 255 255 255 255 255 255 255 255 255 255 255 255 255 255 255 255 255 255 255 255 255 255 255 255 255 255 255 255 255 255 255 255 255 255 255 255 
255 255 255 255 255 255 211 128 211 222 147 241 255 255 255 255 255 255 255 255 255 255 255 255 255 255 255 255 255 255 255 255 255 182 107 178 211 128 211 255 255 255 255 255 255 255 255 255 
255 255 255 255 255 255 182 107 178 211 128 211 182 107 178 255 255 255 255 255 255 255 255 255 255 255 255 255 255 255 222 147 241 211 128 211 182 107 178 255 255 255 255 255 255 255 255 255 
255 255 255 255 255 255 255 255 255 222 147 241 182 107 178 158 97 159 255 255 255 255 255 255 255 255 255 182 107 178 211 128 211 182 107 178 255 255 255 255 255 255 255 255 255 255 255 255 
255 255 255 255 255 255 255 255 255 255 255 255 158 97 159 182 107 178 255 255 255 255 255 255 255 255 255 158 97 159 182 107 178 255 255 255 255 255 255 255 255 255 255 255 255 255 255 255 
255 255 255 255 255 255 255 255 255 255 255 255 255 255 255 82 154 46 85 171 45 255 255 255 158 97 159 74 143 40 255 255 255 255 255 255 255 255 255 255 255 255 255 255 255 255 255 255 
255 255 255 255 255 255 255 255 255 255 255 255 255 255 255 255 255 255 74 143 40 23 124 4 74 143 40 255 255 255 255 255 255 255 255 255 255 255 255 255 255 255 255 255 255 255 255 255 
255 255 255 255 255 255 255 255 255 255 255 255 255 255 255 255 255 255 82 154 46 85 171 45 255 255 255 255 255 255 158 97 159 182 107 178 222 147 241 211 128 211 255 255 255 255 255 255 
255 255 255 211 128 211 222 147 241 211 128 211 255 255 255 255 255 255 255 255 255 85 171 45 255 255 255 74 143 40 23 124 4 222 147 241 182 107 178 255 255 255 255 255 255 255 255 255 
255 255 255 255 255 255 211 128 211 182 107 178 158 97 159 255 255 255 255 255 255 82 154 46 23 124 4 255 255 255 158 97 159 255 255 255 255 255 255 255 255 255 255 255 255 255 255 255 
255 255 255 255 255 255 255 255 255 158 97 159 23 124 4 158 97 159 255 255 255 211 128 211 74 143 40 255 255 255 255 255 255 255 255 255 211 128 211 211 128 211 255 255 255 255 255 255 
255 255 255 255 255 255 255 255 255 255 255 255 158 97 159 74 143 40 85 171 45 222 147 241 182 107 178 255 255 255 255 255 255 211 128 211 222 147 241 182 107 178 255 255 255 255 255 255 
255 255 255 255 255 255 255 255 255 255 255 255 255 255 255 255 255 255 255 255 255 182 107 178 158 97 159 255 255 255 158 97 159 23 124 4 158 97 159 255 255 255 255 255 255 255 255 255 
255 255 255 255 255 255 255 255 255 255 255 255 211 128 211 255 255 255 255 255 255 255 255 255 158 97 159 255 255 255 23 124 4 158 97 159 255 255 255 255 255 255 255 255 255 255 255 255 
255 255 255 255 255 255 255 255 255 211 128 211 222 147 241 255 255 255 255 255 255 255 255 255 85 171 45 82 154 46 255 255 255 255 255 255 255 255 255 255 255 255 255 255 255 255 255 255 
