P3
16 16
255
255 255 255 255 255 255 255 255 255 255 255 255 255 255 255 255 255 255 255 255 255 255 255 255 255 255 255 255 255 255 255 255 255 255 255 255 255 255 255 255 255 255 255 255 255 255 255 255 
255 255 255 255 255 255 255 255 255 255 255 255 92 92 92 92 92 92 104 104 104 255 255 255 255 255 255 255 255 255 104 104 104 92 92 92 92 92 92 255 255 255 255 255 255 255 255 255 
255 255 255 255 255 255 255 255 255 92 92 92 127 127 127 150 150 150 92 92 92 255 255 255 255 255 255 255 255 255 92 92 92 127 127 127 163 163 163 92 92 92 255 255 255 255 255 255 
255 255 255 255 255 255 255 255 255 92 92 92 150 150 150 163 163 163 127 127 127 104 104 104 255 255 255 104 104 104 127 127 127 150 150 150 150 150 150 92 92 92 255 255 255 255 255 255 
255 255 255 255 255 255 92 92 92 127 127 127 163 163 163 150 150 150 150 150 150 92 92 92 255 255 255 92 92 92 150 150 150 150 150 150 150 150 150 163 163 163 92 92 92 255 255 255 
255 255 255 255 255 255 92 92 92 163 163 163 150 150 150 163 163 163 150 150 150 127 127 127 104 104 104 127 127 127 150 150 150 163 163 163 150 150 150 163 163 163 92 92 92 255 255 255 
255 255 255 255 255 255 92 92 92 163 163 163 150 150 150 150 150 150 163 163 163 150 150 150 104 104 104 150 150 150 163 163 163 150 150 150 150 150 150 150 150 150 92 92 92 255 255 255 
255 255 255 255 255 255 92 92 92 163 163 163 163 163 163 150 150 150 163 163 163 163 163 163 127 127 127 150 150 150 163 163 163 150 150 150 163 163 163 150 150 150 92 92 92 255 255 255 
255 255 255 255 255 255 92 92 92 163 163 163 163 163 163 150 150 150 150 150 150 163 163 163 150 150 150 163 163 163 150 150 150 150 150 150 163 163 163 150 150 150 92 92 92 255 255 255 
255 255 255 255 255 255 92 92 92 163 163 163 150 150 150 150 150 150 163 163 163 150 150 150 150 150 150 163 163 163 150 150 150 150 150 150 150 150 150 163 163 163 92 92 92 255 255 255 
255 255 255 255 255 255 92 92 92 127 127 127 163 163 163 150 150 150 150 150 150 163 163 163 150 150 150 150 150 150 163 163 163 150 150 150 150 150 150 127 127 127 92 92 92 255 255 255 
255 255 255 255 255 255 255 255 255 92 92 92 163 163 163 150 150 150 150 150 150 163 163 163 150 150 150 163 163 163 150 150 150 150 150 150 150 150 150 92 92 92 255 255 255 255 255 255 
255 255 255 255 255 255 255 255 255 92 92 92 127 127 127 163 163 163 150 150 150 150 150 150 127 127 127 163 163 163 150 150 150 163 163 163 127 127 127 92 92 92 255 255 255 255 255 255 
255 255 255 255 255 255 255 255 255 255 255 255 92 92 92 92 92 92 127 127 127 150 150 150 104 104 104 150 150 150 127 127 127 92 92 92 92 92 92 255 255 255 255 255 255 255 255 255 
255 255 255 255 255 255 255 255 255 255 255 255 255 255 255 255 255 255 92 92 92 92 92 92 92 92 92 92 92 92 92 92 92 255 255 255 255 255 255 255 255 255 255 255 255 255 255 255 
255 255 255 255 255 255 255 255 255 255 255 255 255 255 255 255 255 255 255 255 255 255 255 255 255 255 255 255 255 255 255 255 255 255 255 255 255 255 255 255 255 255 255 255 255 255 255 255 
