P3
16 16
255
206 141 230 206 141 230 206 141 230 206 141 230 206 141 230 206 141 230 206 141 230 206 141 230 206 141 230 206 141 230 206 141 230 206 141 230 206 141 230 206 141 230 206 141 230 206 141 230 
206 141 230 224 183 239 224 183 239 224 183 239 224 183 239 224 183 239 224 183 239 224 183 239 224 183 239 224 183 239 224 183 239 224 183 239 224 183 239 224 183 239 224 183 239 206 141 230 
206 141 230 224 183 239 224 183 239 224 183 239 208 146 231 224 183 239 224 183 239 224 183 239 224 183 239 224 183 239 224 183 239 224 183 239 224 183 239 224 183 239 224 183 239 206 141 230 
206 141 230 224 183 239 224 183 239 208 146 231 224 183 239 224 183 239 224 183 239 224 183 239 224 183 239 224 183 239 224 183 239 224 183 239 224 183 239 224 183 239 224 183 239 206 141 230 
206 141 230 224 183 239 208 146 231 224 183 239 224 183 239 224 183 239 224 183 239 224 183 239 224 183 239 224 183 239 224 183 239 224 183 239 224 183 239 224 183 239 224 183 239 206 141 230 
206 141 230 224 183 239 224 183 239 224 183 239 224 183 239 224 183 239 224 183 239 224 183 239 224 183 239 224 183 239 224 183 239 224 183 239 224 183 239 224 183 239 224 183 239 206 141 230 
206 141 230 224 183 239 224 183 239 224 183 239 224 183 239 224 183 239 224 183 239 224 183 239 224 183 239 224 183 239 224 183 239 224 183 239 224 183 239 224 183 239 224 183 239 206 141 230 
206 141 230 224 183 239 224 183 239 224 183 239 224 183 239 224 183 239 224 183 239 224 183 239 224 183 239 224 183 239 224 183 239 224 183 239 224 183 239 224 183 239 224 183 239 206 141 230 
206 141 230 224 183 239 224 183 239 224 183 239 224 183 239 224 183 239 224 183 239 224 183 239 224 183 239 224 183 239 224 183 239 224 183 239 224 183 239 224 183 239 224 183 239 206 141 230 
206 141 230 224 183 239 224 183 239 224 183 239 224 183 239 224 183 239 224 183 239 224 183 239 224 183 239 224 183 239 224 183 239 224 183 239 224 183 239 224 183 239 224 183 239 206 141 230 
206 141 230 224 183 239 224 183 239 224 183 239 224 183 239 224 183 239 224 183 239 224 183 239 224 183 239 224 183 239 224 183 239 224 183 239 224 183 239 224 183 239 224 183 239 206 141 230 
206 141 230 224 183 239 224 183 239 224 183 239 224 183 239 224 183 239 224 183 239 224 183 239 224 183 239 224 183 239 224 183 239 224 183 239 224 183 239 224 183 239 224 183 239 206 141 230 
206 141 230 224 183 239 224 183 239 224 183 239 224 183 239 224 183 239 224 183 239 224 183 239 224 183 239 224 183 239 224 183 239 224 183 239 224 183 239 208 146 231 224 183 239 206 141 230 
206 141 230 224 183 239 224 183 239 224 183 239 224 183 239 224 183 239 224 183 239 224 183 239 224 183 239 224 183 239 224 183 239 224 183 239 208 146 231 224 183 239 224 183 239 206 141 230 
206 141 230 224 183 239 224 183 239 224 183 239 224 183 239 224 183 239 224 183 239 224 183 239 224 183 239 224 183 239 224 183 239 224 183 239 224 183 239 224 183 239 224 183 239 206 141 230 
206 141 230 206 141 230 206 141 230 206 141 230 206 141 230 206 141 230 206 141 230 206 141 230 206 141 230 206 141 230 206 141 230 206 141 230 206 141 230 206 141 230 206 141 230 206 141 230 
