P3
16 16
255
178 72 170 195 82 186 186 72 177 198 91 190 199 89 191 193 85 185 182 73 174 193 83 184 193 81 184 201 96 195 196 87 187 205 100 197 199 93 192 205 86 196 189 85 182 212 115 207 
198 89 190 184 73 176 187 73 178 196 83 187 175 69 167 183 74 175 179 70 171 180 69 171 196 82 187 208 103 202 206 86 197 185 73 177 196 87 188 188 80 180 187 76 178 189 73 180 
196 86 188 199 86 192 207 94 200 193 85 183 190 81 181 197 91 188 186 76 177 203 99 196 203 99 196 187 73 178 202 94 195 192 77 183 189 78 180 188 81 179 187 78 178 209 95 200 
181 73 174 197 93 190 182 70 174 191 80 182 182 73 174 186 73 177 188 81 181 190 77 180 184 87 178 179 69 171 183 72 175 196 85 187 195 81 186 195 81 185 207 107 202 191 91 184 
190 77 181 192 85 184 194 80 184 191 81 181 206 96 197 196 82 186 199 87 190 199 86 190 186 77 177 186 80 178 180 70 172 200 90 193 184 72 175 176 70 167 193 77 184 177 69 168 
196 93 189 198 89 190 179 70 171 216 98 208 199 95 190 192 77 183 191 80 183 194 83 186 199 96 193 194 78 185 183 70 174 176 72 169 187 81 180 184 77 177 184 73 176 181 77 172 
171 67 164 199 90 190 182 74 175 194 85 185 176 73 168 200 94 192 209 110 204 184 74 175 191 82 182 197 91 188 191 76 182 223 115 216 199 93 191 192 77 183 189 78 180 191 81 182 
195 87 187 217 125 216 196 83 187 196 90 187 185 74 177 197 94 190 202 94 195 199 82 190 190 78 181 188 81 181 195 87 186 183 74 175 187 76 178 201 93 193 215 105 208 197 86 190 
188 76 179 219 122 215 212 104 205 202 93 195 212 110 206 181 70 171 196 82 187 185 72 177 188 80 180 220 109 212 175 69 167 186 74 178 199 95 192 192 82 183 198 89 190 213 116 209 
187 85 180 194 85 184 201 93 195 189 80 180 182 70 174 196 87 188 193 86 184 196 91 187 187 76 179 187 76 178 198 91 191 193 78 185 196 89 189 187 73 178 189 81 181 195 81 186 
192 81 183 212 110 206 170 74 164 192 78 184 185 81 178 192 76 182 186 77 178 183 70 174 206 95 198 199 86 191 207 101 200 199 96 192 187 74 178 203 81 195 197 91 188 197 90 190 
188 81 180 199 87 190 202 93 194 182 77 175 191 80 182 203 101 196 187 76 178 197 91 188 200 93 192 189 77 180 187 76 177 215 104 208 187 80 180 194 89 185 182 73 175 177 76 170 
210 103 203 185 73 176 182 72 172 204 91 196 194 82 185 196 91 187 187 73 178 169 65 162 181 76 174 196 87 188 188 80 180 183 73 174 196 85 187 196 83 187 194 90 186 199 96 193 
186 73 178 187 70 178 192 87 184 169 67 161 191 85 184 183 74 174 190 83 182 199 83 191 187 73 178 206 93 198 195 81 185 190 78 181 191 78 182 197 91 188 191 76 181 182 72 174 
195 83 187 183 70 174 184 74 175 178 69 170 199 91 191 192 83 182 199 94 193 202 95 195 178 70 170 184 70 175 184 85 176 195 89 187 193 78 183 185 80 178 184 74 175 196 85 187 
197 91 188 199 90 191 183 73 175 192 93 185 216 103 208 191 80 183 198 99 192 199 87 193 196 87 187 208 98 200 184 76 177 200 94 193 215 118 211 196 89 188 189 81 181 176 69 168 
