P3
16 16
255
161 44 151 180 57 169 180 57 169 161 44 151 161 44 151 179 56 169 179 56 169 165 46 155 158 43 148 179 56 169 179 56 169 165 46 155 161 44 151 179 56 169 179 56 169 154 42 145 
179 56 169 151 41 142 152 42 143 171 49 161 171 49 161 153 42 144 151 41 142 171 49 161 171 49 161 152 42 143 151 41 142 171 49 161 171 49 161 153 42 144 152 42 143 161 44 151 
180 57 169 153 42 144 171 49 161 185 62 174 185 62 174 171 49 161 171 49 161 185 62 174 185 62 174 171 49 161 169 48 159 186 63 175 186 63 175 170 49 160 153 42 144 158 43 148 
161 44 151 171 49 161 185 62 174 186 63 175 183 60 173 183 60 173 186 63 175 186 63 175 186 63 175 185 62 174 183 60 173 186 63 175 186 63 175 186 63 175 171 49 161 148 41 139 
158 43 148 171 49 161 186 63 175 186 63 175 186 63 175 186 63 175 186 63 175 186 63 175 186 63 175 186 63 175 188 65 177 185 62 174 185 62 174 185 62 174 171 49 161 148 41 139 
179 56 169 153 42 144 171 49 161 185 62 174 185 62 174 186 63 175 186 63 175 186 63 175 185 62 174 185 62 174 186 63 175 186 63 175 186 63 175 171 49 161 153 42 144 161 44 151 
180 57 169 152 42 143 171 49 161 186 63 175 188 65 177 186 63 175 181 58 171 186 63 175 186 63 175 183 60 173 186 63 175 185 62 174 185 62 174 171 49 161 152 42 143 160 44 150 
161 44 151 171 49 161 183 60 173 185 62 174 185 62 174 183 60 173 185 62 174 185 62 174 183 60 173 185 62 174 185 62 174 186 63 175 185 62 174 186 63 175 171 49 161 146 40 137 
161 44 151 171 49 161 181 58 171 186 63 175 186 63 175 186 63 175 186 63 175 183 60 173 185 62 174 186 63 175 186 63 175 185 62 174 185 62 174 185 62 174 171 49 161 148 41 139 
179 56 169 152 42 143 171 49 161 186 63 175 186 63 175 185 62 174 186 63 175 185 62 174 185 62 174 186 63 175 186 63 175 185 62 174 186 63 175 170 49 160 152 42 143 161 44 151 
178 54 167 151 41 142 170 49 160 186 63 175 186 63 175 186 63 175 186 63 175 186 63 175 186 63 175 186 63 175 186 63 175 185 62 174 185 62 174 171 49 161 152 42 143 158 43 148 
161 44 151 171 49 161 186 63 175 186 63 175 185 62 174 181 58 171 185 62 174 186 63 175 186 63 175 186 63 175 186 63 175 186 63 175 185 62 174 186 63 175 171 49 161 148 41 139 
161 44 151 171 49 161 188 65 177 185 62 174 186 63 175 188 65 177 186 63 175 186 63 175 185 62 174 185 62 174 186 63 175 186 63 175 186 63 175 186 63 175 171 49 161 148 41 139 
180 57 169 152 42 143 169 48 159 186 63 175 183 60 173 171 49 161 171 49 161 186 63 175 183 60 173 171 49 161 171 49 161 183 60 173 186 63 175 171 49 161 151 41 142 161 44 151 
179 56 169 150 41 141 151 41 142 171 49 161 170 49 160 152 42 143 150 41 141 171 49 161 171 49 161 153 42 144 153 42 144 171 49 161 171 49 161 153 42 144 152 42 143 161 44 151 
153 42 144 161 44 151 158 43 148 148 41 139 148 41 139 160 44 150 161 44 151 148 41 139 148 41 139 158 43 148 161 44 151 146 40 137 148 41 139 160 44 150 160 44 150 148 41 139 
