P3
16 16
255
73 94 39 108 128 49 66 85 45 73 94 39 73 94 39 108 128 49 80 105 44 73 94 39 73 94 39 100 114 51 80 105 44 73 94 39 73 94 39 80 105 44 80 105 44 112 146 45 
108 128 49 66 85 45 100 114 51 108 128 49 80 105 44 100 114 51 112 146 45 73 94 39 66 85 45 80 105 44 100 114 51 73 94 39 108 128 49 73 94 39 100 114 51 100 114 51 
66 85 45 73 94 39 108 128 49 100 114 51 66 85 45 73 94 39 73 94 39 100 114 51 80 105 44 73 94 39 80 105 44 108 128 49 80 105 44 73 94 39 66 85 45 112 146 45 
66 85 45 80 105 44 80 105 44 66 85 45 112 146 45 108 128 49 100 114 51 100 114 51 80 105 44 80 105 44 73 94 39 80 105 44 108 128 49 108 128 49 100 114 51 73 94 39 
73 94 39 66 85 45 80 105 44 112 146 45 73 94 39 100 114 51 112 146 45 73 94 39 100 114 51 73 94 39 73 94 39 108 128 49 112 146 45 100 114 51 100 114 51 80 105 44 
80 105 44 100 114 51 80 105 44 66 85 45 100 114 51 100 114 51 100 114 51 73 94 39 73 94 39 108 128 49 100 114 51 66 85 45 73 94 39 100 114 51 73 94 39 100 114 51 
108 128 49 80 105 44 73 94 39 73 94 39 80 105 44 100 114 51 73 94 39 66 85 45 100 114 51 100 114 51 73 94 39 112 146 45 100 114 51 66 85 45 80 105 44 73 94 39 
66 85 45 108 128 49 73 94 39 80 105 44 66 85 45 73 94 39 108 128 49 100 114 51 73 94 39 100 114 51 112 146 45 108 128 49 100 114 51 112 146 45 73 94 39 112 146 45 
73 94 39 80 105 44 73 94 39 80 105 44 73 94 39 80 105 44 100 114 51 108 128 49 100 114 51 100 114 51 100 114 51 73 94 39 100 114 51 100 114 51 112 146 45 100 114 51 
73 94 39 73 94 39 108 128 49 112 146 45 80 105 44 100 114 51 73 94 39 100 114 51 73 94 39 112 146 45 108 128 49 80 105 44 73 94 39 80 105 44 73 94 39 100 114 51 
80 105 44 108 128 49 112 146 45 100 114 51 73 94 39 73 94 39 108 128 49 100 114 51 100 114 51 73 94 39 100 114 51 100 114 51 66 85 45 73 94 39 112 146 45 100 114 51 
80 105 44 80 105 44 73 94 39 66 85 45 100 114 51 100 114 51 100 114 51 73 94 39 112 146 45 73 94 39 100 114 51 73 94 39 73 94 39 100 114 51 80 105 44 73 94 39 
100 114 51 80 105 44 80 105 44 108 128 49 100 114 51 73 94 39 112 146 45 108 128 49 73 94 39 100 114 51 73 94 39 80 105 44 108 128 49 100 114 51 73 94 39 100 114 51 
80 105 44 108 128 49 80 105 44 112 146 45 73 94 39 100 114 51 108 128 49 100 114 51 73 94 39 73 94 39 108 128 49 100 114 51 73 94 39 112 146 45 108 128 49 100 114 51 
73 94 39 100 114 51 80 105 44 66 85 45 108 128 49 100 114 51 80 105 44 80 105 44 100 114 51 80 105 44 112 146 45 108 128 49 100 114 51 108 128 49 100 114 51 100 114 51 
100 114 51 73 94 39 73 94 39 73 94 39 112 146 45 100 114 51 100 114 51 80 105 44 80 105 44 112 146 45 100 114 51 100 114 51 80 105 44 73 94 39 100 114 51 108 128 49 
