P3
16 16
255
123 0 0 123 0 0 123 0 0 123 0 0 106 4 0 90 0 0 106 4 0 123 0 0 123 0 0 123 0 0 123 0 0 90 0 0 123 0 0 123 0 0 123 0 0 106 4 0 
123 0 0 123 0 0 106 4 0 106 4 0 148 24 24 172 32 32 123 0 0 90 0 0 123 0 0 106 4 0 106 4 0 90 0 0 90 0 0 123 0 0 123 0 0 106 4 0 
106 4 0 106 4 0 123 0 0 123 0 0 106 4 0 123 0 0 123 0 0 123 0 0 123 0 0 90 0 0 123 0 0 123 0 0 90 0 0 123 0 0 148 24 24 123 0 0 
90 0 0 106 4 0 123 0 0 123 0 0 123 0 0 90 0 0 106 4 0 90 0 0 90 0 0 148 24 24 123 0 0 90 0 0 123 0 0 123 0 0 172 32 32 123 0 0 
90 0 0 172 32 32 123 0 0 123 0 0 123 0 0 90 0 0 90 0 0 123 0 0 106 4 0 123 0 0 106 4 0 106 4 0 106 4 0 123 0 0 123 0 0 106 4 0 
90 0 0 148 24 24 123 0 0 123 0 0 172 32 32 148 24 24 90 0 0 90 0 0 123 0 0 123 0 0 123 0 0 123 0 0 90 0 0 106 4 0 123 0 0 90 0 0 
106 4 0 90 0 0 123 0 0 123 0 0 123 0 0 123 0 0 90 0 0 106 4 0 123 0 0 123 0 0 123 0 0 172 32 32 123 0 0 90 0 0 90 0 0 123 0 0 
123 0 0 106 4 0 90 0 0 123 0 0 106 4 0 90 0 0 123 0 0 106 4 0 106 4 0 123 0 0 123 0 0 148 24 24 106 4 0 90 0 0 123 0 0 123 0 0 
123 0 0 90 0 0 90 0 0 90 0 0 90 0 0 123 0 0 123 0 0 106 4 0 123 0 0 123 0 0 123 0 0 123 0 0 90 0 0 90 0 0 123 0 0 123 0 0 
123 0 0 90 0 0 123 0 0 123 0 0 123 0 0 123 0 0 106 4 0 106 4 0 148 24 24 123 0 0 123 0 0 106 4 0 90 0 0 123 0 0 90 0 0 123 0 0 
90 0 0 106 4 0 123 0 0 123 0 0 90 0 0 106 4 0 106 4 0 90 0 0 172 32 32 106 4 0 123 0 0 90 0 0 106 4 0 123 0 0 123 0 0 106 4 0 
90 0 0 123 0 0 123 0 0 90 0 0 106 4 0 90 0 0 106 4 0 123 0 0 106 4 0 106 4 0 106 4 0 106 4 0 123 0 0 106 4 0 90 0 0 172 32 32 
123 0 0 123 0 0 148 24 24 90 0 0 106 4 0 123 0 0 123 0 0 90 0 0 123 0 0 123 0 0 90 0 0 106 4 0 123 0 0 90 0 0 123 0 0 123 0 0 
123 0 0 106 4 0 123 0 0 90 0 0 106 4 0 123 0 0 90 0 0 123 0 0 123 0 0 106 4 0 90 0 0 123 0 0 123 0 0 123 0 0 90 0 0 123 0 0 
123 0 0 123 0 0 123 0 0 90 0 0 123 0 0 123 0 0 90 0 0 123 0 0 123 0 0 123 0 0 90 0 0 123 0 0 148 24 24 172 32 32 90 0 0 123 0 0 
123 0 0 123 0 0 90 0 0 172 32 32 123 0 0 106 4 0 90 0 0 148 24 24 123 0 0 123 0 0 90 0 0 123 0 0 123 0 0 148 24 24 90 0 0 123 0 0 
