P3
16 16
255
81 21 21 87 33 33 81 21 21 80 27 27 101 40 40 80 27 27 114 50 50 114 50 50 101 40 40 101 40 40 65 22 22 101 40 40 101 40 40 114 50 50 101 40 40 87 33 33 
87 33 33 101 40 40 101 40 40 87 33 33 80 27 27 65 22 22 80 27 27 101 40 40 114 50 50 80 27 27 81 21 21 65 22 22 101 40 40 101 40 40 80 27 27 81 21 21 
114 50 50 101 40 40 114 50 50 101 40 40 87 33 33 65 22 22 81 21 21 80 27 27 101 40 40 87 33 33 80 27 27 81 21 21 101 40 40 80 27 27 101 40 40 114 50 50 
133 66 66 114 50 50 101 40 40 114 50 50 101 40 40 80 27 27 87 33 33 114 50 50 101 40 40 114 50 50 114 50 50 87 33 33 81 21 21 101 40 40 80 27 27 101 40 40 
114 50 50 133 66 66 114 50 50 101 40 40 80 27 27 101 40 40 114 50 50 133 66 66 133 66 66 101 40 40 114 50 50 114 50 50 80 27 27 114 50 50 101 40 40 87 33 33 
81 21 21 114 50 50 101 40 40 87 33 33 81 21 21 114 50 50 133 66 66 133 66 66 114 50 50 114 50 50 101 40 40 80 27 27 101 40 40 101 40 40 114 50 50 101 40 40 
81 21 21 101 40 40 114 50 50 80 27 27 65 22 22 114 50 50 101 40 40 114 50 50 114 50 50 101 40 40 80 27 27 81 21 21 101 40 40 114 50 50 133 66 66 114 50 50 
114 50 50 87 33 33 81 21 21 65 22 22 80 27 27 101 40 40 114 50 50 101 40 40 81 21 21 81 21 21 114 50 50 101 40 40 80 27 27 101 40 40 133 66 66 133 66 66 
101 40 40 80 27 27 101 40 40 114 50 50 101 40 40 80 27 27 80 27 27 81 21 21 101 40 40 101 40 40 114 50 50 114 50 50 101 40 40 81 21 21 101 40 40 114 50 50 
80 27 27 101 40 40 114 50 50 133 66 66 114 50 50 101 40 40 65 22 22 80 27 27 101 40 40 114 50 50 101 40 40 114 50 50 114 50 50 81 21 21 81 21 21 80 27 27 
87 33 33 114 50 50 101 40 40 114 50 50 114 50 50 101 40 40 65 22 22 80 27 27 114 50 50 133 66 66 114 50 50 114 50 50 80 27 27 65 22 22 65 22 22 80 27 27 
101 40 40 80 27 27 80 27 27 114 50 50 101 40 40 80 27 27 81 21 21 65 22 22 80 27 27 114 50 50 101 40 40 81 21 21 65 22 22 80 27 27 87 33 33 80 27 27 
81 21 21 101 40 40 114 50 50 101 40 40 80 27 27 114 50 50 101 40 40 81 21 21 80 27 27 80 27 27 81 21 21 114 50 50 101 40 40 114 50 50 101 40 40 81 21 21 
87 33 33 114 50 50 101 40 40 114 50 50 114 50 50 133 66 66 114 50 50 81 21 21 80 27 27 80 27 27 87 33 33 101 40 40 114 50 50 133 66 66 114 50 50 81 21 21 
80 27 27 101 40 40 114 50 50 114 50 50 133 66 66 101 40 40 80 27 27 87 33 33 80 27 27 65 22 22 101 40 40 114 50 50 101 40 40 114 50 50 101 40 40 101 40 40 
80 27 27 80 27 27 101 40 40 114 50 50 114 50 50 80 27 27 101 40 40 114 50 50 87 33 33 65 22 22 80 27 27 101 40 40 114 50 50 114 50 50 101 40 40 101 40 40 
