P3
16 16
255
41 40 32 41 40 32 41 40 32 41 40 32 41 40 32 41 40 32 41 40 32 41 40 32 41 40 32 41 40 32 41 40 32 41 40 32 41 40 32 41 40 32 41 40 32 41 40 32 
41 40 32 90 60 41 123 80 57 148 93 65 148 93 65 123 80 57 123 80 57 148 93 65 148 93 65 148 93 65 148 93 65 123 80 57 148 93 65 123 80 57 90 60 41 41 40 32 
41 40 32 123 80 57 148 93 65 65 40 24 148 93 65 65 40 24 148 93 65 65 40 24 148 93 65 65 40 24 148 93 65 65 40 24 123 80 57 65 40 24 123 80 57 41 40 32 
41 40 32 148 93 65 65 40 24 148 93 65 90 52 32 65 40 24 90 52 32 148 93 65 90 52 32 65 40 24 90 52 32 148 93 65 90 52 32 65 40 24 148 93 65 41 40 32 
41 40 32 148 93 65 148 93 65 65 40 24 148 93 65 90 52 32 148 93 65 65 40 24 148 93 65 90 52 32 148 93 65 65 40 24 123 80 57 90 52 32 148 93 65 41 40 32 
41 40 32 123 80 57 90 52 32 65 40 24 90 52 32 148 93 65 90 52 32 65 40 24 90 52 32 148 93 65 90 52 32 65 40 24 90 52 32 123 80 57 148 93 65 41 40 32 
41 40 32 148 93 65 148 93 65 90 52 32 148 93 65 65 40 24 148 93 65 90 52 32 123 80 57 65 40 24 148 93 65 90 52 32 123 80 57 65 40 24 123 80 57 41 40 32 
41 40 32 123 80 57 65 40 24 148 93 65 90 52 32 65 40 24 90 52 32 148 93 65 90 52 32 65 40 24 90 52 32 148 93 65 90 52 32 65 40 24 90 60 41 41 40 32 
41 40 32 90 60 41 123 80 57 65 40 24 148 93 65 90 52 32 123 80 57 65 40 24 148 93 65 90 52 32 123 80 57 65 40 24 123 80 57 90 52 32 148 93 65 41 40 32 
41 40 32 123 80 57 90 52 32 65 40 24 90 52 32 148 93 65 90 52 32 65 40 24 90 52 32 148 93 65 90 52 32 65 40 24 90 52 32 123 80 57 123 80 57 41 40 32 
41 40 32 148 93 65 123 80 57 90 52 32 123 80 57 65 40 24 148 93 65 90 52 32 123 80 57 65 40 24 148 93 65 90 52 32 123 80 57 65 40 24 123 80 57 41 40 32 
41 40 32 123 80 57 65 40 24 123 80 57 90 52 32 65 40 24 90 52 32 123 80 57 90 52 32 65 40 24 90 52 32 123 80 57 90 52 32 65 40 24 90 60 41 41 40 32 
41 40 32 123 80 57 90 60 41 65 40 24 123 80 57 90 52 32 123 80 57 65 40 24 123 80 57 90 52 32 123 80 57 65 40 24 123 80 57 65 40 24 123 80 57 41 40 32 
41 40 32 90 60 41 65 40 24 65 40 24 65 40 24 123 80 57 65 40 24 65 40 24 65 40 24 123 80 57 65 40 24 65 40 24 65 40 24 123 80 57 90 60 41 41 40 32 
41 40 32 90 60 41 90 60 41 90 60 41 90 60 41 90 60 41 90 60 41 90 60 41 90 60 41 90 60 41 90 60 41 90 60 41 90 60 41 90 60 41 90 60 41 41 40 32 
41 40 32 41 40 32 41 40 32 41 40 32 41 40 32 41 40 32 41 40 32 41 40 32 41 40 32 41 40 32 41 40 32 41 40 32 41 40 32 41 40 32 41 40 32 41 40 32 
