P3
16 16
255
56 56 56 53 53 53 53 53 53 51 51 51 48 48 48 47 47 47 59 59 59 59 59 59 36 36 36 59 59 59 56 56 56 53 53 53 59 59 59 39 39 39 54 54 54 50 50 50 
56 56 56 108 108 108 90 90 90 97 97 97 71 71 71 87 87 87 114 114 114 114 114 114 76 76 76 97 97 97 100 100 100 97 97 97 87 87 87 69 69 69 86 86 86 50 50 50 
41 41 41 82 82 82 120 120 120 85 85 85 98 98 98 143 143 143 143 143 143 122 122 122 101 101 101 81 81 81 132 132 132 127 127 127 95 95 95 120 120 120 80 80 80 48 48 48 
59 59 59 80 80 80 92 92 92 111 111 111 152 152 152 103 103 103 122 122 122 175 175 175 87 87 87 110 110 110 89 89 89 91 91 91 105 105 105 139 139 139 105 105 105 41 41 41 
56 56 56 114 114 114 120 120 120 105 105 105 143 143 143 123 123 123 175 175 175 157 157 157 101 101 101 87 87 87 149 149 149 148 148 148 115 115 115 134 134 134 112 112 112 36 36 36 
43 43 43 89 89 89 126 126 126 111 111 111 124 124 124 122 122 122 175 175 175 143 143 143 122 122 122 87 87 87 124 124 124 131 131 131 123 123 123 101 101 101 56 56 56 36 36 36 
50 50 50 97 97 97 127 127 127 111 111 111 116 116 116 175 175 175 157 157 157 143 143 143 122 122 122 101 101 101 59 59 59 127 127 127 130 130 130 135 135 135 97 97 97 35 35 35 
47 47 47 92 92 92 91 91 91 101 101 101 122 122 122 175 175 175 143 143 143 143 143 143 122 122 122 122 122 122 59 59 59 124 124 124 135 135 135 89 89 89 97 97 97 58 58 58 
47 47 47 68 68 68 112 112 112 122 122 122 175 175 175 157 157 157 143 143 143 143 143 143 122 122 122 101 101 101 87 87 87 59 59 59 93 93 93 75 75 75 120 120 120 59 59 59 
41 41 41 82 82 82 144 144 144 146 146 146 175 175 175 143 143 143 143 143 143 143 143 143 122 122 122 101 101 101 122 122 122 59 59 59 107 107 107 151 151 151 80 80 80 48 48 48 
59 59 59 80 80 80 119 119 119 175 175 175 157 157 157 143 143 143 122 122 122 143 143 143 101 101 101 101 101 101 122 122 122 87 87 87 59 59 59 106 106 106 105 105 105 41 41 41 
56 56 56 114 114 114 136 136 136 175 175 175 143 143 143 143 143 143 122 122 122 126 126 126 101 101 101 101 101 101 101 101 101 122 122 122 59 59 59 106 106 106 112 112 112 36 36 36 
43 43 43 89 89 89 175 175 175 157 157 157 143 143 143 122 122 122 122 122 122 101 101 101 101 101 101 101 101 101 122 122 122 122 122 122 87 87 87 59 59 59 56 56 56 36 36 36 
50 50 50 97 97 97 157 157 157 175 175 175 175 175 175 175 175 175 175 175 175 122 122 122 122 122 122 87 87 87 87 87 87 59 59 59 59 59 59 59 59 59 87 87 87 35 35 35 
56 56 56 108 108 108 90 90 90 97 97 97 71 71 71 87 87 87 87 87 87 114 114 114 101 101 101 97 97 97 100 100 100 101 101 101 87 87 87 87 87 87 86 86 86 50 50 50 
56 56 56 53 53 53 53 53 53 51 51 51 48 48 48 47 47 47 87 87 87 59 59 59 36 36 36 59 59 59 56 56 56 53 53 53 59 59 59 39 39 39 54 54 54 50 50 50 
