P3
16 16
255
41 41 41 41 41 41 41 41 41 41 41 41 41 41 41 59 59 59 59 59 59 59 59 59 59 59 59 59 59 59 41 41 41 41 41 41 41 41 41 41 41 41 41 41 41 41 41 41 
59 59 59 122 122 122 143 143 143 122 122 122 143 143 143 143 143 143 122 122 122 122 122 122 143 143 143 143 143 143 143 143 143 143 143 143 143 143 143 143 143 143 122 122 122 59 59 59 
41 41 41 101 101 101 87 87 87 87 87 87 101 101 101 87 87 87 87 87 87 101 101 101 101 101 101 122 122 122 122 122 122 122 122 122 122 122 122 101 101 101 101 101 101 59 59 59 
41 41 41 50 50 50 50 50 50 59 59 59 59 59 59 59 59 59 59 59 59 59 59 59 50 50 50 41 41 41 50 50 50 50 50 50 59 59 59 59 59 59 50 50 50 41 41 41 
35 35 35 35 35 35 41 38 38 41 38 38 41 38 38 41 38 38 35 35 35 50 50 50 59 59 59 35 35 35 35 35 35 35 35 35 41 38 38 41 38 38 41 38 38 41 38 38 
53 52 52 53 52 52 61 60 60 53 52 52 61 60 60 53 52 52 61 60 60 122 122 122 101 101 101 53 52 52 53 52 52 70 66 66 53 52 52 61 60 60 53 52 52 53 52 52 
70 66 66 53 52 52 70 66 66 53 52 52 61 60 60 53 52 52 101 101 101 50 50 50 50 50 50 101 101 101 53 52 52 70 66 66 53 52 52 70 66 66 53 52 52 70 66 66 
61 60 60 53 52 52 70 66 66 61 60 60 70 66 66 61 60 60 50 50 50 120 4 1 74 1 2 50 50 50 61 60 60 70 66 66 61 60 60 70 66 66 53 52 52 61 60 60 
70 66 66 61 60 60 70 66 66 70 66 66 70 66 66 61 60 60 50 50 50 74 1 2 37 1 3 59 59 59 61 60 60 70 66 66 70 66 66 70 66 66 53 52 52 70 66 66 
70 66 66 61 60 60 70 66 66 61 60 60 70 66 66 61 60 60 70 66 66 50 50 50 59 59 59 70 66 66 70 66 66 70 66 66 70 66 66 70 66 66 61 60 60 70 66 66 
70 66 66 70 66 66 70 66 66 53 52 52 70 66 66 70 66 66 70 66 66 143 143 143 122 122 122 70 66 66 70 66 66 70 66 66 61 60 60 70 66 66 70 66 66 61 60 60 
61 60 60 70 66 66 61 60 60 70 66 66 70 66 66 70 66 66 70 66 66 101 101 101 87 87 87 70 66 66 70 66 66 61 60 60 53 52 52 70 66 66 70 66 66 61 60 60 
59 59 59 59 59 59 41 41 41 41 41 41 59 59 59 59 59 59 59 59 59 101 101 101 87 87 87 59 59 59 59 59 59 59 59 59 41 41 41 59 59 59 59 59 59 41 41 41 
41 41 41 122 122 122 143 143 143 143 143 143 143 143 143 143 143 143 122 122 122 122 122 122 101 101 101 101 101 101 101 101 101 122 122 122 122 122 122 122 122 122 101 101 101 59 59 59 
59 59 59 101 101 101 87 87 87 87 87 87 122 122 122 122 122 122 122 122 122 101 101 101 101 101 101 87 87 87 101 101 101 87 87 87 87 87 87 101 101 101 101 101 101 59 59 59 
59 59 59 59 59 59 59 59 59 59 59 59 41 41 41 41 41 41 59 59 59 41 41 41 59 59 59 59 59 59 59 59 59 59 59 59 59 59 59 41 41 41 59 59 59 59 59 59 
