P3
16 16
255
41 41 41 41 41 41 41 41 41 41 41 41 41 41 41 59 59 59 59 59 59 59 59 59 59 59 59 59 59 59 41 41 41 41 41 41 41 41 41 41 41 41 41 41 41 41 41 41 
59 59 59 122 122 122 143 143 143 143 143 143 143 143 143 143 143 143 122 122 122 122 122 122 143 143 143 143 143 143 143 143 143 122 122 122 143 143 143 122 122 122 122 122 122 59 59 59 
41 41 41 101 101 101 87 87 87 87 87 87 87 87 87 87 87 87 101 101 101 122 122 122 122 122 122 122 122 122 101 101 101 101 101 101 101 101 101 87 87 87 101 101 101 59 59 59 
41 41 41 41 41 41 41 41 41 50 50 50 50 50 50 59 59 59 59 59 59 59 59 59 59 59 59 59 59 59 59 59 59 41 41 41 41 41 41 50 50 50 50 50 50 41 41 41 
35 35 35 35 35 35 41 38 38 41 38 38 41 38 38 41 38 38 35 35 35 35 35 35 35 35 35 35 35 35 35 35 35 35 35 35 41 38 38 41 38 38 41 38 38 41 38 38 
61 60 60 70 66 66 70 66 66 61 60 60 61 60 60 53 52 52 53 52 52 61 60 60 70 66 66 70 66 66 61 60 60 61 60 60 53 52 52 61 60 60 53 52 52 61 60 60 
53 52 52 197 197 197 197 197 197 197 197 197 197 197 197 197 197 197 175 175 175 197 197 197 175 175 175 197 197 197 197 197 197 175 175 175 175 175 175 175 175 175 175 175 175 61 60 60 
53 52 52 197 197 197 175 175 175 175 175 175 175 175 175 157 157 157 157 157 157 157 157 157 157 157 157 157 157 157 157 157 157 175 175 175 175 175 175 157 157 157 142 142 142 53 52 52 
61 60 60 61 60 60 101 101 101 101 101 101 101 101 101 101 101 101 61 60 60 175 175 175 157 157 157 61 60 60 101 101 101 101 101 101 101 101 101 101 101 101 61 60 60 61 60 60 
61 60 60 101 101 101 142 142 142 0 0 0 0 0 0 175 175 175 142 142 142 157 157 157 157 157 157 142 142 142 142 142 142 0 0 0 0 0 0 175 175 175 101 101 101 61 60 60 
53 52 52 121 121 121 175 175 175 35 35 35 101 101 101 197 197 197 175 175 175 157 157 157 175 175 175 157 157 157 157 157 157 35 35 35 101 101 101 197 197 197 121 121 121 61 60 60 
53 52 52 121 121 121 175 175 175 197 197 197 197 197 197 175 175 175 175 175 175 157 157 157 157 157 157 157 157 157 175 175 175 197 197 197 197 197 197 157 157 157 121 121 121 61 60 60 
41 41 41 121 121 121 175 175 175 175 175 175 175 175 175 175 175 175 157 157 157 101 101 101 101 101 101 157 157 157 157 157 157 157 157 157 157 157 157 157 157 157 121 121 121 41 41 41 
41 41 41 121 121 121 157 157 157 175 175 175 175 175 175 175 175 175 175 175 175 175 175 175 175 175 175 157 157 157 157 157 157 157 157 157 175 175 175 175 175 175 121 121 121 59 59 59 
59 59 59 101 101 101 121 121 121 121 121 121 121 121 121 121 121 121 121 121 121 121 121 121 121 121 121 121 121 121 121 121 121 121 121 121 121 121 121 121 121 121 101 101 101 59 59 59 
59 59 59 59 59 59 59 59 59 59 59 59 41 41 41 41 41 41 59 59 59 41 41 41 59 59 59 59 59 59 59 59 59 59 59 59 59 59 59 41 41 41 59 59 59 59 59 59 
