P3
16 16
255
255 255 255 255 255 255 255 255 255 255 255 255 255 255 255 255 255 255 255 255 255 255 255 255 255 255 255 255 255 255 255 255 255 255 255 255 255 255 255 255 255 255 255 255 255 255 255 255 
255 255 255 255 255 255 255 255 255 255 255 255 255 255 255 255 255 255 255 255 255 255 255 255 255 255 255 255 255 255 255 255 255 255 255 255 255 255 255 255 255 255 255 255 255 255 255 255 
255 255 255 255 255 255 255 255 255 255 255 255 255 255 255 255 255 255 255 255 255 255 255 255 255 255 255 255 255 255 255 255 255 255 255 255 255 255 255 255 255 255 255 255 255 255 255 255 
255 255 255 255 255 255 255 255 255 255 255 255 255 255 255 255 255 255 255 255 255 255 255 255 255 255 255 255 255 255 255 255 255 255 255 255 255 255 255 255 255 255 255 255 255 255 255 255 
255 255 255 255 255 255 255 255 255 255 255 255 255 255 255 255 255 255 255 255 255 255 255 255 255 255 255 255 255 255 228 175 244 255 255 255 255 255 255 255 255 255 255 255 255 255 255 255 
255 255 255 255 255 255 255 255 255 235 197 253 235 197 253 235 197 253 255 255 255 255 255 255 255 255 255 228 175 244 235 197 253 228 175 244 255 255 255 255 255 255 255 255 255 255 255 255 
255 255 255 255 255 255 228 175 244 227 161 247 228 175 244 235 197 253 235 197 253 255 255 255 38 90 37 222 147 241 235 197 253 246 226 255 227 161 247 235 197 253 255 255 255 255 255 255 
255 255 255 255 255 255 235 197 253 228 175 244 227 161 247 246 226 255 222 147 241 32 70 38 38 99 37 32 70 38 222 147 241 235 197 253 228 175 244 228 175 244 255 255 255 255 255 255 
255 255 255 255 255 255 228 175 244 235 197 253 235 197 253 228 175 244 222 147 241 32 70 38 38 99 37 38 90 37 26 56 31 222 147 241 222 147 241 255 255 255 255 255 255 255 255 255 
255 255 255 255 255 255 255 255 255 222 147 241 222 147 241 26 56 31 32 70 38 38 99 37 38 90 37 26 56 31 32 70 38 255 255 255 38 99 37 38 90 37 255 255 255 255 255 255 
255 255 255 255 255 255 255 255 255 255 255 255 38 90 37 38 90 37 26 56 31 38 90 37 32 70 38 26 56 31 38 90 37 38 99 37 32 70 38 255 255 255 255 255 255 255 255 255 
255 255 255 38 90 37 38 99 37 38 99 37 26 56 31 32 70 38 26 56 31 32 70 38 26 56 31 38 90 37 26 56 31 26 56 31 255 255 255 255 255 255 255 255 255 255 255 255 
255 255 255 255 255 255 32 70 38 38 90 37 38 99 37 26 56 31 235 197 253 228 175 244 26 56 31 26 56 31 32 70 38 38 99 37 38 99 37 38 90 37 255 255 255 255 255 255 
255 255 255 255 255 255 255 255 255 255 255 255 228 175 244 228 175 244 227 161 247 235 197 253 228 175 244 32 70 38 38 99 37 38 90 37 235 197 253 228 175 244 255 255 255 255 255 255 
255 255 255 255 255 255 255 255 255 255 255 255 228 175 244 235 197 253 235 197 253 246 226 255 222 147 241 26 56 31 32 70 38 26 56 31 235 197 253 235 197 253 255 255 255 255 255 255 
255 255 255 255 255 255 255 255 255 255 255 255 255 255 255 228 175 244 222 147 241 222 147 241 26 56 31 32 70 38 26 56 31 32 70 38 255 255 255 255 255 255 255 255 255 255 255 255 
