P3
16 16
255
160 77 78 159 76 77 159 76 77 159 76 77 160 76 78 163 79 81 166 82 82 164 81 81 159 77 77 166 82 81 164 82 81 160 77 77 158 74 75 158 74 75 159 75 75 160 77 77 
160 77 78 162 77 78 166 82 82 167 82 82 167 80 82 163 79 83 160 78 78 160 77 77 160 78 77 163 80 78 165 82 82 164 81 81 159 75 76 162 77 78 162 77 78 159 76 77 
160 78 79 155 77 78 160 78 78 160 77 77 159 75 76 158 75 76 159 75 76 160 77 77 164 80 80 162 79 80 162 80 80 162 79 80 160 78 79 163 82 80 163 79 78 163 79 76 
163 80 80 164 82 81 163 79 79 162 76 76 158 75 76 157 74 75 159 76 77 166 78 79 162 78 79 160 77 78 160 77 78 160 79 78 162 78 79 162 78 79 162 77 76 160 77 76 
163 79 79 167 82 82 165 81 82 164 80 80 163 80 80 157 74 75 159 75 75 160 75 75 160 75 78 159 76 77 168 82 82 168 82 82 163 78 78 160 77 78 163 79 79 160 77 77 
167 82 82 163 79 79 164 80 81 160 78 79 160 76 76 163 78 78 163 78 78 162 78 79 162 78 79 162 78 79 163 79 79 163 80 80 163 80 80 163 79 79 160 77 78 167 82 82 
164 80 80 164 81 81 163 80 81 160 78 79 160 77 77 159 76 77 162 77 79 167 78 82 162 76 76 159 76 77 160 77 78 163 79 79 164 82 81 165 81 81 164 80 79 160 76 76 
164 80 82 162 77 78 160 77 77 159 76 77 164 80 80 164 80 80 159 76 77 164 81 80 166 81 81 162 78 79 160 77 78 162 78 79 162 78 79 163 79 79 164 80 81 164 80 81 
164 80 82 164 81 81 163 81 81 157 74 75 160 77 78 159 75 76 160 77 78 160 77 78 160 77 78 163 80 81 166 81 81 165 82 81 166 81 81 166 82 82 167 82 83 162 78 79 
164 80 81 162 78 79 160 77 78 159 75 76 159 75 76 159 76 77 160 77 78 159 76 77 162 78 79 160 78 77 160 77 78 160 77 78 162 80 80 162 80 80 168 83 82 165 82 82 
162 77 76 163 78 78 160 78 79 159 75 76 159 75 77 168 82 82 168 82 82 160 75 74 162 79 80 163 80 80 167 82 82 166 82 82 163 78 78 162 79 78 162 77 78 159 76 77 
159 75 77 162 77 78 163 78 78 160 77 78 159 76 77 163 78 78 162 79 80 160 77 79 166 81 81 167 82 82 164 80 81 163 80 80 163 80 80 165 82 81 164 81 81 162 78 79 
160 75 78 160 77 78 160 77 78 162 77 78 160 78 77 162 76 76 159 76 77 160 77 78 168 83 84 169 80 80 160 77 77 159 75 76 160 76 76 162 79 78 162 78 79 163 79 79 
162 79 80 163 80 79 163 80 79 164 82 81 160 80 79 164 83 82 162 77 76 159 75 76 160 77 77 162 76 76 155 76 73 159 76 77 162 76 76 163 78 78 165 83 81 167 82 82 
162 78 79 160 80 79 160 78 79 163 73 73 158 74 75 160 77 78 162 76 76 159 76 77 160 77 78 160 78 79 163 80 80 164 80 79 162 77 78 159 77 76 162 76 76 164 80 80 
160 78 79 162 79 80 162 79 80 160 80 79 160 80 79 164 80 81 167 82 82 163 80 81 160 79 79 163 80 81 163 79 79 162 76 76 160 75 75 159 75 75 162 77 78 162 79 80 
