P3
16 16
255
219 219 219 202 196 196 124 98 62 124 98 62 124 98 62 105 84 51 105 84 51 219 219 219 219 219 219 105 84 51 124 98 62 124 98 62 124 98 62 124 98 62 202 196 196 219 219 219 
202 196 196 202 196 196 188 152 98 132 199 116 132 199 116 179 140 81 112 88 56 202 196 196 202 196 196 188 152 98 132 199 116 107 185 89 94 156 79 188 152 98 202 196 196 202 196 196 
105 84 51 94 156 79 132 199 116 171 235 156 107 185 89 94 156 79 63 116 50 159 132 77 94 156 79 132 199 116 171 235 156 132 199 116 107 185 89 94 156 79 159 132 77 124 98 62 
105 84 51 51 97 40 94 156 79 94 156 79 94 156 79 63 116 50 63 116 50 51 97 40 51 97 40 63 116 50 51 97 40 107 185 89 94 156 79 51 97 40 63 116 50 105 84 51 
124 98 62 94 156 79 107 185 89 132 199 116 132 199 116 171 235 156 107 185 89 94 156 79 63 116 50 107 185 89 132 199 116 171 235 156 171 235 156 132 199 116 94 156 79 63 116 50 
124 98 62 159 132 77 94 156 79 107 185 89 132 199 116 107 185 89 94 156 79 159 132 77 63 116 50 94 156 79 107 185 89 132 199 116 107 185 89 94 156 79 159 132 77 105 84 51 
124 98 62 124 98 62 124 98 62 51 97 40 94 156 79 51 97 40 63 116 50 63 116 50 63 116 50 63 116 50 94 156 79 107 185 89 94 156 79 63 116 50 105 84 51 105 84 51 
219 219 219 202 196 196 132 199 116 188 152 98 51 97 40 132 199 116 171 235 156 132 199 116 107 185 89 107 185 89 132 199 116 107 185 89 107 185 89 94 156 79 202 196 196 219 219 219 
202 196 196 202 196 196 107 185 89 94 156 79 63 116 50 94 156 79 132 199 116 94 156 79 107 185 89 107 185 89 51 97 40 132 199 116 94 156 79 159 132 77 202 196 196 202 196 196 
105 84 51 112 88 56 63 116 50 63 116 50 51 97 40 51 97 40 51 97 40 63 116 50 51 97 40 94 156 79 63 116 50 51 97 40 51 97 40 124 98 62 124 98 62 124 98 62 
124 98 62 179 140 81 188 152 98 107 185 89 171 235 156 132 199 116 132 199 116 51 97 40 107 185 89 132 199 116 132 199 116 171 235 156 132 199 116 94 156 79 188 152 98 124 98 62 
124 98 62 179 140 81 107 185 89 132 199 116 132 199 116 132 199 116 107 185 89 51 97 40 159 132 77 94 156 79 107 185 89 132 199 116 94 156 79 179 140 81 179 140 81 124 98 62 
105 84 51 105 84 51 63 116 50 63 116 50 132 199 116 51 97 40 63 116 50 51 97 40 63 116 50 51 97 40 51 97 40 63 116 50 51 97 40 51 97 40 105 84 51 124 98 62 
124 98 62 188 152 98 179 140 81 94 156 79 107 185 89 171 235 156 94 156 79 179 140 81 63 116 50 94 156 79 171 235 156 107 185 89 94 156 79 179 140 81 188 152 98 105 84 51 
219 219 219 202 196 196 159 132 77 159 132 77 94 156 79 94 156 79 179 140 81 219 219 219 219 219 219 159 132 77 94 156 79 94 156 79 159 132 77 159 132 77 202 196 196 219 219 219 
202 196 196 202 196 196 124 98 62 112 88 56 112 88 56 105 84 51 105 84 51 202 196 196 202 196 196 105 84 51 105 84 51 112 88 56 124 98 62 112 88 56 202 196 196 202 196 196 
