P3
16 16
255
226 222 208 221 217 203 234 226 218 226 222 208 234 226 218 234 226 218 238 234 230 234 226 218 242 239 237 234 226 218 242 239 237 226 222 208 238 234 230 221 217 203 234 226 218 221 217 203 
234 226 218 234 226 218 234 226 218 226 222 208 234 226 218 234 226 218 234 226 218 226 222 208 226 222 208 234 226 218 234 226 218 226 222 208 226 222 208 234 226 218 234 226 218 221 217 203 
221 217 203 234 226 218 234 226 218 234 226 218 238 234 230 242 239 237 238 234 230 242 239 237 242 239 237 238 234 230 242 239 237 238 234 230 234 226 218 234 226 218 234 226 218 234 226 218 
238 234 230 226 222 208 234 226 218 238 234 230 242 239 237 242 239 237 238 234 230 238 234 230 242 239 237 242 239 237 242 239 237 242 239 237 238 234 230 234 226 218 226 222 208 226 222 208 
226 222 208 226 222 208 238 234 230 242 239 237 226 222 208 234 226 218 234 226 218 234 226 218 234 226 218 234 226 218 234 226 218 226 222 208 242 239 237 238 234 230 226 222 208 234 226 218 
242 239 237 234 226 218 242 239 237 242 239 237 234 226 218 238 234 230 242 239 237 242 239 237 242 239 237 242 239 237 238 234 230 234 226 218 242 239 237 242 239 237 234 226 218 234 226 218 
234 226 218 234 226 218 242 239 237 238 234 230 234 226 218 242 239 237 234 226 218 234 226 218 234 226 218 234 226 218 242 239 237 234 226 218 242 239 237 242 239 237 234 226 218 238 234 230 
242 239 237 234 226 218 238 234 230 238 234 230 234 226 218 242 239 237 234 226 218 242 239 237 242 239 237 226 222 208 242 239 237 234 226 218 242 239 237 242 239 237 226 222 208 234 226 218 
234 226 218 234 226 218 242 239 237 242 239 237 234 226 218 242 239 237 234 226 218 242 239 237 238 234 230 234 226 218 242 239 237 234 226 218 238 234 230 242 239 237 226 222 208 242 239 237 
238 234 230 234 226 218 242 239 237 242 239 237 234 226 218 242 239 237 234 226 218 234 226 218 226 222 208 226 222 208 242 239 237 234 226 218 238 234 230 238 234 230 234 226 218 234 226 218 
234 226 218 234 226 218 242 239 237 242 239 237 234 226 218 238 234 230 238 234 230 238 234 230 242 239 237 242 239 237 238 234 230 234 226 218 242 239 237 242 239 237 234 226 218 242 239 237 
234 226 218 226 222 208 238 234 230 242 239 237 226 222 208 234 226 218 234 226 218 234 226 218 234 226 218 234 226 218 234 226 218 226 222 208 242 239 237 238 234 230 226 222 208 226 222 208 
226 222 208 226 222 208 234 226 218 238 234 230 242 239 237 242 239 237 242 239 237 242 239 237 242 239 237 242 239 237 242 239 237 242 239 237 238 234 230 234 226 218 226 222 208 238 234 230 
234 226 218 234 226 218 234 226 218 234 226 218 238 234 230 242 239 237 242 239 237 242 239 237 242 239 237 242 239 237 242 239 237 238 234 230 234 226 218 234 226 218 234 226 218 221 217 203 
221 217 203 234 226 218 234 226 218 226 222 208 226 222 208 234 226 218 234 226 218 234 226 218 226 222 208 234 226 218 234 226 218 226 222 208 226 222 208 234 226 218 234 226 218 234 226 218 
226 222 208 234 226 218 221 217 203 238 234 230 226 222 208 242 239 237 234 226 218 242 239 237 234 226 218 238 234 230 234 226 218 234 226 218 221 217 203 234 226 218 221 217 203 221 217 203 
