P3
16 16
255
157 87 63 157 87 63 186 105 76 157 87 63 186 105 76 157 87 63 186 105 76 168 119 98 122 152 105 152 140 105 113 103 69 132 77 59 214 123 91 234 135 112 113 103 69 132 77 59 
132 77 59 157 87 63 157 87 63 157 87 63 157 87 63 132 77 59 234 135 112 251 168 148 168 119 98 113 103 69 132 77 59 186 105 76 251 168 148 251 168 148 234 135 112 178 98 71 
178 98 71 113 103 69 79 90 62 113 103 69 132 77 59 132 77 59 214 123 91 234 135 112 234 135 112 168 119 98 132 77 59 178 98 71 214 123 91 186 105 76 178 98 71 186 105 76 
157 87 63 113 103 69 113 103 69 127 114 87 122 152 105 113 103 69 132 77 59 186 105 76 214 123 91 186 105 76 157 87 63 132 77 59 157 87 63 178 98 71 186 105 76 157 87 63 
113 103 69 186 105 76 251 168 148 234 135 112 89 149 129 122 152 105 157 87 63 132 77 59 157 87 63 178 98 71 186 105 76 157 87 63 132 77 59 157 87 63 157 87 63 157 87 63 
157 87 63 214 123 91 234 135 112 214 123 91 127 114 87 113 103 69 157 87 63 132 77 59 186 105 76 214 123 91 234 135 112 214 123 91 157 87 63 132 77 59 132 77 59 132 77 59 
186 105 76 186 105 76 157 87 63 157 87 63 132 77 59 157 87 63 132 77 59 132 77 59 214 123 91 234 135 112 251 168 148 168 119 98 156 106 63 122 152 105 113 103 69 157 87 63 
132 77 59 157 87 63 157 87 63 132 77 59 132 77 59 132 77 59 186 105 76 186 105 76 157 87 63 186 105 76 168 119 98 156 106 63 122 152 105 122 152 105 152 140 105 113 103 69 
132 77 59 113 103 69 79 90 62 132 77 59 132 77 59 186 105 76 234 135 112 234 135 112 214 123 91 157 87 63 113 103 69 122 152 105 127 114 87 113 103 69 113 103 69 157 87 63 
178 98 71 132 77 59 79 90 62 113 103 69 157 87 63 234 135 112 251 168 148 234 135 112 234 135 112 157 87 63 157 87 63 132 77 59 178 98 71 178 98 71 79 90 62 113 103 69 
186 105 76 157 87 63 113 103 69 79 90 62 157 87 63 186 105 76 234 135 112 214 123 91 186 105 76 157 87 63 132 77 59 157 87 63 113 103 69 79 186 152 89 149 129 122 152 105 
178 98 71 157 87 63 132 77 59 113 103 69 132 77 59 132 77 59 113 103 69 156 106 63 157 87 63 132 77 59 157 87 63 113 103 69 58 118 99 89 149 129 58 118 99 127 114 87 
157 87 63 157 87 63 157 87 63 186 105 76 214 123 91 157 87 63 122 152 105 122 152 105 113 103 69 79 90 62 186 105 76 214 123 91 113 103 69 58 118 99 113 103 69 178 98 71 
79 90 62 113 103 69 186 105 76 234 135 112 251 168 148 234 135 112 113 103 69 79 90 62 79 90 62 79 90 62 157 87 63 214 123 91 186 105 76 186 105 76 157 87 63 132 77 59 
79 90 62 186 105 76 214 123 91 234 135 112 234 135 112 214 123 91 132 77 59 79 90 62 89 149 129 113 103 69 132 77 59 186 105 76 214 123 91 113 103 69 79 90 62 58 118 99 
113 103 69 214 123 91 186 105 76 234 135 112 214 123 91 186 105 76 132 77 59 58 118 99 79 186 152 122 152 105 113 103 69 132 77 59 132 77 59 79 90 62 58 118 99 58 118 99 
