P3
16 16
255
250 234 46 250 234 46 201 140 28 174 109 38 174 109 38 201 140 28 238 164 26 250 234 46 238 164 26 201 140 28 201 140 28 238 164 26 247 196 49 247 196 49 238 164 26 238 164 26 
255 247 157 250 234 46 238 164 26 201 140 28 174 109 38 238 164 26 255 247 157 250 234 46 238 164 26 238 164 26 174 109 38 201 140 28 238 164 26 247 196 49 238 164 26 250 234 46 
255 247 157 250 234 46 247 196 49 238 164 26 201 140 28 255 247 157 255 247 157 255 247 157 247 196 49 238 164 26 201 140 28 174 109 38 174 109 38 201 140 28 250 234 46 255 247 157 
247 196 49 238 164 26 238 164 26 201 140 28 247 196 49 255 247 157 255 247 157 250 234 46 250 234 46 247 196 49 238 164 26 201 140 28 174 109 38 174 109 38 174 109 38 247 196 49 
247 196 49 238 164 26 201 140 28 174 109 38 238 164 26 247 196 49 247 196 49 250 234 46 247 196 49 201 140 28 201 140 28 174 109 38 255 247 157 255 247 157 238 164 26 201 140 28 
201 140 28 201 140 28 174 109 38 174 109 38 201 140 28 201 140 28 247 196 49 247 196 49 201 140 28 201 140 28 174 109 38 247 196 49 255 247 157 250 234 46 238 164 26 238 164 26 
238 164 26 201 140 28 250 234 46 255 247 157 247 196 49 174 109 38 201 140 28 247 196 49 201 140 28 174 109 38 174 109 38 250 234 46 250 234 46 247 196 49 247 196 49 238 164 26 
201 140 28 250 234 46 255 247 157 255 247 157 247 196 49 247 196 49 174 109 38 201 140 28 174 109 38 174 109 38 238 164 26 201 140 28 238 164 26 238 164 26 247 196 49 201 140 28 
201 140 28 247 196 49 250 234 46 247 196 49 201 140 28 201 140 28 174 109 38 174 109 38 201 140 28 247 196 49 255 247 157 238 164 26 201 140 28 238 164 26 201 140 28 174 109 38 
174 109 38 174 109 38 201 140 28 247 196 49 201 140 28 201 140 28 174 109 38 201 140 28 247 196 49 255 247 157 255 247 157 247 196 49 238 164 26 201 140 28 174 109 38 174 109 38 
174 109 38 201 140 28 174 109 38 201 140 28 201 140 28 174 109 38 201 140 28 201 140 28 238 164 26 250 234 46 250 234 46 247 196 49 247 196 49 238 164 26 201 140 28 174 109 38 
238 164 26 247 196 49 247 196 49 201 140 28 174 109 38 201 140 28 238 164 26 247 196 49 201 140 28 238 164 26 250 234 46 247 196 49 238 164 26 201 140 28 174 109 38 201 140 28 
247 196 49 247 196 49 250 234 46 247 196 49 201 140 28 201 140 28 247 196 49 247 196 49 238 164 26 201 140 28 238 164 26 238 164 26 201 140 28 250 234 46 247 196 49 201 140 28 
201 140 28 250 234 46 255 247 157 238 164 26 238 164 26 174 109 38 247 196 49 238 164 26 201 140 28 174 109 38 201 140 28 238 164 26 255 247 157 255 247 157 247 196 49 247 196 49 
247 196 49 201 140 28 247 196 49 238 164 26 201 140 28 201 140 28 174 109 38 174 109 38 174 109 38 201 140 28 201 140 28 255 247 157 255 247 157 250 234 46 250 234 46 247 196 49 
201 140 28 174 109 38 174 109 38 201 140 28 201 140 28 174 109 38 174 109 38 201 140 28 201 140 28 174 109 38 238 164 26 247 196 49 250 234 46 250 234 46 250 234 46 238 164 26 
