P3
16 16
255
142 116 84 124 98 63 124 98 63 216 175 147 175 142 119 175 142 119 142 116 84 175 142 119 216 175 147 233 200 177 216 175 147 175 142 119 175 142 119 142 116 84 124 98 63 102 82 55 
233 200 177 175 142 119 142 116 84 142 116 84 142 116 84 142 116 84 124 98 63 142 116 84 175 142 119 216 175 147 175 142 119 142 116 84 142 116 84 216 175 147 254 222 200 233 200 177 
216 175 147 216 175 147 175 142 119 124 98 63 142 116 84 124 98 63 102 82 55 142 116 84 142 116 84 142 116 84 124 98 63 142 116 84 175 142 119 233 200 177 233 200 177 175 142 119 
124 98 63 142 116 84 102 82 55 124 98 63 124 98 63 175 142 119 216 175 147 233 200 177 175 142 119 102 82 55 124 98 63 124 98 63 175 142 119 175 142 119 216 175 147 142 116 84 
142 116 84 124 98 63 102 82 55 175 142 119 233 200 177 254 222 200 233 200 177 216 175 147 216 175 147 142 116 84 102 82 55 124 98 63 216 175 147 216 175 147 175 142 119 175 142 119 
124 98 63 102 82 55 142 116 84 175 142 119 216 175 147 233 200 177 216 175 147 175 142 119 142 116 84 124 98 63 142 116 84 216 175 147 233 200 177 216 175 147 216 175 147 175 142 119 
102 82 55 124 98 63 124 98 63 142 116 84 216 175 147 175 142 119 175 142 119 142 116 84 142 116 84 102 82 55 175 142 119 216 175 147 216 175 147 175 142 119 175 142 119 142 116 84 
175 142 119 216 175 147 175 142 119 142 116 84 175 142 119 175 142 119 142 116 84 124 98 63 124 98 63 102 82 55 175 142 119 175 142 119 175 142 119 142 116 84 124 98 63 142 116 84 
216 175 147 233 200 177 216 175 147 216 175 147 175 142 119 142 116 84 142 116 84 124 98 63 102 82 55 124 98 63 142 116 84 142 116 84 102 82 55 102 82 55 102 82 55 124 98 63 
175 142 119 216 175 147 233 200 177 175 142 119 175 142 119 124 98 63 124 98 63 142 116 84 233 200 177 216 175 147 233 200 177 175 142 119 216 175 147 142 116 84 102 82 55 124 98 63 
142 116 84 142 116 84 175 142 119 175 142 119 142 116 84 142 116 84 124 98 63 233 200 177 254 222 200 233 200 177 216 175 147 175 142 119 175 142 119 175 142 119 124 98 63 124 98 63 
124 98 63 102 82 55 102 82 55 124 98 63 142 116 84 142 116 84 175 142 119 233 200 177 216 175 147 216 175 147 175 142 119 142 116 84 175 142 119 142 116 84 142 116 84 124 98 63 
216 175 147 142 116 84 102 82 55 102 82 55 124 98 63 142 116 84 175 142 119 216 175 147 216 175 147 175 142 119 175 142 119 142 116 84 142 116 84 124 98 63 216 175 147 216 175 147 
175 142 119 216 175 147 142 116 84 124 98 63 102 82 55 124 98 63 124 98 63 175 142 119 175 142 119 175 142 119 142 116 84 175 142 119 254 222 200 233 200 177 233 200 177 216 175 147 
124 98 63 175 142 119 142 116 84 175 142 119 216 175 147 216 175 147 175 142 119 142 116 84 124 98 63 142 116 84 142 116 84 216 175 147 233 200 177 216 175 147 175 142 119 142 116 84 
142 116 84 142 116 84 124 98 63 233 200 177 233 200 177 216 175 147 216 175 147 124 98 63 124 98 63 124 98 63 175 142 119 216 175 147 175 142 119 175 142 119 175 142 119 124 98 63 
