P3
16 16
255
164 83 17 187 102 34 178 96 31 178 96 31 187 102 34 203 110 36 178 96 31 178 96 31 178 96 31 178 96 31 172 91 28 178 96 31 187 102 34 187 102 34 178 96 31 172 91 28 
178 96 31 187 102 34 178 96 31 178 96 31 178 96 31 187 102 34 187 102 34 187 102 34 187 102 34 172 91 28 187 102 34 172 91 28 178 96 31 187 102 34 187 102 34 172 91 28 
187 102 34 187 102 34 172 91 28 187 102 34 187 102 34 178 96 31 187 102 34 203 110 36 178 96 31 178 96 31 178 96 31 172 91 28 164 83 17 178 96 31 178 96 31 187 102 34 
203 110 36 178 96 31 187 102 34 187 102 34 178 96 31 178 96 31 178 96 31 187 102 34 178 96 31 187 102 34 178 96 31 187 102 34 187 102 34 178 96 31 172 91 28 178 96 31 
187 102 34 187 102 34 187 102 34 187 102 34 178 96 31 172 91 28 164 83 17 187 102 34 187 102 34 187 102 34 187 102 34 187 102 34 187 102 34 172 91 28 178 96 31 178 96 31 
178 96 31 178 96 31 187 102 34 187 102 34 187 102 34 164 83 17 172 91 28 187 102 34 172 91 28 187 102 34 203 110 36 187 102 34 172 91 28 172 91 28 178 96 31 178 96 31 
178 96 31 172 91 28 187 102 34 178 96 31 187 102 34 187 102 34 178 96 31 172 91 28 187 102 34 178 96 31 187 102 34 187 102 34 178 96 31 178 96 31 172 91 28 178 96 31 
172 91 28 164 83 17 178 96 31 178 96 31 187 102 34 178 96 31 187 102 34 187 102 34 178 96 31 172 91 28 187 102 34 172 91 28 178 96 31 187 102 34 178 96 31 172 91 28 
178 96 31 172 91 28 164 83 17 178 96 31 178 96 31 187 102 34 203 110 36 187 102 34 172 91 28 172 91 28 178 96 31 178 96 31 187 102 34 178 96 31 172 91 28 172 91 28 
187 102 34 178 96 31 164 83 17 178 96 31 187 102 34 187 102 34 187 102 34 187 102 34 178 96 31 172 91 28 187 102 34 187 102 34 187 102 34 187 102 34 178 96 31 172 91 28 
187 102 34 187 102 34 172 91 28 172 91 28 187 102 34 203 110 36 187 102 34 172 91 28 187 102 34 178 96 31 187 102 34 187 102 34 187 102 34 178 96 31 187 102 34 187 102 34 
187 102 34 178 96 31 187 102 34 178 96 31 187 102 34 187 102 34 172 91 28 164 83 17 178 96 31 187 102 34 178 96 31 187 102 34 187 102 34 178 96 31 187 102 34 178 96 31 
187 102 34 172 91 28 178 96 31 187 102 34 187 102 34 172 91 28 164 83 17 172 91 28 187 102 34 187 102 34 178 96 31 172 91 28 203 110 36 187 102 34 172 91 28 172 91 28 
187 102 34 187 102 34 172 91 28 187 102 34 187 102 34 187 102 34 178 96 31 178 96 31 187 102 34 187 102 34 187 102 34 178 96 31 178 96 31 187 102 34 187 102 34 178 96 31 
178 96 31 178 96 31 203 110 36 187 102 34 172 91 28 178 96 31 187 102 34 187 102 34 178 96 31 187 102 34 187 102 34 187 102 34 178 96 31 178 96 31 187 102 34 187 102 34 
178 96 31 164 83 17 178 96 31 187 102 34 172 91 28 187 102 34 187 102 34 178 96 31 178 96 31 178 96 31 187 102 34 203 110 36 187 102 34 187 102 34 187 102 34 178 96 31 
