P3
16 16
255
46 0 1 46 0 1 46 0 1 46 0 1 46 0 1 46 0 1 46 0 1 46 0 1 46 0 1 46 0 1 46 0 1 46 0 1 46 0 1 46 0 1 46 0 1 46 0 1 
107 19 23 107 19 23 115 23 26 107 19 23 52 1 3 107 19 23 115 23 26 115 23 26 115 23 26 107 19 23 107 19 23 107 19 23 52 1 3 115 23 26 107 19 23 107 19 23 
68 5 7 57 4 5 68 5 7 86 14 16 46 0 1 86 14 16 68 5 7 68 5 7 68 5 7 68 5 7 68 5 7 86 14 16 46 0 1 107 19 23 68 5 7 68 5 7 
68 5 7 86 14 16 68 5 7 57 4 5 52 1 3 68 5 7 68 5 7 57 4 5 57 4 5 68 5 7 68 5 7 57 4 5 52 1 3 68 5 7 68 5 7 68 5 7 
46 0 1 46 0 1 46 0 1 52 1 3 52 1 3 52 1 3 46 0 1 46 0 1 46 0 1 46 0 1 46 0 1 52 1 3 52 1 3 52 1 3 46 0 1 46 0 1 
52 1 3 107 19 23 115 23 26 115 23 26 115 23 26 107 19 23 86 14 16 86 14 16 52 1 3 107 19 23 107 19 23 107 19 23 86 14 16 107 19 23 107 19 23 86 14 16 
46 0 1 107 19 23 86 14 16 68 5 7 68 5 7 68 5 7 68 5 7 68 5 7 46 0 1 115 23 26 86 14 16 68 5 7 68 5 7 68 5 7 68 5 7 68 5 7 
52 1 3 86 14 16 68 5 7 68 5 7 68 5 7 68 5 7 57 4 5 57 4 5 52 1 3 86 14 16 68 5 7 68 5 7 57 4 5 86 14 16 68 5 7 57 4 5 
52 1 3 52 1 3 46 0 1 46 0 1 46 0 1 46 0 1 46 0 1 52 1 3 52 1 3 52 1 3 46 0 1 46 0 1 46 0 1 46 0 1 46 0 1 52 1 3 
86 14 16 86 14 16 52 1 3 115 23 26 115 23 26 86 14 16 52 1 3 115 23 26 86 14 16 86 14 16 52 1 3 115 23 26 86 14 16 86 14 16 52 1 3 86 14 16 
68 5 7 68 5 7 46 0 1 86 14 16 68 5 7 68 5 7 46 0 1 115 23 26 68 5 7 68 5 7 46 0 1 86 14 16 68 5 7 68 5 7 46 0 1 86 14 16 
57 4 5 68 5 7 52 1 3 86 14 16 68 5 7 68 5 7 52 1 3 86 14 16 68 5 7 57 4 5 52 1 3 68 5 7 68 5 7 68 5 7 52 1 3 86 14 16 
46 0 1 52 1 3 52 1 3 52 1 3 46 0 1 52 1 3 52 1 3 52 1 3 46 0 1 52 1 3 52 1 3 52 1 3 46 0 1 52 1 3 52 1 3 52 1 3 
86 14 16 115 23 26 86 14 16 86 14 16 52 1 3 86 14 16 115 23 26 115 23 26 115 23 26 115 23 26 86 14 16 86 14 16 52 1 3 115 23 26 115 23 26 86 14 16 
68 5 7 68 5 7 68 5 7 68 5 7 46 0 1 86 14 16 68 5 7 68 5 7 68 5 7 86 14 16 86 14 16 68 5 7 46 0 1 68 5 7 68 5 7 68 5 7 
68 5 7 68 5 7 57 4 5 57 4 5 46 0 1 68 5 7 68 5 7 68 5 7 68 5 7 68 5 7 68 5 7 68 5 7 46 0 1 68 5 7 68 5 7 68 5 7 
