P3
16 16
255
106 79 199 106 79 199 106 79 199 125 102 201 85 59 155 125 102 201 106 79 199 106 79 199 106 79 199 106 79 199 106 79 199 125 102 201 85 59 155 125 102 201 106 79 199 106 79 199 
106 79 199 106 79 199 125 102 201 85 59 155 169 153 214 85 59 155 125 102 201 106 79 199 106 79 199 106 79 199 125 102 201 85 59 155 169 153 214 85 59 155 125 102 201 106 79 199 
106 79 199 125 102 201 85 59 155 169 153 214 155 139 207 169 153 214 85 59 155 125 102 201 67 50 70 125 102 201 85 59 155 169 153 214 155 139 207 169 153 214 85 59 155 125 102 201 
125 102 201 85 59 155 169 153 214 155 139 207 155 139 207 155 139 207 169 153 214 50 34 48 205 202 213 50 34 48 169 153 214 155 139 207 155 139 207 155 139 207 169 153 214 85 59 155 
85 59 155 135 121 181 155 139 207 155 139 207 155 139 207 155 139 207 85 70 84 210 207 218 179 176 185 197 194 205 85 70 84 155 139 207 155 139 207 155 139 207 155 139 207 135 121 181 
97 67 194 85 59 155 135 121 181 155 139 207 135 121 181 85 70 84 213 210 221 179 176 185 179 176 185 179 176 185 197 194 205 85 70 84 135 121 181 155 139 207 135 121 181 85 59 155 
106 79 199 97 67 194 85 59 155 135 121 181 85 70 84 213 210 221 179 176 185 179 176 185 130 37 35 179 176 185 179 176 185 159 157 167 85 70 84 135 121 181 85 59 155 97 67 194 
106 79 199 106 79 199 97 67 194 50 34 48 210 207 218 179 176 185 179 176 185 179 176 185 179 176 185 179 176 185 179 176 185 179 176 185 145 143 153 50 34 48 97 67 194 106 79 199 
106 79 199 106 79 199 106 79 199 67 50 70 205 202 213 179 176 185 194 135 62 179 176 185 172 105 103 179 176 185 205 58 54 179 176 185 119 116 128 67 50 70 106 79 199 106 79 199 
106 79 199 106 79 199 125 102 201 50 34 48 205 202 213 179 176 185 179 176 185 179 176 185 179 176 185 179 176 185 179 176 185 179 176 185 119 116 128 50 34 48 125 102 201 106 79 199 
106 79 199 125 102 201 85 59 155 85 70 84 197 194 205 179 176 185 179 176 185 119 116 128 145 143 153 213 210 221 179 176 185 179 176 185 119 116 128 85 70 84 85 59 155 125 102 201 
125 102 201 85 59 155 169 153 214 85 70 84 197 194 205 179 176 185 119 116 128 50 34 48 67 50 70 50 34 48 213 210 221 179 176 185 119 116 128 85 70 84 169 153 214 85 59 155 
85 59 155 169 153 214 155 139 207 85 70 84 197 194 205 145 143 153 85 70 84 135 121 181 85 70 84 135 121 181 85 70 84 197 194 205 119 116 128 85 70 84 155 139 207 169 153 214 
97 67 194 85 59 155 155 139 207 135 121 181 85 70 84 85 70 84 135 121 181 85 70 84 97 67 194 85 70 84 135 121 181 85 70 84 85 70 84 135 121 181 155 139 207 85 59 155 
106 79 199 97 67 194 85 59 155 135 121 181 135 121 181 135 121 181 85 59 155 97 67 194 106 79 199 97 67 194 85 59 155 135 121 181 135 121 181 135 121 181 85 59 155 97 67 194 
106 79 199 106 79 199 97 67 194 85 59 155 135 121 181 85 59 155 97 67 194 106 79 199 106 79 199 106 79 199 97 67 194 85 59 155 135 121 181 85 59 155 97 67 194 106 79 199 
