P3
16 16
255
87 63 127 44 41 67 43 1 120 87 63 127 87 63 127 87 63 127 43 1 120 87 63 127 87 63 127 87 63 127 87 63 127 87 63 127 43 1 120 87 63 127 44 41 67 87 63 127 
44 41 67 33 27 49 33 27 49 33 27 49 44 41 67 44 41 67 44 41 67 33 27 49 33 27 49 33 27 49 44 41 67 44 41 67 131 8 228 33 27 49 33 27 49 44 41 67 
87 63 127 33 27 49 153 73 223 136 64 215 127 90 197 127 91 196 128 63 211 140 64 218 148 69 222 124 68 206 132 62 214 132 63 214 122 76 202 127 90 197 33 27 49 43 1 120 
43 1 120 96 6 171 128 64 210 126 88 197 124 85 198 132 63 213 157 76 226 130 63 212 142 66 219 126 66 208 126 66 209 157 76 226 140 64 218 124 84 199 44 41 67 87 63 127 
87 63 127 33 27 49 125 85 198 128 92 196 131 63 212 166 86 229 129 63 211 126 88 197 122 76 202 123 80 200 129 94 196 126 66 209 154 73 224 138 63 217 44 41 67 87 63 127 
87 63 127 33 27 49 125 88 197 130 64 211 159 78 226 139 64 217 127 91 196 124 84 199 125 87 198 124 69 206 125 85 198 126 88 197 127 65 209 167 86 229 44 41 67 87 63 127 
87 63 127 44 41 67 125 67 207 149 70 221 142 65 219 123 81 200 125 87 198 123 69 205 123 80 200 126 66 209 127 64 210 124 85 198 127 90 197 124 69 206 131 8 228 43 1 120 
87 63 127 44 41 67 123 83 199 127 64 210 126 66 208 122 76 202 123 79 200 123 81 200 131 63 212 129 63 211 133 63 214 129 64 211 123 79 200 127 90 197 33 27 49 87 63 127 
87 63 127 33 27 49 124 83 199 125 67 207 126 66 208 126 66 208 123 81 200 128 92 196 137 63 216 148 69 221 161 80 226 127 65 209 125 88 197 125 87 198 33 27 49 87 63 127 
43 1 120 44 41 67 123 69 205 150 69 222 139 64 217 122 76 202 123 78 201 123 72 204 129 64 211 148 68 221 141 65 218 131 63 213 124 70 205 123 71 204 33 27 49 87 63 127 
87 63 127 33 27 49 126 89 197 125 67 208 164 83 228 143 65 219 125 66 208 128 64 210 133 63 214 131 63 213 157 76 226 144 66 219 123 80 200 125 87 198 44 41 67 87 63 127 
87 63 127 44 41 67 124 82 199 130 95 195 125 69 206 170 89 230 146 67 221 127 64 210 135 63 215 155 74 224 161 80 227 123 78 201 129 93 196 124 68 206 44 41 67 87 63 127 
87 63 127 44 41 67 145 67 221 122 78 201 130 95 195 123 70 205 150 70 222 133 62 214 130 63 212 144 66 219 122 75 202 126 89 197 122 73 203 161 80 227 96 6 171 43 1 120 
43 1 120 33 27 49 155 75 224 144 66 219 122 77 201 132 98 195 123 71 204 125 68 207 125 68 207 123 74 203 130 95 195 123 74 203 159 77 226 158 76 226 33 27 49 87 63 127 
44 41 67 33 27 49 33 27 49 131 8 228 33 27 49 44 41 67 44 41 67 33 27 49 33 27 49 44 41 67 33 27 49 44 41 67 44 41 67 33 27 49 33 27 49 44 41 67 
87 63 127 44 41 67 87 63 127 96 6 171 87 63 127 87 63 127 87 63 127 87 63 127 87 63 127 43 1 120 87 63 127 87 63 127 87 63 127 43 1 120 44 41 67 87 63 127 
