P3
16 16
255
255 255 255 255 255 255 255 255 255 116 35 3 32 70 38 255 255 255 255 255 255 43 112 42 38 90 37 255 255 255 32 70 38 38 90 37 255 255 255 255 255 255 255 255 255 255 255 255 
255 255 255 255 255 255 255 255 255 255 255 255 255 255 255 32 70 38 255 255 255 43 112 42 54 76 34 43 112 42 32 70 38 191 37 41 191 37 41 237 48 44 255 255 255 255 255 255 
255 255 255 255 255 255 255 255 255 255 255 255 32 70 38 43 112 42 255 255 255 32 70 38 74 143 40 32 70 38 191 37 41 237 48 44 155 34 26 191 37 41 237 48 44 255 255 255 
255 255 255 255 255 255 74 143 40 32 70 38 43 112 42 255 255 255 38 90 37 32 70 38 43 112 42 32 70 38 116 35 3 255 69 64 237 48 44 237 48 44 155 34 26 255 255 255 
255 255 255 255 255 255 255 255 255 74 143 40 32 70 38 255 255 255 74 143 40 32 70 38 43 112 42 32 70 38 74 143 40 116 35 3 116 35 3 155 34 26 255 255 255 255 255 255 
255 255 255 191 37 41 255 255 255 74 143 40 38 90 37 32 70 38 85 171 45 43 112 42 32 70 38 85 171 45 74 143 40 32 70 38 255 255 255 255 255 255 255 255 255 255 255 255 
191 37 41 237 48 44 237 48 44 155 34 26 85 171 45 32 70 38 74 143 40 191 37 41 191 37 41 74 143 40 32 70 38 43 112 42 74 143 40 191 37 41 191 37 41 255 255 255 
155 34 26 155 34 26 237 48 44 237 48 44 85 171 45 43 112 42 191 37 41 237 48 44 255 69 64 155 34 26 32 70 38 74 143 40 191 37 41 255 69 64 237 48 44 155 34 26 
191 37 41 237 48 44 255 69 64 116 35 3 74 143 40 85 171 45 155 34 26 237 48 44 191 37 41 237 48 44 155 34 26 85 171 45 191 37 41 237 48 44 116 35 3 155 34 26 
116 35 3 191 37 41 237 48 44 32 70 38 43 112 42 85 171 45 116 35 3 155 34 26 237 48 44 155 34 26 74 143 40 74 143 40 32 70 38 155 34 26 191 37 41 255 255 255 
255 255 255 116 35 3 255 255 255 255 255 255 32 70 38 74 143 40 74 143 40 116 35 3 116 35 3 32 70 38 38 90 37 43 112 42 32 70 38 38 90 37 255 255 255 255 255 255 
255 255 255 255 255 255 255 255 255 38 90 37 32 70 38 43 112 42 85 171 45 74 143 40 43 112 42 32 70 38 74 143 40 43 112 42 32 70 38 255 255 255 255 255 255 255 255 255 
255 255 255 255 255 255 255 255 255 255 255 255 32 70 38 43 112 42 74 143 40 38 90 37 32 70 38 74 143 40 43 112 42 32 70 38 43 112 42 255 255 255 255 255 255 255 255 255 
255 255 255 255 255 255 255 255 255 74 143 40 43 112 42 32 70 38 43 112 42 74 143 40 32 70 38 38 90 37 32 70 38 43 112 42 74 143 40 74 143 40 255 255 255 255 255 255 
255 255 255 255 255 255 255 255 255 255 255 255 74 143 40 43 112 42 32 70 38 38 90 37 32 70 38 74 143 40 32 70 38 38 90 37 43 112 42 255 255 255 255 255 255 255 255 255 
255 255 255 255 255 255 255 255 255 43 112 42 43 112 42 43 112 42 32 70 38 74 143 40 32 70 38 74 143 40 32 70 38 43 112 42 43 112 42 43 112 42 255 255 255 255 255 255 
