P3
16 16
255
156 212 144 156 212 144 144 203 127 162 218 144 162 218 144 156 212 144 144 203 127 144 203 127 156 212 144 156 212 144 156 212 144 144 203 127 162 218 144 162 218 144 162 220 150 156 212 144 
156 212 144 162 220 150 162 220 150 162 220 150 162 220 150 162 220 150 156 212 144 156 212 144 162 218 144 156 212 144 156 212 144 156 212 144 156 212 144 156 212 144 139 195 122 162 220 150 
162 218 144 162 220 150 162 218 144 156 212 144 144 203 127 156 212 144 156 212 144 144 203 127 144 203 127 144 203 127 156 212 144 162 218 144 156 212 144 144 203 127 156 212 144 162 218 144 
144 203 127 162 220 150 156 212 144 144 203 127 139 195 122 144 203 127 162 218 144 156 212 144 156 212 144 156 212 144 156 212 144 156 212 144 156 212 144 144 203 127 156 212 144 144 203 127 
156 212 144 162 220 150 144 203 127 139 195 122 139 195 122 156 212 144 156 212 144 156 212 144 144 203 127 156 212 144 139 195 122 139 195 122 156 212 144 144 203 127 156 212 144 156 212 144 
156 212 144 162 218 144 156 212 144 144 203 127 144 203 127 144 203 127 156 212 144 156 212 144 162 218 144 162 220 150 139 195 122 144 203 127 156 212 144 156 212 144 156 212 144 156 212 144 
156 212 144 162 218 144 156 212 144 144 203 127 156 212 144 156 212 144 156 212 144 156 212 144 162 218 144 162 218 144 156 212 144 156 212 144 156 212 144 144 203 127 156 212 144 156 212 144 
156 212 144 162 218 144 144 203 127 156 212 144 144 203 127 139 195 122 156 212 144 156 212 144 156 212 144 156 212 144 156 212 144 156 212 144 156 212 144 144 203 127 162 218 144 156 212 144 
156 212 144 162 218 144 144 203 127 156 212 144 139 195 122 139 195 122 156 212 144 156 212 144 156 212 144 156 212 144 156 212 144 156 212 144 156 212 144 139 195 122 162 218 144 156 212 144 
156 212 144 156 212 144 144 203 127 156 212 144 156 212 144 156 212 144 162 218 144 156 212 144 156 212 144 156 212 144 139 195 122 144 203 127 144 203 127 156 212 144 162 218 144 156 212 144 
144 203 127 156 212 144 156 212 144 144 203 127 156 212 144 156 212 144 156 212 144 156 212 144 156 212 144 144 203 127 144 203 127 144 203 127 156 212 144 162 218 144 156 212 144 144 203 127 
144 203 127 156 212 144 162 218 144 156 212 144 156 212 144 156 212 144 156 212 144 156 212 144 156 212 144 156 212 144 144 203 127 139 195 122 139 195 122 162 218 144 156 212 144 144 203 127 
162 218 144 156 212 144 156 212 144 162 220 150 162 218 144 156 212 144 156 212 144 139 195 122 156 212 144 144 203 127 144 203 127 139 195 122 144 203 127 162 218 144 162 220 150 156 212 144 
162 218 144 139 195 122 139 195 122 144 203 127 144 203 127 156 212 144 144 203 127 144 203 127 144 203 127 156 212 144 156 212 144 156 212 144 162 218 144 162 218 144 162 220 150 156 212 144 
162 220 150 139 195 122 144 203 127 156 212 144 162 218 144 162 218 144 162 218 144 162 218 144 162 220 150 162 220 150 162 220 150 162 220 150 162 220 150 162 220 150 162 220 150 156 212 144 
156 212 144 162 220 150 162 218 144 156 212 144 156 212 144 156 212 144 144 203 127 144 203 127 156 212 144 156 212 144 156 212 144 156 212 144 156 212 144 144 203 127 156 212 144 156 212 144 
