P3
16 16
255
103 80 44 103 80 44 80 78 78 80 78 78 60 59 59 80 78 78 80 78 78 80 78 78 60 59 59 60 59 59 60 59 59 80 78 78 60 59 59 60 59 59 103 80 44 103 80 44 
103 80 44 58 47 30 80 78 78 93 91 91 104 104 104 133 133 133 133 133 133 119 119 119 93 91 91 104 104 104 104 104 104 119 119 119 133 133 133 80 78 78 58 47 30 103 80 44 
80 78 78 80 78 78 119 119 119 133 133 133 133 133 133 119 119 119 119 119 119 93 91 91 133 133 133 133 133 133 133 133 133 104 104 104 133 133 133 133 133 133 80 78 78 80 78 78 
80 78 78 104 104 104 133 133 133 133 133 133 133 133 133 133 133 133 93 91 91 119 119 119 133 133 133 133 133 133 133 133 133 133 133 133 104 104 104 119 119 119 119 119 119 80 78 78 
80 78 78 119 119 119 133 133 133 133 133 133 133 133 133 119 119 119 93 91 91 104 104 104 119 119 119 133 133 133 133 133 133 133 133 133 93 91 91 119 119 119 104 104 104 60 59 59 
60 59 59 104 104 104 93 91 91 104 104 104 104 104 104 93 91 91 133 133 133 119 119 119 104 104 104 104 104 104 119 119 119 133 133 133 93 91 91 93 91 91 80 78 78 60 59 59 
80 78 78 93 91 91 133 133 133 133 133 133 104 104 104 133 133 133 133 133 133 133 133 133 133 133 133 133 133 133 93 91 91 93 91 91 133 133 133 133 133 133 104 104 104 80 78 78 
60 59 59 119 119 119 133 133 133 133 133 133 133 133 133 104 104 104 133 133 133 133 133 133 133 133 133 104 104 104 133 133 133 133 133 133 133 133 133 133 133 133 119 119 119 60 59 59 
60 59 59 133 133 133 133 133 133 133 133 133 133 133 133 119 119 119 119 119 119 133 133 133 104 104 104 133 133 133 133 133 133 133 133 133 133 133 133 119 119 119 133 133 133 80 78 78 
80 78 78 133 133 133 133 133 133 133 133 133 133 133 133 133 133 133 104 104 104 104 104 104 133 133 133 104 104 104 119 119 119 133 133 133 133 133 133 133 133 133 80 78 78 80 78 78 
80 78 78 119 119 119 133 133 133 133 133 133 133 133 133 119 119 119 133 133 133 133 133 133 133 133 133 133 133 133 133 133 133 104 104 104 93 91 91 93 91 91 104 104 104 60 59 59 
60 59 59 93 91 91 119 119 119 133 133 133 119 119 119 104 104 104 133 133 133 133 133 133 133 133 133 133 133 133 133 133 133 133 133 133 104 104 104 133 133 133 119 119 119 80 78 78 
60 59 59 133 133 133 93 91 91 93 91 91 104 104 104 93 91 91 119 119 119 133 133 133 133 133 133 133 133 133 133 133 133 119 119 119 133 133 133 133 133 133 133 133 133 80 78 78 
80 78 78 80 78 78 133 133 133 93 91 91 93 91 91 119 119 119 93 91 91 104 104 104 119 119 119 119 119 119 119 119 119 104 104 104 133 133 133 133 133 133 80 78 78 80 78 78 
103 80 44 103 80 44 80 78 78 104 104 104 119 119 119 133 133 133 119 119 119 80 78 78 93 91 91 104 104 104 104 104 104 93 91 91 104 104 104 80 78 78 58 47 30 103 80 44 
58 47 30 103 80 44 80 78 78 80 78 78 60 59 59 80 78 78 80 78 78 80 78 78 60 59 59 60 59 59 60 59 59 60 59 59 80 78 78 80 78 78 103 80 44 103 80 44 
