P3
16 16
255
127 127 127 116 116 116 127 127 127 127 127 127 116 116 116 116 116 116 143 143 143 143 143 143 116 116 116 116 116 116 143 143 143 143 143 143 116 116 116 127 127 127 143 143 143 127 127 127 
116 116 116 168 168 168 163 163 163 168 168 168 168 168 168 176 176 176 176 176 176 176 176 176 176 176 176 168 168 168 168 168 168 157 157 157 163 163 163 163 163 163 168 168 168 143 143 143 
116 116 116 163 163 163 157 157 157 157 157 157 163 163 163 163 163 163 168 168 168 163 163 163 163 163 163 163 163 163 163 163 163 168 168 168 168 168 168 168 168 168 168 168 168 116 116 116 
127 127 127 176 176 176 176 176 176 176 176 176 163 163 163 168 168 168 168 168 168 168 168 168 176 176 176 176 176 176 176 176 176 168 168 168 168 168 168 163 163 163 163 163 163 143 143 143 
143 143 143 168 168 168 168 168 168 163 163 163 163 163 163 163 163 163 168 168 168 163 163 163 168 168 168 176 176 176 176 176 176 176 176 176 176 176 176 163 163 163 168 168 168 116 116 116 
116 116 116 176 176 176 168 168 168 168 168 168 168 168 168 168 168 168 168 168 168 168 168 168 168 168 168 168 168 168 163 163 163 157 157 157 163 163 163 157 157 157 163 163 163 127 127 127 
143 143 143 168 168 168 168 168 168 176 176 176 176 176 176 176 176 176 163 163 163 176 176 176 176 176 176 168 168 168 168 168 168 163 163 163 168 168 168 168 168 168 168 168 168 116 116 116 
143 143 143 163 163 163 157 157 157 157 157 157 163 163 163 157 157 157 163 163 163 163 163 163 157 157 157 163 163 163 157 157 157 163 163 163 163 163 163 176 176 176 176 176 176 127 127 127 
127 127 127 176 176 176 176 176 176 168 168 168 176 176 176 168 168 168 163 163 163 168 168 168 168 168 168 168 168 168 168 168 168 163 163 163 168 168 168 168 168 168 176 176 176 143 143 143 
116 116 116 168 168 168 168 168 168 168 168 168 168 168 168 168 168 168 163 163 163 168 168 168 176 176 176 176 176 176 176 176 176 168 168 168 176 176 176 176 176 176 176 176 176 127 127 127 
116 116 116 168 168 168 163 163 163 168 168 168 163 163 163 163 163 163 157 157 157 157 157 157 163 163 163 163 163 163 168 168 168 163 163 163 163 163 163 168 168 168 163 163 163 143 143 143 
127 127 127 168 168 168 168 168 168 168 168 168 168 168 168 176 176 176 176 176 176 176 176 176 176 176 176 176 176 176 168 168 168 168 168 168 176 176 176 176 176 176 176 176 176 143 143 143 
143 143 143 163 163 163 163 163 163 163 163 163 168 168 168 176 176 176 176 176 176 163 163 163 168 168 168 163 163 163 163 163 163 157 157 157 157 157 157 163 163 163 168 168 168 143 143 143 
127 127 127 176 176 176 168 168 168 163 163 163 163 163 163 168 168 168 168 168 168 168 168 168 176 176 176 168 168 168 168 168 168 168 168 168 163 163 163 168 168 168 168 168 168 127 127 127 
116 116 116 163 163 163 163 163 163 168 168 168 176 176 176 176 176 176 176 176 176 168 168 168 168 168 168 176 176 176 176 176 176 168 168 168 163 163 163 163 163 163 163 163 163 116 116 116 
127 127 127 116 116 116 143 143 143 143 143 143 127 127 127 127 127 127 143 143 143 143 143 143 143 143 143 127 127 127 116 116 116 116 116 116 116 116 116 127 127 127 143 143 143 127 127 127 
