P3
16 16
255
91 69 56 73 55 44 73 55 44 61 46 37 61 46 37 73 55 44 73 55 44 61 46 37 53 41 34 61 46 37 61 46 37 73 55 44 91 69 56 91 69 56 106 82 68 106 82 68 
73 55 44 73 55 44 61 46 37 53 41 34 73 55 44 91 69 56 61 46 37 53 41 34 61 46 37 53 41 34 61 46 37 91 69 56 73 55 44 91 69 56 91 69 56 106 82 68 
73 55 44 61 46 37 53 41 34 53 41 34 91 69 56 91 69 56 61 46 37 53 41 34 53 41 34 61 46 37 73 55 44 73 55 44 73 55 44 106 82 68 73 55 44 91 69 56 
61 46 37 61 46 37 61 46 37 61 46 37 91 69 56 73 55 44 53 41 34 53 41 34 61 46 37 73 55 44 73 55 44 73 55 44 91 69 56 91 69 56 91 69 56 73 55 44 
61 46 37 53 41 34 53 41 34 73 55 44 91 69 56 53 41 34 73 55 44 73 55 44 73 55 44 73 55 44 91 69 56 91 69 56 73 55 44 91 69 56 73 55 44 61 46 37 
53 41 34 61 46 37 61 46 37 91 69 56 91 69 56 73 55 44 73 55 44 91 69 56 91 69 56 91 69 56 73 55 44 91 69 56 91 69 56 73 55 44 73 55 44 61 46 37 
61 46 37 61 46 37 91 69 56 91 69 56 73 55 44 91 69 56 91 69 56 91 69 56 106 82 68 106 82 68 91 69 56 73 55 44 73 55 44 73 55 44 61 46 37 53 41 34 
73 55 44 91 69 56 73 55 44 73 55 44 91 69 56 91 69 56 73 55 44 91 69 56 106 82 68 91 69 56 73 55 44 73 55 44 61 46 37 61 46 37 61 46 37 73 55 44 
73 55 44 61 46 37 61 46 37 91 69 56 91 69 56 106 82 68 106 82 68 91 69 56 73 55 44 73 55 44 73 55 44 61 46 37 61 46 37 73 55 44 73 55 44 73 55 44 
61 46 37 61 46 37 91 69 56 91 69 56 106 82 68 106 82 68 91 69 56 73 55 44 73 55 44 61 46 37 61 46 37 61 46 37 91 69 56 91 69 56 73 55 44 61 46 37 
91 69 56 106 82 68 91 69 56 106 82 68 106 82 68 91 69 56 73 55 44 73 55 44 61 46 37 61 46 37 73 55 44 91 69 56 73 55 44 61 46 37 61 46 37 61 46 37 
106 82 68 106 82 68 106 82 68 91 69 56 73 55 44 61 46 37 73 55 44 61 46 37 61 46 37 91 69 56 91 69 56 73 55 44 53 41 34 53 41 34 61 46 37 91 69 56 
91 69 56 106 82 68 91 69 56 73 55 44 73 55 44 61 46 37 61 46 37 61 46 37 91 69 56 91 69 56 73 55 44 61 46 37 53 41 34 61 46 37 73 55 44 106 82 68 
106 82 68 91 69 56 73 55 44 73 55 44 61 46 37 53 41 34 53 41 34 73 55 44 91 69 56 91 69 56 61 46 37 53 41 34 53 41 34 73 55 44 91 69 56 106 82 68 
106 82 68 91 69 56 61 46 37 73 55 44 53 41 34 53 41 34 61 46 37 73 55 44 91 69 56 73 55 44 61 46 37 53 41 34 61 46 37 73 55 44 106 82 68 91 69 56 
106 82 68 73 55 44 73 55 44 61 46 37 53 41 34 61 46 37 73 55 44 73 55 44 73 55 44 61 46 37 53 41 34 61 46 37 73 55 44 91 69 56 91 69 56 106 82 68 
