P3
16 16
255
145 113 66 145 113 66 116 90 54 145 113 66 152 120 73 152 120 73 145 113 66 116 90 54 116 90 54 145 113 66 152 120 73 152 120 73 152 120 73 145 113 66 116 90 54 145 113 66 
116 90 54 95 74 43 76 61 38 76 61 38 95 74 43 95 74 43 116 90 54 145 113 66 145 113 66 116 90 54 145 113 66 116 90 54 95 74 43 76 61 38 76 61 38 116 90 54 
145 113 66 152 120 73 152 120 73 116 90 54 25 27 30 25 27 30 145 113 66 116 90 54 31 35 41 38 44 53 20 145 148 116 90 54 145 113 66 116 90 54 145 113 66 145 113 66 
76 61 38 76 61 38 116 90 54 116 90 54 31 35 41 37 167 172 91 227 232 31 35 41 124 242 245 38 44 53 37 167 172 44 52 62 37 167 172 76 61 38 76 61 38 76 61 38 
145 113 66 145 113 66 34 39 46 13 105 107 34 39 46 38 44 53 38 44 53 38 44 53 91 227 232 91 227 232 37 167 172 34 39 46 124 242 245 91 227 232 116 90 54 145 113 66 
116 90 54 37 167 172 25 27 30 31 35 41 20 145 148 37 167 172 34 39 46 34 39 46 37 167 172 31 35 41 31 35 41 34 39 46 31 35 41 37 167 172 25 27 30 116 90 54 
145 113 66 91 227 232 91 227 232 34 39 46 44 52 62 20 145 148 38 44 53 34 39 46 20 145 148 34 39 46 13 105 107 44 52 62 37 167 172 38 44 53 13 105 107 145 113 66 
76 61 38 31 35 41 31 35 41 31 35 41 31 35 41 37 167 172 91 227 232 38 44 53 38 44 53 34 39 46 37 167 172 19 20 22 37 167 172 25 27 30 19 20 22 37 167 172 
44 53 67 31 35 41 25 27 30 31 35 41 13 105 107 58 72 95 86 99 120 37 167 172 91 227 232 91 227 232 91 227 232 20 145 148 31 35 41 25 27 30 44 53 67 25 27 30 
58 72 95 44 53 67 31 35 41 20 145 148 37 167 172 91 227 232 124 242 245 91 227 232 37 167 172 124 242 245 86 99 120 58 72 95 20 145 148 31 35 41 58 72 95 31 35 41 
44 53 67 58 72 95 20 145 148 58 72 95 86 99 120 37 167 172 91 227 232 124 242 245 212 254 255 91 227 232 37 167 172 91 227 232 37 167 172 13 105 107 44 53 67 44 53 67 
58 72 95 86 99 120 13 105 107 37 167 172 124 242 245 91 227 232 124 242 245 212 254 255 124 242 245 37 167 172 124 242 245 37 167 172 86 99 120 58 72 95 58 72 95 44 53 67 
58 72 95 44 53 67 58 72 95 20 145 148 37 167 172 58 72 95 86 99 120 91 227 232 37 167 172 124 242 245 37 167 172 91 227 232 37 167 172 20 145 148 44 53 67 31 35 41 
44 53 67 58 72 95 31 35 41 13 105 107 58 72 95 37 167 172 37 167 172 124 242 245 91 227 232 37 167 172 20 145 148 58 72 95 20 145 148 13 105 107 31 35 41 25 27 30 
58 72 95 44 53 67 31 35 41 58 72 95 44 53 67 58 72 95 31 35 41 58 72 95 31 35 41 44 53 67 86 99 120 58 72 95 44 53 67 31 35 41 58 72 95 31 35 41 
44 53 67 58 72 95 58 72 95 31 35 41 86 99 120 58 72 95 44 53 67 31 35 41 44 53 67 58 72 95 44 53 67 44 53 67 58 72 95 58 72 95 44 53 67 44 53 67 
