P3
16 16
255
255 255 255 255 255 255 255 255 255 255 255 255 255 255 255 255 255 255 255 255 255 255 255 255 255 255 255 255 255 255 255 255 255 255 255 255 255 255 255 255 255 255 255 255 255 255 255 255 
255 255 255 255 255 255 255 255 255 255 255 255 255 255 255 255 255 255 255 255 255 34 53 34 255 255 255 255 255 255 255 255 255 255 255 255 255 255 255 255 255 255 255 255 255 255 255 255 
255 255 255 255 255 255 255 255 255 255 255 255 255 255 255 255 255 255 34 53 34 19 8 3 34 53 34 255 255 255 255 255 255 255 255 255 255 255 255 255 255 255 255 255 255 255 255 255 
255 255 255 255 255 255 255 255 255 255 255 255 255 255 255 255 255 255 46 73 46 19 8 3 57 90 57 255 255 255 255 255 255 255 255 255 255 255 255 255 255 255 255 255 255 255 255 255 
255 255 255 255 255 255 255 255 255 255 255 255 255 255 255 57 90 57 46 73 46 46 29 10 34 53 34 46 73 46 255 255 255 255 255 255 255 255 255 255 255 255 255 255 255 255 255 255 
255 255 255 255 255 255 255 255 255 255 255 255 34 53 34 46 73 46 34 53 34 80 54 26 19 8 3 34 53 34 34 53 34 255 255 255 255 255 255 255 255 255 255 255 255 255 255 255 
255 255 255 255 255 255 255 255 255 255 255 255 255 255 255 80 54 26 46 29 10 34 53 34 46 73 46 57 90 57 46 29 10 255 255 255 255 255 255 255 255 255 255 255 255 255 255 255 
255 255 255 255 255 255 255 255 255 255 255 255 255 255 255 46 29 10 46 73 46 46 73 46 34 53 34 57 90 57 57 90 57 34 53 34 255 255 255 255 255 255 255 255 255 255 255 255 
255 255 255 255 255 255 255 255 255 255 255 255 57 90 57 46 73 46 46 73 46 34 53 34 34 53 34 46 73 46 57 90 57 255 255 255 255 255 255 255 255 255 255 255 255 255 255 255 
255 255 255 255 255 255 255 255 255 255 255 255 46 73 46 34 53 34 46 73 46 57 90 57 34 53 34 34 53 34 34 53 34 255 255 255 255 255 255 255 255 255 255 255 255 255 255 255 
255 255 255 255 255 255 255 255 255 255 255 255 255 255 255 46 29 10 57 90 57 57 90 57 80 54 26 34 53 34 57 90 57 46 73 46 255 255 255 255 255 255 255 255 255 255 255 255 
255 255 255 255 255 255 255 255 255 255 255 255 46 29 10 57 90 57 46 73 46 80 54 26 46 29 10 57 90 57 46 73 46 57 90 57 255 255 255 255 255 255 255 255 255 255 255 255 
255 255 255 255 255 255 255 255 255 34 53 34 46 73 46 34 53 34 34 53 34 80 54 26 46 29 10 57 90 57 57 90 57 255 255 255 57 90 57 255 255 255 255 255 255 255 255 255 
255 255 255 255 255 255 255 255 255 255 255 255 255 255 255 46 73 46 46 73 46 34 53 34 34 53 34 34 53 34 46 73 46 46 73 46 255 255 255 255 255 255 255 255 255 255 255 255 
255 255 255 255 255 255 255 255 255 255 255 255 255 255 255 255 255 255 34 53 34 46 29 10 34 53 34 255 255 255 34 53 34 255 255 255 255 255 255 255 255 255 255 255 255 255 255 255 
255 255 255 255 255 255 255 255 255 255 255 255 255 255 255 255 255 255 255 255 255 19 8 3 19 8 3 255 255 255 255 255 255 255 255 255 255 255 255 255 255 255 255 255 255 255 255 255 
