P3
16 16
255
151 124 69 151 124 69 180 134 90 180 134 90 180 134 90 180 134 90 174 128 84 174 128 84 159 132 77 159 132 77 151 124 69 151 124 69 159 132 77 180 134 90 180 134 90 151 124 69 
174 128 84 174 128 84 174 128 84 180 134 90 187 141 97 187 141 97 151 124 69 151 124 69 151 124 69 151 124 69 180 134 90 159 132 77 155 128 73 174 128 84 174 128 84 174 128 84 
151 124 69 151 124 69 174 128 84 174 128 84 180 134 90 174 128 84 187 141 97 187 141 97 187 141 97 159 132 77 159 132 77 180 134 90 180 134 90 155 128 73 155 128 73 151 124 69 
151 124 69 155 128 73 155 128 73 159 132 77 159 132 77 174 128 84 174 128 84 159 132 77 159 132 77 187 141 97 159 132 77 159 132 77 174 128 84 180 134 90 180 134 90 174 128 84 
187 141 97 187 141 97 187 141 97 180 134 90 155 128 73 159 132 77 159 132 77 187 141 97 180 134 90 180 134 90 180 134 90 187 141 97 187 141 97 187 141 97 155 128 73 151 124 69 
155 128 73 180 134 90 180 134 90 180 134 90 187 141 97 155 128 73 180 134 90 159 132 77 174 128 84 174 128 84 159 132 77 159 132 77 180 134 90 180 134 90 180 134 90 155 128 73 
151 124 69 159 132 77 191 145 101 191 145 101 187 141 97 187 141 97 180 134 90 191 145 101 187 141 97 159 132 77 159 132 77 187 141 97 159 132 77 155 128 73 151 124 69 151 124 69 
151 124 69 151 124 69 159 132 77 159 132 77 159 132 77 187 141 97 187 141 97 180 134 90 191 145 101 191 145 101 187 141 97 187 141 97 180 134 90 155 128 73 159 132 77 151 124 69 
191 145 101 191 145 101 187 141 97 187 141 97 180 134 90 180 134 90 180 134 90 180 134 90 159 132 77 180 134 90 159 132 77 159 132 77 151 124 69 151 124 69 187 141 97 191 145 101 
187 141 97 191 145 101 174 128 84 174 128 84 174 128 84 187 141 97 191 145 101 187 141 97 187 141 97 151 124 69 187 141 97 180 134 90 180 134 90 159 132 77 151 124 69 151 124 69 
180 134 90 187 141 97 187 141 97 180 134 90 174 128 84 159 132 77 151 124 69 151 124 69 187 141 97 187 141 97 174 128 84 174 128 84 180 134 90 187 141 97 159 132 77 187 141 97 
180 134 90 159 132 77 187 141 97 187 141 97 187 141 97 187 141 97 180 134 90 187 141 97 159 132 77 159 132 77 180 134 90 187 141 97 187 141 97 174 128 84 174 128 84 174 128 84 
159 132 77 187 141 97 187 141 97 180 134 90 180 134 90 174 128 84 174 128 84 174 128 84 187 141 97 180 134 90 180 134 90 180 134 90 151 124 69 151 124 69 180 134 90 151 124 69 
151 124 69 151 124 69 151 124 69 151 124 69 187 141 97 187 141 97 187 141 97 174 128 84 174 128 84 187 141 97 151 124 69 187 141 97 187 141 97 159 132 77 180 134 90 159 132 77 
151 124 69 180 134 90 191 145 101 191 145 101 187 141 97 191 145 101 180 134 90 180 134 90 159 132 77 159 132 77 159 132 77 151 124 69 159 132 77 159 132 77 174 128 84 180 134 90 
174 128 84 180 134 90 180 134 90 180 134 90 174 128 84 151 124 69 174 128 84 151 124 69 151 124 69 151 124 69 159 132 77 159 132 77 151 124 69 151 124 69 174 128 84 174 128 84 
