P3
16 16
255
137 57 91 130 56 90 137 57 91 137 57 91 150 62 98 128 56 83 150 62 98 150 62 98 150 62 98 137 57 91 150 62 98 150 62 98 137 57 91 128 56 83 137 57 91 128 56 83 
128 56 83 137 57 91 130 56 90 137 57 91 150 62 98 128 56 83 150 62 98 150 62 98 137 57 91 150 62 98 150 62 98 160 68 104 137 57 91 128 56 83 128 56 83 120 44 73 
126 52 82 137 57 91 128 56 83 137 57 91 137 57 91 128 56 83 150 62 98 137 57 91 137 57 91 150 62 98 137 57 91 160 68 104 137 57 91 126 52 82 128 56 83 126 52 82 
120 44 73 128 56 83 130 56 90 137 57 91 128 56 83 128 56 83 150 62 98 137 57 91 137 57 91 150 62 98 137 57 91 160 68 104 150 62 98 126 52 82 128 56 83 128 56 83 
126 52 82 128 56 83 128 56 83 130 56 90 130 56 90 150 62 98 137 57 91 137 57 91 150 62 98 150 62 98 137 57 91 150 62 98 150 62 98 150 62 98 128 56 83 137 57 91 
137 57 91 126 52 82 137 57 91 130 56 90 150 62 98 160 68 104 137 57 91 137 57 91 150 62 98 160 68 104 137 57 91 160 68 104 150 62 98 128 56 83 128 56 83 137 57 91 
137 57 91 120 44 73 137 57 91 130 56 90 150 62 98 160 68 104 137 57 91 150 62 98 150 62 98 160 68 104 137 57 91 137 57 91 137 57 91 130 56 90 128 56 83 126 52 82 
137 57 91 120 44 73 128 56 83 130 56 90 150 62 98 150 62 98 137 57 91 150 62 98 150 62 98 150 62 98 150 62 98 128 56 83 137 57 91 130 56 90 128 56 83 120 44 73 
120 44 73 126 52 82 128 56 83 128 56 83 150 62 98 150 62 98 137 57 91 160 68 104 137 57 91 160 68 104 150 62 98 128 56 83 137 57 91 150 62 98 130 56 90 126 52 82 
137 57 91 128 56 83 137 57 91 130 56 90 150 62 98 137 57 91 137 57 91 160 68 104 137 57 91 137 57 91 150 62 98 150 62 98 137 57 91 150 62 98 126 52 82 120 44 73 
137 57 91 126 52 82 137 57 91 130 56 90 137 57 91 137 57 91 137 57 91 150 62 98 128 56 83 137 57 91 150 62 98 150 62 98 137 57 91 137 57 91 126 52 82 120 44 73 
120 44 73 137 57 91 137 57 91 150 62 98 137 57 91 130 56 90 137 57 91 150 62 98 128 56 83 128 56 83 150 62 98 128 56 83 137 57 91 128 56 83 128 56 83 126 52 82 
120 44 73 128 56 83 126 52 82 150 62 98 160 68 104 130 56 90 150 62 98 150 62 98 137 57 91 128 56 83 137 57 91 128 56 83 128 56 83 126 52 82 120 44 73 126 52 82 
137 57 91 126 52 82 126 52 82 137 57 91 150 62 98 130 56 90 150 62 98 137 57 91 137 57 91 160 68 104 128 56 83 137 57 91 126 52 82 126 52 82 120 44 73 126 52 82 
137 57 91 120 44 73 128 56 83 137 57 91 137 57 91 130 56 90 137 57 91 150 62 98 137 57 91 150 62 98 128 56 83 137 57 91 126 52 82 128 56 83 128 56 83 120 44 73 
137 57 91 126 52 82 150 62 98 150 62 98 137 57 91 137 57 91 150 62 98 150 62 98 137 57 91 150 62 98 150 62 98 137 57 91 137 57 91 150 62 98 128 56 83 120 44 73 
