P3
16 16
255
147 117 68 163 130 73 185 149 88 185 149 88 192 157 98 174 142 82 192 157 98 192 157 98 192 157 98 185 149 88 192 157 98 192 157 98 185 149 88 176 142 85 185 149 88 176 142 85 
147 117 68 163 130 73 174 142 82 185 149 88 192 157 98 174 142 82 192 157 98 190 157 95 185 149 88 189 156 95 192 157 98 194 161 102 185 149 88 176 142 85 176 142 85 162 128 75 
155 124 71 163 130 73 174 142 82 162 128 75 190 157 95 176 142 85 192 157 98 185 149 88 185 149 88 192 157 98 179 147 88 194 161 102 185 149 88 162 128 75 173 141 87 160 128 72 
155 124 71 155 122 69 174 142 82 162 128 75 174 142 82 176 142 85 191 158 98 185 149 88 185 149 88 192 157 98 179 147 88 194 161 102 190 157 95 162 128 75 173 141 87 176 142 85 
162 129 73 155 122 69 174 142 82 162 128 75 174 142 82 192 157 98 179 147 88 185 149 88 188 155 93 192 157 98 179 147 88 192 157 98 192 157 98 192 157 98 173 141 87 145 117 65 
147 117 68 163 129 74 185 149 88 174 142 82 190 157 95 194 161 102 179 147 88 185 149 88 189 156 95 194 161 102 185 149 88 193 162 102 192 157 98 173 141 87 173 141 87 145 117 65 
147 117 68 152 122 68 185 149 88 174 142 82 192 157 98 194 161 102 179 147 88 188 155 93 192 157 98 194 161 102 185 149 88 185 149 88 179 147 88 167 137 79 173 141 87 162 128 75 
147 117 68 152 122 68 174 142 82 176 142 85 192 157 98 192 157 98 179 147 88 189 156 95 192 157 98 192 157 98 190 157 95 174 142 82 179 147 88 167 137 79 173 141 87 153 124 67 
155 124 71 163 129 74 172 139 82 176 142 85 191 158 97 190 157 95 179 147 88 194 161 102 185 149 88 194 161 102 192 157 98 174 142 82 179 147 88 192 157 98 167 137 79 162 128 75 
147 117 68 174 142 82 179 147 88 167 137 79 190 157 95 186 151 90 179 147 88 194 161 102 185 149 88 179 147 88 192 157 98 190 157 95 179 147 88 192 157 98 162 128 75 153 124 67 
145 117 65 163 129 74 179 147 88 167 137 79 179 144 87 185 149 88 185 149 88 192 157 98 174 142 82 185 149 88 191 159 99 190 157 95 180 145 88 185 149 88 162 128 75 153 124 67 
154 124 69 182 147 88 179 147 88 179 147 88 179 144 87 185 149 88 185 149 88 192 157 98 174 142 82 174 142 82 191 159 99 174 142 82 185 149 88 173 141 87 173 141 87 157 128 71 
154 124 69 173 141 82 162 128 75 179 147 88 186 151 90 185 149 88 192 157 98 190 157 95 185 149 88 174 142 82 182 146 85 174 142 82 173 141 87 162 128 75 152 123 69 162 128 75 
145 117 65 163 131 73 163 130 73 179 147 88 185 149 88 185 149 88 190 157 95 185 149 88 185 149 88 194 161 102 174 142 82 185 149 88 162 128 75 162 128 75 152 123 69 163 130 73 
145 117 65 155 122 69 176 142 85 180 145 88 185 149 88 185 149 88 185 149 88 192 157 98 185 149 88 192 157 98 174 142 82 185 149 88 162 128 75 173 141 87 173 141 87 152 123 69 
147 117 68 163 130 73 192 157 98 192 157 98 185 149 88 185 149 88 192 157 98 192 157 98 185 149 88 192 157 98 192 157 98 185 149 88 185 149 88 192 157 98 173 141 87 152 123 69 
