P3
16 16
255
255 255 255 255 255 255 255 255 255 255 255 255 255 255 255 255 255 255 255 255 255 255 255 255 255 255 255 255 255 255 255 255 255 255 255 255 255 255 255 255 255 255 255 255 255 255 255 255 
255 255 255 255 255 255 255 255 255 255 255 255 255 255 255 255 255 255 255 255 255 255 255 255 255 255 255 255 255 255 255 255 255 255 255 255 255 255 255 255 255 255 255 255 255 255 255 255 
255 255 255 255 255 255 255 255 255 255 255 255 255 255 255 255 255 255 255 255 255 255 255 255 255 255 255 255 255 255 255 255 255 255 255 255 255 255 255 255 255 255 255 255 255 255 255 255 
255 255 255 255 255 255 255 255 255 255 255 255 255 255 255 255 255 255 255 255 255 255 255 255 255 255 255 255 255 255 255 255 255 255 255 255 255 255 255 255 255 255 255 255 255 255 255 255 
255 255 255 255 255 255 255 255 255 255 255 255 255 255 255 255 255 255 255 255 255 255 255 255 255 255 255 255 255 255 255 255 255 255 255 255 255 255 255 255 255 255 255 255 255 255 255 255 
255 255 255 255 255 255 255 255 255 255 255 255 255 255 255 255 255 255 255 255 255 255 255 255 255 255 255 255 255 255 255 255 255 255 255 255 255 255 255 255 255 255 255 255 255 255 255 255 
255 255 255 255 255 255 255 255 255 255 255 255 255 255 255 255 255 255 255 255 255 255 255 255 255 255 255 255 255 255 255 255 255 255 255 255 255 255 255 255 255 255 255 255 255 255 255 255 
255 255 255 255 255 255 255 255 255 255 255 255 255 255 255 255 255 255 255 255 255 255 255 255 255 255 255 255 255 255 255 255 255 255 255 255 255 255 255 255 255 255 255 255 255 255 255 255 
255 255 255 255 255 255 255 255 255 255 255 255 255 255 255 255 255 255 41 82 48 255 255 255 29 56 34 40 98 64 255 255 255 255 255 255 255 255 255 255 255 255 255 255 255 255 255 255 
255 255 255 255 255 255 255 255 255 255 255 255 40 98 64 255 255 255 40 98 64 29 56 34 255 255 255 40 98 64 40 98 64 29 56 34 255 255 255 255 255 255 255 255 255 255 255 255 
255 255 255 255 255 255 255 255 255 255 255 255 40 98 64 40 98 64 72 127 79 40 98 64 41 82 48 29 56 34 41 82 48 255 255 255 255 255 255 255 255 255 255 255 255 255 255 255 
255 255 255 255 255 255 255 255 255 40 98 64 255 255 255 40 98 64 29 56 34 41 82 48 40 98 64 255 255 255 40 98 64 72 127 79 29 56 34 255 255 255 255 255 255 255 255 255 
255 255 255 255 255 255 255 255 255 255 255 255 41 82 48 72 127 79 41 82 48 29 56 34 72 127 79 40 98 64 72 127 79 72 127 79 255 255 255 255 255 255 255 255 255 255 255 255 
255 255 255 255 255 255 255 255 255 40 98 64 40 98 64 29 56 34 41 82 48 72 127 79 40 98 64 41 82 48 29 56 34 40 98 64 40 98 64 255 255 255 255 255 255 255 255 255 
255 255 255 255 255 255 255 255 255 255 255 255 41 82 48 255 255 255 72 127 79 72 127 79 41 82 48 40 98 64 255 255 255 40 98 64 255 255 255 255 255 255 255 255 255 255 255 255 
255 255 255 255 255 255 255 255 255 255 255 255 255 255 255 29 56 34 40 98 64 29 56 34 255 255 255 29 56 34 29 56 34 255 255 255 255 255 255 255 255 255 255 255 255 255 255 255 
