P3
16 16
255
255 255 255 255 255 255 208 208 208 217 217 217 255 255 255 255 255 255 255 255 255 210 210 210 255 255 255 255 255 255 211 211 211 198 198 198 255 255 255 255 255 255 217 217 217 255 255 255 
192 192 192 255 255 255 255 255 255 255 255 255 198 198 198 208 208 208 208 208 208 255 255 255 255 255 255 255 255 255 211 211 211 255 255 255 234 234 234 208 208 208 255 255 255 255 255 255 
255 255 255 255 255 255 198 198 198 255 255 255 255 255 255 255 255 255 255 255 255 198 198 198 186 186 186 255 255 255 255 255 255 255 255 255 255 255 255 255 255 255 255 255 255 186 186 186 
255 255 255 255 255 255 190 190 190 255 255 255 186 186 186 255 255 255 255 255 255 255 255 255 255 255 255 255 255 255 255 255 255 186 186 186 255 255 255 255 255 255 198 198 198 255 255 255 
255 255 255 255 255 255 156 156 156 174 174 174 255 255 255 255 255 255 255 255 255 159 159 159 255 255 255 255 255 255 161 161 161 134 134 134 255 255 255 255 255 255 174 174 174 255 255 255 
121 121 121 255 255 255 255 255 255 255 255 255 134 134 134 156 156 156 156 156 156 255 255 255 255 255 255 255 255 255 161 161 161 255 255 255 212 212 212 156 156 156 255 255 255 255 255 255 
255 255 255 255 255 255 134 134 134 255 255 255 255 255 255 255 255 255 255 255 255 134 134 134 110 110 110 255 255 255 255 255 255 255 255 255 255 255 255 255 255 255 255 255 255 110 110 110 
255 255 255 255 255 255 117 117 117 255 255 255 110 110 110 255 255 255 255 255 255 255 255 255 255 255 255 255 255 255 255 255 255 110 110 110 255 255 255 255 255 255 134 134 134 255 255 255 
255 255 255 255 255 255 255 255 255 255 255 255 255 255 255 255 255 255 255 255 255 255 255 255 255 255 255 255 255 255 255 255 255 255 255 255 255 255 255 255 255 255 255 255 255 255 255 255 
255 255 255 255 255 255 255 255 255 255 255 255 255 255 255 255 255 255 255 255 255 255 255 255 255 255 255 255 255 255 255 255 255 255 255 255 255 255 255 255 255 255 255 255 255 255 255 255 
255 255 255 255 255 255 255 255 255 255 255 255 255 255 255 255 255 255 255 255 255 255 255 255 255 255 255 255 255 255 255 255 255 255 255 255 255 255 255 255 255 255 255 255 255 255 255 255 
255 255 255 255 255 255 255 255 255 255 255 255 255 255 255 255 255 255 255 255 255 255 255 255 255 255 255 255 255 255 255 255 255 255 255 255 255 255 255 255 255 255 255 255 255 255 255 255 
255 255 255 255 255 255 255 255 255 255 255 255 255 255 255 255 255 255 255 255 255 255 255 255 255 255 255 255 255 255 255 255 255 255 255 255 255 255 255 255 255 255 255 255 255 255 255 255 
255 255 255 255 255 255 255 255 255 255 255 255 255 255 255 255 255 255 255 255 255 255 255 255 255 255 255 255 255 255 255 255 255 255 255 255 255 255 255 255 255 255 255 255 255 255 255 255 
255 255 255 255 255 255 255 255 255 255 255 255 255 255 255 255 255 255 255 255 255 255 255 255 255 255 255 255 255 255 255 255 255 255 255 255 255 255 255 255 255 255 255 255 255 255 255 255 
255 255 255 255 255 255 255 255 255 255 255 255 255 255 255 255 255 255 255 255 255 255 255 255 255 255 255 255 255 255 255 255 255 255 255 255 255 255 255 255 255 255 255 255 255 255 255 255 
