P3
16 16
255
122 183 153 122 183 153 122 183 153 122 183 153 102 169 119 122 183 153 102 169 119 106 113 71 122 183 153 102 169 119 122 183 153 122 183 153 122 183 153 102 169 119 122 183 153 106 113 71 
102 169 119 116 141 87 116 141 87 141 135 112 141 135 112 108 151 92 100 160 119 73 113 100 122 183 153 141 135 112 141 135 112 116 141 87 141 135 112 141 135 112 141 135 112 73 113 100 
122 183 153 116 141 87 141 135 112 141 135 112 108 151 92 100 160 119 100 160 119 73 113 100 122 183 153 141 135 112 116 141 87 108 151 92 141 135 112 141 135 112 108 151 92 106 113 71 
122 183 153 100 160 119 108 151 92 141 135 112 100 160 119 100 160 119 100 160 119 73 113 100 122 183 153 116 141 87 100 160 119 108 151 92 116 141 87 141 135 112 100 160 119 73 113 100 
122 183 153 100 160 119 100 160 119 108 151 92 108 151 92 116 141 87 108 151 92 106 113 71 102 169 119 100 160 119 100 160 119 100 160 119 116 141 87 100 160 119 100 160 119 73 113 100 
102 169 119 100 160 119 100 160 119 100 160 119 116 141 87 141 135 112 116 141 87 106 113 71 122 183 153 100 160 119 100 160 119 141 135 112 100 160 119 100 160 119 100 160 119 106 113 71 
102 169 119 108 151 92 100 160 119 100 160 119 141 135 112 141 135 112 141 135 112 73 113 100 102 169 119 108 151 92 108 151 92 141 135 112 141 135 112 116 141 87 100 160 119 106 113 71 
106 113 71 73 113 100 73 113 100 73 113 100 106 113 71 73 113 100 73 113 100 73 113 100 106 113 71 73 113 100 106 113 71 73 113 100 73 113 100 73 113 100 106 113 71 73 113 100 
122 183 153 122 183 153 102 169 119 122 183 153 102 169 119 102 169 119 122 183 153 106 113 71 122 183 153 102 169 119 122 183 153 122 183 153 122 183 153 102 169 119 102 169 119 106 113 71 
102 169 119 141 135 112 100 160 119 116 141 87 141 135 112 141 135 112 141 135 112 106 113 71 102 169 119 108 151 92 141 135 112 100 160 119 100 160 119 100 160 119 100 160 119 106 113 71 
122 183 153 116 141 87 116 141 87 116 141 87 100 160 119 141 135 112 108 151 92 106 113 71 102 169 119 141 135 112 141 135 112 100 160 119 141 135 112 108 151 92 100 160 119 106 113 71 
122 183 153 108 151 92 116 141 87 100 160 119 100 160 119 100 160 119 116 141 87 73 113 100 102 169 119 141 135 112 108 151 92 108 151 92 141 135 112 116 141 87 100 160 119 73 113 100 
122 183 153 108 151 92 108 151 92 100 160 119 100 160 119 116 141 87 116 141 87 73 113 100 102 169 119 108 151 92 108 151 92 116 141 87 116 141 87 116 141 87 108 151 92 106 113 71 
102 169 119 100 160 119 100 160 119 108 151 92 100 160 119 141 135 112 116 141 87 73 113 100 122 183 153 108 151 92 100 160 119 108 151 92 116 141 87 141 135 112 116 141 87 73 113 100 
102 169 119 100 160 119 108 151 92 116 141 87 141 135 112 141 135 112 141 135 112 106 113 71 102 169 119 141 135 112 100 160 119 100 160 119 141 135 112 141 135 112 141 135 112 73 113 100 
73 113 100 106 113 71 106 113 71 106 113 71 73 113 100 73 113 100 106 113 71 73 113 100 106 113 71 106 113 71 106 113 71 106 113 71 73 113 100 73 113 100 106 113 71 106 113 71 
