P3
16 16
255
255 255 255 255 255 255 255 255 255 255 255 255 106 4 0 123 0 0 106 4 0 255 255 255 255 255 255 255 255 255 123 0 0 106 4 0 255 255 255 255 255 255 255 255 255 255 255 255 
255 255 255 255 255 255 255 255 255 255 255 255 123 0 0 123 0 0 90 0 0 255 255 255 255 255 255 255 255 255 123 0 0 106 4 0 197 52 57 255 101 0 255 255 255 255 255 255 
255 255 255 197 52 57 164 36 41 90 0 0 123 0 0 123 0 0 255 255 255 255 255 255 255 255 255 255 255 255 90 0 0 148 24 24 164 36 41 164 36 41 197 52 57 255 255 255 
197 52 57 255 101 0 164 36 41 90 0 0 123 0 0 90 0 0 255 255 255 255 255 255 255 255 255 255 255 255 90 0 0 90 0 0 90 0 0 255 255 255 255 255 255 255 255 255 
255 255 255 255 255 255 90 0 0 90 0 0 123 0 0 255 255 255 255 255 255 255 255 255 255 255 255 255 255 255 106 4 0 106 4 0 106 4 0 255 255 255 255 255 255 255 255 255 
255 255 255 255 255 255 106 4 0 123 0 0 123 0 0 255 255 255 255 255 255 255 255 255 255 255 255 255 255 255 106 4 0 106 4 0 123 0 0 255 255 255 255 255 255 255 255 255 
255 255 255 255 255 255 106 4 0 123 0 0 90 0 0 164 36 41 197 52 57 197 52 57 255 255 255 255 255 255 255 255 255 123 0 0 123 0 0 164 36 41 197 52 57 255 255 255 
255 255 255 255 255 255 255 255 255 123 0 0 90 0 0 164 36 41 255 101 0 164 36 41 197 52 57 255 255 255 255 255 255 106 4 0 106 4 0 90 0 0 255 255 255 255 255 255 
255 255 255 255 255 255 255 255 255 255 255 255 90 0 0 90 0 0 90 0 0 255 255 255 255 255 255 255 255 255 255 255 255 255 255 255 123 0 0 106 4 0 255 255 255 255 255 255 
255 255 255 255 255 255 255 255 255 255 255 255 255 255 255 123 0 0 123 0 0 255 255 255 255 255 255 255 255 255 255 255 255 90 0 0 106 4 0 123 0 0 255 255 255 255 255 255 
255 255 255 255 255 255 255 255 255 255 255 255 255 255 255 123 0 0 123 0 0 106 4 0 255 255 255 255 101 0 197 52 57 123 0 0 106 4 0 106 4 0 255 255 255 255 255 255 
255 255 255 255 255 255 255 255 255 255 255 255 255 255 255 106 4 0 106 4 0 106 4 0 255 255 255 255 255 255 90 0 0 106 4 0 106 4 0 255 255 255 255 255 255 255 255 255 
255 255 255 255 255 255 255 255 255 255 255 255 197 52 57 197 52 57 164 36 41 90 0 0 255 255 255 123 0 0 106 4 0 106 4 0 255 255 255 255 255 255 255 255 255 255 255 255 
255 255 255 255 255 255 255 255 255 197 52 57 197 52 57 164 36 41 148 24 24 148 24 24 255 255 255 123 0 0 123 0 0 164 36 41 197 52 57 255 255 255 255 255 255 255 255 255 
255 255 255 255 255 255 255 255 255 255 255 255 255 255 255 90 0 0 90 0 0 255 255 255 255 255 255 123 0 0 123 0 0 148 24 24 255 101 0 197 52 57 255 255 255 255 255 255 
255 255 255 255 255 255 255 255 255 255 255 255 106 4 0 106 4 0 123 0 0 255 255 255 255 255 255 106 4 0 123 0 0 90 0 0 255 255 255 255 255 255 255 255 255 255 255 255 
