P3
16 16
255
209 177 161 207 175 160 207 175 160 207 175 160 209 175 161 210 179 163 212 183 164 211 180 163 207 177 160 212 183 163 211 182 163 209 177 160 207 174 159 207 174 159 207 174 159 209 177 160 
209 177 161 210 177 161 212 182 164 212 183 164 212 180 164 210 179 166 209 177 161 209 177 160 209 177 160 210 180 161 212 183 163 211 182 163 207 175 160 210 177 161 210 177 161 207 175 160 
209 177 162 205 177 161 209 177 161 209 177 160 207 175 159 207 174 159 207 175 159 209 177 160 211 180 162 210 179 162 210 180 162 210 179 162 209 177 162 210 183 162 210 179 161 210 179 159 
210 180 162 211 182 163 210 179 162 210 175 160 207 174 159 206 174 159 207 175 160 212 177 161 210 177 161 209 177 161 209 177 161 209 179 161 210 177 161 210 177 161 210 177 160 209 177 159 
210 179 162 212 182 163 212 182 163 211 180 162 210 180 162 206 173 159 207 174 159 209 174 159 209 175 161 207 175 160 213 183 164 213 183 164 210 177 161 209 177 161 210 179 162 209 177 160 
212 182 163 210 179 162 211 180 163 209 177 162 209 175 160 210 177 161 210 177 161 210 177 161 210 177 161 210 177 161 210 179 162 210 180 162 210 180 162 210 179 162 209 177 161 212 182 163 
211 180 162 211 182 163 210 180 163 209 177 162 209 177 160 207 175 160 210 177 161 212 177 163 210 175 160 207 175 160 209 177 161 210 179 161 211 182 163 212 180 163 211 180 162 209 175 160 
211 180 163 210 177 161 209 177 160 207 175 160 211 180 162 211 180 162 207 175 160 211 182 162 212 182 163 210 177 161 209 177 161 210 177 161 210 177 161 210 179 162 211 180 163 211 180 163 
211 180 163 211 180 163 210 180 163 206 174 159 209 177 161 207 175 159 209 177 161 209 177 161 209 177 161 210 180 163 212 182 163 212 182 163 212 182 163 212 182 164 212 183 166 210 177 161 
211 180 163 210 177 161 209 177 161 207 175 159 207 175 159 207 175 160 209 177 161 207 175 160 210 177 161 209 177 160 209 177 161 209 177 161 210 180 162 210 180 162 213 183 164 212 182 164 
210 177 160 210 177 161 209 177 162 207 175 159 207 174 160 213 183 164 213 183 164 209 175 158 210 179 162 210 180 162 212 183 163 212 182 164 210 177 161 210 179 161 210 177 161 207 175 160 
207 174 160 210 177 161 210 177 161 209 177 161 207 175 160 210 177 161 210 179 162 209 177 162 212 182 163 212 183 163 211 180 163 210 180 162 210 180 162 212 182 163 211 180 163 210 177 161 
209 175 161 209 177 161 209 177 161 210 177 161 209 177 160 210 175 160 207 175 160 209 177 161 213 183 166 214 180 162 209 177 160 207 175 160 209 175 160 210 179 161 210 177 161 210 179 162 
210 179 162 210 180 162 210 180 162 211 182 163 209 180 162 211 183 164 210 177 160 207 175 159 209 177 160 210 175 160 205 175 158 207 175 160 210 175 160 210 177 161 212 185 163 212 182 163 
210 177 161 209 180 162 209 177 162 210 172 158 207 174 159 209 177 161 210 175 160 207 175 160 209 177 161 209 177 162 210 180 162 211 180 162 210 177 161 207 177 159 210 175 160 211 180 162 
209 177 162 210 179 162 210 179 162 209 180 162 209 180 162 211 180 163 212 182 163 210 180 163 209 179 162 210 180 163 210 179 162 210 175 160 209 174 159 207 174 159 210 177 161 210 179 162 
