P3
16 16
255
254 216 61 242 176 21 255 236 157 255 236 157 255 240 183 255 240 183 255 236 157 242 176 21 255 236 157 254 216 61 254 216 61 255 236 157 238 170 13 173 124 80 164 118 76 164 118 76 
242 176 21 255 236 157 255 236 157 242 176 21 238 170 13 243 182 37 255 236 157 255 236 157 242 176 21 255 236 157 255 236 157 255 236 157 238 170 13 238 170 13 153 109 70 164 118 76 
255 236 157 255 236 157 242 176 21 255 236 157 255 236 157 255 236 157 242 176 21 255 236 157 255 236 157 242 176 21 242 176 21 242 176 21 254 216 61 242 176 21 240 172 13 153 109 70 
255 236 157 243 182 37 255 236 157 255 236 157 254 216 61 255 236 157 255 236 157 242 176 21 255 236 157 255 243 196 255 240 183 255 240 183 242 176 21 254 216 61 240 172 13 240 172 13 
255 240 183 242 176 21 255 236 157 254 216 61 254 216 61 254 222 95 255 243 196 242 176 21 255 238 170 238 170 13 242 176 21 255 236 157 255 240 183 242 176 21 254 222 95 254 216 61 
255 236 157 242 176 21 255 236 157 255 236 157 254 222 95 255 243 196 255 243 196 243 182 37 255 243 196 242 176 21 242 176 21 242 176 21 255 236 157 255 236 157 242 176 21 254 222 95 
255 236 157 255 236 157 242 176 21 255 236 157 255 243 196 255 243 196 243 182 37 255 243 196 255 238 170 255 236 157 243 182 37 242 176 21 243 182 37 255 236 157 243 182 37 254 216 61 
242 176 21 255 236 157 255 236 157 242 176 21 243 182 37 243 182 37 255 243 196 255 238 170 242 176 21 255 236 157 255 236 157 243 182 37 238 170 13 255 240 183 242 176 21 242 176 21 
255 236 157 242 176 21 255 236 157 255 240 183 255 236 157 255 236 157 255 236 157 242 176 21 173 124 80 242 176 21 255 236 157 255 236 157 238 170 13 255 243 196 173 124 80 164 118 76 
254 216 61 255 236 157 242 176 21 255 236 157 242 176 21 243 182 37 255 236 157 255 240 183 242 176 21 173 124 80 242 176 21 255 236 157 255 243 196 255 243 196 164 118 76 153 109 70 
254 216 61 255 236 157 242 176 21 255 240 183 243 182 37 242 176 21 242 176 21 255 236 157 255 240 183 242 176 21 164 118 76 153 109 70 164 118 76 153 109 70 164 118 76 164 118 76 
255 236 157 255 236 157 242 176 21 255 236 157 255 236 157 243 182 37 242 176 21 238 170 13 255 236 157 255 240 183 153 109 70 153 109 70 173 124 80 243 182 37 243 182 37 242 176 21 
238 170 13 240 172 13 254 216 61 242 176 21 255 236 157 255 236 157 243 182 37 242 176 21 238 170 13 255 240 183 164 118 76 177 130 86 242 176 21 242 176 21 177 130 86 164 118 76 
177 130 86 240 172 13 242 176 21 254 216 61 242 176 21 255 236 157 255 236 157 255 238 170 255 243 196 255 243 196 164 118 76 238 170 13 238 170 13 173 124 80 173 124 80 242 176 21 
164 118 76 153 109 70 242 176 21 242 176 21 254 216 61 242 176 21 242 176 21 243 182 37 173 124 80 164 118 76 153 109 70 238 170 13 177 130 86 177 130 86 238 170 13 242 176 21 
164 118 76 164 118 76 153 109 70 242 176 21 254 222 95 254 216 61 254 216 61 242 176 21 164 118 76 164 118 76 164 118 76 242 176 21 164 118 76 238 170 13 242 176 21 177 130 86 
